  0
SECTION
  2
HEADER
  9
$ACADVER
  1
AC1015
  9
$ACADMAINTVER
 70
     6
  9
$DWGCODEPAGE
  3
ANSI_1252
  9
$INSBASE
 10
0.0
 20
0.0
 30
0.0
  9
$EXTMIN
 10
-25.05
 20
-24.9744848362
 30
0.0
  9
$EXTMAX
 10
25.05
 20
24.9744848362
 30
0.0
  9
$LIMMIN
 10
0.0
 20
0.0
  9
$LIMMAX
 10
420.0
 20
297.0
  9
$ORTHOMODE
 70
     0
  9
$REGENMODE
 70
     1
  9
$FILLMODE
 70
     1
  9
$QTEXTMODE
 70
     0
  9
$MIRRTEXT
 70
     1
  9
$LTSCALE
 40
1.0
  9
$ATTMODE
 70
     1
  9
$TEXTSIZE
 40
3.5
  9
$TRACEWID
 40
1.0
  9
$TEXTSTYLE
  7
Standard
  9
$CLAYER
  8
0
  9
$CELTYPE
  6
ByLayer
  9
$CECOLOR
 62
   256
  9
$CELTSCALE
 40
1.0
  9
$DISPSILH
 70
     0
  9
$DIMSCALE
 40
1.0
  9
$DIMASZ
 40
3.302
  9
$DIMEXO
 40
1.0
  9
$DIMDLI
 40
3.75
  9
$DIMRND
 40
0.0
  9
$DIMDLE
 40
0.0
  9
$DIMEXE
 40
1.0
  9
$DIMTP
 40
0.0
  9
$DIMTM
 40
0.0
  9
$DIMTXT
 40
3.5
  9
$DIMCEN
 40
2.5
  9
$DIMTSZ
 40
0.0
  9
$DIMTOL
 70
     0
  9
$DIMLIM
 70
     0
  9
$DIMTIH
 70
     1
  9
$DIMTOH
 70
     1
  9
$DIMSE1
 70
     0
  9
$DIMSE2
 70
     0
  9
$DIMTAD
 70
     1
  9
$DIMZIN
 70
     0
  9
$DIMBLK
  1

  9
$DIMASO
 70
     1
  9
$DIMSHO
 70
     1
  9
$DIMPOST
  1

  9
$DIMAPOST
  1

  9
$DIMALT
 70
     0
  9
$DIMALTD
 70
     3
  9
$DIMALTF
 40
0.0393700787
  9
$DIMLFAC
 40
1.0
  9
$DIMTOFL
 70
     1
  9
$DIMTVP
 40
0.0
  9
$DIMTIX
 70
     0
  9
$DIMSOXD
 70
     0
  9
$DIMSAH
 70
     0
  9
$DIMBLK1
  1

  9
$DIMBLK2
  1

  9
$DIMSTYLE
  2
ISO-25
  9
$DIMCLRD
 70
     0
  9
$DIMCLRE
 70
     0
  9
$DIMCLRT
 70
     0
  9
$DIMTFAC
 40
1.0
  9
$DIMGAP
 40
1.524
  9
$DIMJUST
 70
     0
  9
$DIMSD1
 70
     0
  9
$DIMSD2
 70
     0
  9
$DIMTOLJ
 70
     0
  9
$DIMTZIN
 70
     0
  9
$DIMALTZ
 70
     0
  9
$DIMALTTZ
 70
     0
  9
$DIMUPT
 70
     0
  9
$DIMDEC
 70
     2
  9
$DIMTDEC
 70
     2
  9
$DIMALTU
 70
     2
  9
$DIMALTTD
 70
     3
  9
$DIMTXSTY
  7
Standard
  9
$DIMAUNIT
 70
     0
  9
$DIMADEC
 70
     2
  9
$DIMALTRND
 40
0.0
  9
$DIMAZIN
 70
     0
  9
$DIMDSEP
 70
    44
  9
$DIMATFIT
 70
     3
  9
$DIMFRAC
 70
     0
  9
$DIMLDRBLK
  1

  9
$DIMLUNIT
 70
     2
  9
$DIMLWD
 70
    -2
  9
$DIMLWE
 70
    -2
  9
$DIMTMOVE
 70
     0
  9
$LUNITS
 70
     2
  9
$LUPREC
 70
     2
  9
$SKETCHINC
 40
1.0
  9
$FILLETRAD
 40
10.0
  9
$AUNITS
 70
     0
  9
$AUPREC
 70
     2
  9
$MENU
  1
.
  9
$ELEVATION
 40
0.0
  9
$PELEVATION
 40
0.0
  9
$THICKNESS
 40
0.0
  9
$LIMCHECK
 70
     0
  9
$CHAMFERA
 40
0.0
  9
$CHAMFERB
 40
0.0
  9
$CHAMFERC
 40
0.0
  9
$CHAMFERD
 40
0.0
  9
$SKPOLY
 70
     0
  9
$TDCREATE
 40
2457192.657591701
  9
$TDUCREATE
 40
2457192.949258368
  9
$TDUPDATE
 40
2457192.657616933
  9
$TDUUPDATE
 40
2457192.949283599
  9
$TDINDWG
 40
0.0000000116
  9
$TDUSRTIMER
 40
0.0000000116
  9
$USRTIMER
 70
     1
  9
$ANGBASE
 50
0.0
  9
$ANGDIR
 70
     0
  9
$PDMODE
 70
     0
  9
$PDSIZE
 40
-1.0
  9
$PLINEWID
 40
0.0
  9
$SPLFRAME
 70
     0
  9
$SPLINETYPE
 70
     6
  9
$SPLINESEGS
 70
     8
  9
$HANDSEED
  5
154
  9
$SURFTAB1
 70
     6
  9
$SURFTAB2
 70
     6
  9
$SURFTYPE
 70
     6
  9
$SURFU
 70
     6
  9
$SURFV
 70
     6
  9
$UCSBASE
  2

  9
$UCSNAME
  2

  9
$UCSORG
 10
0.0
 20
0.0
 30
0.0
  9
$UCSXDIR
 10
1.0
 20
0.0
 30
0.0
  9
$UCSYDIR
 10
0.0
 20
1.0
 30
0.0
  9
$UCSORTHOREF
  2

  9
$UCSORTHOVIEW
 70
     0
  9
$UCSORGTOP
 10
0.0
 20
0.0
 30
0.0
  9
$UCSORGBOTTOM
 10
0.0
 20
0.0
 30
0.0
  9
$UCSORGLEFT
 10
0.0
 20
0.0
 30
0.0
  9
$UCSORGRIGHT
 10
0.0
 20
0.0
 30
0.0
  9
$UCSORGFRONT
 10
0.0
 20
0.0
 30
0.0
  9
$UCSORGBACK
 10
0.0
 20
0.0
 30
0.0
  9
$PUCSBASE
  2

  9
$PUCSNAME
  2

  9
$PUCSORG
 10
0.0
 20
0.0
 30
0.0
  9
$PUCSXDIR
 10
1.0
 20
0.0
 30
0.0
  9
$PUCSYDIR
 10
0.0
 20
1.0
 30
0.0
  9
$PUCSORTHOREF
  2

  9
$PUCSORTHOVIEW
 70
     0
  9
$PUCSORGTOP
 10
0.0
 20
0.0
 30
0.0
  9
$PUCSORGBOTTOM
 10
0.0
 20
0.0
 30
0.0
  9
$PUCSORGLEFT
 10
0.0
 20
0.0
 30
0.0
  9
$PUCSORGRIGHT
 10
0.0
 20
0.0
 30
0.0
  9
$PUCSORGFRONT
 10
0.0
 20
0.0
 30
0.0
  9
$PUCSORGBACK
 10
0.0
 20
0.0
 30
0.0
  9
$USERI1
 70
     0
  9
$USERI2
 70
     0
  9
$USERI3
 70
     0
  9
$USERI4
 70
     0
  9
$USERI5
 70
     0
  9
$USERR1
 40
0.0
  9
$USERR2
 40
0.0
  9
$USERR3
 40
0.0
  9
$USERR4
 40
0.0
  9
$USERR5
 40
0.0
  9
$WORLDVIEW
 70
     1
  9
$SHADEDGE
 70
     3
  9
$SHADEDIF
 70
    70
  9
$TILEMODE
 70
     1
  9
$MAXACTVP
 70
    64
  9
$PINSBASE
 10
0.0
 20
0.0
 30
0.0
  9
$PLIMCHECK
 70
     0
  9
$PEXTMIN
 10
1.0000000000E+20
 20
1.0000000000E+20
 30
1.0000000000E+20
  9
$PEXTMAX
 10
-1.0000000000E+20
 20
-1.0000000000E+20
 30
-1.0000000000E+20
  9
$PLIMMIN
 10
0.0
 20
0.0
  9
$PLIMMAX
 10
420.0
 20
297.0
  9
$UNITMODE
 70
     0
  9
$VISRETAIN
 70
     1
  9
$PLINEGEN
 70
     0
  9
$PSLTSCALE
 70
     1
  9
$TREEDEPTH
 70
  3020
  9
$CMLSTYLE
  2
Standard
  9
$CMLJUST
 70
     0
  9
$CMLSCALE
 40
20.0
  9
$PROXYGRAPHICS
 70
     1
  9
$MEASUREMENT
 70
     1
  9
$CELWEIGHT
370
    -1
  9
$ENDCAPS
280
     0
  9
$JOINSTYLE
280
     0
  9
$LWDISPLAY
290
     1
  9
$INSUNITS
 70
     4
  9
$HYPERLINKBASE
  1

  9
$STYLESHEET
  1

  9
$XEDIT
290
     1
  9
$CEPSNTYPE
380
     0
  9
$PSTYLEMODE
290
     1
  9
$FINGERPRINTGUID
  2
{263C4FDB-7320-4370-A9CB-AC467908C69B}
  9
$VERSIONGUID
  2
{FAEB1C32-E019-11D5-929B-00C0DF256EC4}
  9
$EXTNAMES
290
     1
  9
$PSVPSCALE
 40
0.0
  9
$OLESTARTUP
290
     0
  0
ENDSEC
  0
SECTION
  2
CLASSES
  0
CLASS
  1
ACDBDICTIONARYWDFLT
  2
AcDbDictionaryWithDefault
  3
ObjectDBX Classes
 90
        0
280
     0
281
     0
  0
CLASS
  1
VISUALSTYLE
  2
AcDbVisualStyle
  3
ObjectDBX Classes
 90
     4095
280
     0
281
     0
  0
CLASS
  1
MATERIAL
  2
AcDbMaterial
  3
ObjectDBX Classes
 90
     1153
280
     0
281
     0
  0
CLASS
  1
SCALE
  2
AcDbScale
  3
ObjectDBX Classes
 90
     1153
280
     0
281
     0
  0
CLASS
  1
SUN
  2
AcDbSun
  3
SCENEOE
 90
     1153
280
     0
281
     0
  0
CLASS
  1
ACDBPLACEHOLDER
  2
AcDbPlaceHolder
  3
ObjectDBX Classes
 90
        0
280
     0
281
     0
  0
CLASS
  1
LAYOUT
  2
AcDbLayout
  3
ObjectDBX Classes
 90
        0
280
     0
281
     0
  0
ENDSEC
  0
SECTION
  2
TABLES
  0
TABLE
  2
VPORT
  5
8
330
0
100
AcDbSymbolTable
 70
     1
  0
VPORT
  5
29
330
8
100
AcDbSymbolTableRecord
100
AcDbViewportTableRecord
  2
*Active
 70
     0
 10
0.0
 20
0.0
 11
1.0
 21
1.0
 12
0.0
 22
0.0
 13
0.0
 23
0.0
 14
10.0
 24
10.0
 15
10.0
 25
10.0
 16
0.0
 26
0.0
 36
1.0
 17
0.0
 27
0.0
 37
0.0
 40
50.9479490659
 41
1.0030236926
 42
50.0
 43
0.0
 44
0.0
 50
0.0
 51
0.0
 71
     0
 72
   100
 73
     1
 74
     3
 75
     0
 76
     0
 77
     0
 78
     0
281
     0
 65
     1
110
0.0
120
0.0
130
0.0
111
1.0
121
0.0
131
0.0
112
0.0
122
1.0
132
0.0
 79
     0
146
0.0
  0
ENDTAB
  0
TABLE
  2
LTYPE
  5
5
330
0
100
AcDbSymbolTable
 70
     6
  0
LTYPE
  5
14
330
5
100
AcDbSymbolTableRecord
100
AcDbLinetypeTableRecord
  2
ByBlock
 70
     0
  3

 72
    65
 73
     0
 40
0.0
  0
LTYPE
  5
15
330
5
100
AcDbSymbolTableRecord
100
AcDbLinetypeTableRecord
  2
ByLayer
 70
     0
  3

 72
    65
 73
     0
 40
0.0
  0
LTYPE
  5
16
330
5
100
AcDbSymbolTableRecord
100
AcDbLinetypeTableRecord
  2
Continuous
 70
     0
  3
Solid line
 72
    65
 73
     0
 40
0.0
  0
LTYPE
  5
6A
330
5
100
AcDbSymbolTableRecord
100
AcDbLinetypeTableRecord
  2
HIDDEN
 70
     0
  3
Hidden __ __ __ __ __ __ __ __ __ __ __ __ __ __
 72
    65
 73
     2
 40
1.905
 49
1.27
 74
     0
 49
-0.635
 74
     0
  0
LTYPE
  5
6B
330
5
100
AcDbSymbolTableRecord
100
AcDbLinetypeTableRecord
  2
PHANTOM
 70
     0
  3
Phantom ______  __  __  ______  __  __  ______
 72
    65
 73
     6
 40
12.7
 49
6.35
 74
     0
 49
-1.27
 74
     0
 49
1.27
 74
     0
 49
-1.27
 74
     0
 49
1.27
 74
     0
 49
-1.27
 74
     0
  0
LTYPE
  5
6C
330
5
100
AcDbSymbolTableRecord
100
AcDbLinetypeTableRecord
  2
CENTER
 70
     0
  3
Center ____ _ ____ _ ____ _ ____ _ ____ _ ____
 72
    65
 73
     4
 40
10.16
 49
6.35
 74
     0
 49
-1.27
 74
     0
 49
1.27
 74
     0
 49
-1.27
 74
     0
  0
LTYPE
  5
6D
330
5
100
AcDbSymbolTableRecord
100
AcDbLinetypeTableRecord
  2
CENTERX2
 70
     0
  3
Center (2x) ________  __  ________  __  _____
 72
    65
 73
     4
 40
20.32
 49
12.7
 74
     0
 49
-2.54
 74
     0
 49
2.54
 74
     0
 49
-2.54
 74
     0
  0
LTYPE
  5
6E
330
5
100
AcDbSymbolTableRecord
100
AcDbLinetypeTableRecord
  2
DOT2
 70
     0
  3
Dot (.5x) ........................................
 72
    65
 73
     2
 40
0.635
 49
0.0
 74
     0
 49
-0.635
 74
     0
  0
ENDTAB
  0
TABLE
  2
LAYER
  5
2
330
0
100
AcDbSymbolTable
 70
     1
  0
LAYER
  5
10
330
2
100
AcDbSymbolTableRecord
100
AcDbLayerTableRecord
  2
0
 70
     0
 62
     7
  6
Continuous
370
    -3
390
F
  0
ENDTAB
  0
TABLE
  2
STYLE
  5
3
330
0
100
AcDbSymbolTable
 70
     2
  0
STYLE
  5
11
330
3
100
AcDbSymbolTableRecord
100
AcDbTextStyleTableRecord
  2
Standard
 70
     0
 40
0.0
 41
1.0
 50
0.0
 71
     0
 42
3.5
  3
txt
  4

  0
STYLE
  5
151
330
3
100
AcDbSymbolTableRecord
100
AcDbTextStyleTableRecord
  2
SLDTEXTSTYLE0
 70
     0
 40
0.0
 41
0.7
 50
0.0
 71
     0
 42
3.5
  3
TXT
  4

  0
ENDTAB
  0
TABLE
  2
VIEW
  5
6
330
0
100
AcDbSymbolTable
 70
     0
  0
ENDTAB
  0
TABLE
  2
UCS
  5
7
330
0
100
AcDbSymbolTable
 70
     0
  0
ENDTAB
  0
TABLE
  2
APPID
  5
9
330
0
100
AcDbSymbolTable
 70
     1
  0
APPID
  5
12
330
9
100
AcDbSymbolTableRecord
100
AcDbRegAppTableRecord
  2
ACAD
 70
     0
  0
ENDTAB
  0
TABLE
  2
DIMSTYLE
  5
A
330
0
100
AcDbSymbolTable
 70
     1
100
AcDbDimStyleTable
  0
DIMSTYLE
105
27
330
A
100
AcDbSymbolTableRecord
100
AcDbDimStyleTableRecord
  2
ISO-25
 70
     0
 41
2.5
 42
0.625
 43
3.75
 44
1.25
 73
     0
 74
     0
 77
     1
 78
     8
140
2.5
141
2.5
143
0.0393700787
147
0.625
171
     3
172
     1
178
     0
271
     2
272
     2
274
     3
278
    44
283
     0
284
     8
340
11
  0
ENDTAB
  0
TABLE
  2
BLOCK_RECORD
  5
1
330
0
100
AcDbSymbolTable
 70
     1
  0
BLOCK_RECORD
  5
1F
330
1
100
AcDbSymbolTableRecord
100
AcDbBlockTableRecord
  2
*Model_Space
340
22
  0
BLOCK_RECORD
  5
1B
330
1
100
AcDbSymbolTableRecord
100
AcDbBlockTableRecord
  2
*Paper_Space
340
1E
  0
BLOCK_RECORD
  5
23
330
1
100
AcDbSymbolTableRecord
100
AcDbBlockTableRecord
  2
*Paper_Space0
340
26
  0
ENDTAB
  0
ENDSEC
  0
SECTION
  2
BLOCKS
  0
BLOCK
  5
20
330
1F
100
AcDbEntity
  8
0
100
AcDbBlockBegin
  2
*Model_Space
 70
     0
 10
0.0
 20
0.0
 30
0.0
  3
*Model_Space
  1
*Model_Space
  0
ENDBLK
  5
21
330
1F
100
AcDbEntity
  8
0
100
AcDbBlockEnd
  0
BLOCK
  5
1C
330
1B
100
AcDbEntity
 67
     1
  8
0
100
AcDbBlockBegin
  2
*Paper_Space
 70
     0
 10
0.0
 20
0.0
 30
0.0
  3
*Paper_Space
  1
*Paper_Space
  0
ENDBLK
  5
1D
330
1B
100
AcDbEntity
 67
     1
  8
0
100
AcDbBlockEnd
  0
BLOCK
  5
24
330
23
100
AcDbEntity
  8
0
100
AcDbBlockBegin
  2
*Paper_Space0
 70
     0
 10
0.0
 20
0.0
 30
0.0
  3
*Paper_Space0
  1
*Paper_Space0
  0
ENDBLK
  5
25
330
23
100
AcDbEntity
  8
0
100
AcDbBlockEnd
  0
ENDSEC
  0
SECTION
  2
ENTITIES
  0
ARC
  5
6F
330
1F
100
AcDbEntity
  8
0
  6
Continuous
 62
     7
370
    15
100
AcDbCircle
 10
0.0
 20
0.0
 30
0.0
 40
2.4
100
AcDbArc
 50
338.6180574202
 51
21.3819425798
  0
LINE
  5
70
330
1F
100
AcDbEntity
  8
0
  6
Continuous
 62
     7
370
    15
100
AcDbLine
 10
1.375
 20
0.875
 30
0.0
 11
2.2348098353
 21
0.875
 31
0.0
  0
ARC
  5
71
330
1F
100
AcDbEntity
  8
0
  6
Continuous
 62
     7
370
    15
100
AcDbCircle
 10
1.375
 20
1.375
 30
0.0
 40
0.4999999999999998
100
AcDbArc
 50
180.0
 51
270.0
  0
LINE
  5
72
330
1F
100
AcDbEntity
  8
0
  6
Continuous
 62
     7
370
    15
100
AcDbLine
 10
0.875
 20
2.2348098353
 30
0.0
 11
0.875
 21
1.375
 31
0.0
  0
ARC
  5
73
330
1F
100
AcDbEntity
  8
0
  6
Continuous
 62
     7
370
    15
100
AcDbCircle
 10
0.0
 20
0.0
 30
0.0
 40
2.399999999999999
100
AcDbArc
 50
68.6180574202
 51
111.3819425798
  0
LINE
  5
74
330
1F
100
AcDbEntity
  8
0
  6
Continuous
 62
     7
370
    15
100
AcDbLine
 10
-0.875
 20
1.375
 30
0.0
 11
-0.875
 21
2.2348098353
 31
0.0
  0
ARC
  5
75
330
1F
100
AcDbEntity
  8
0
  6
Continuous
 62
     7
370
    15
100
AcDbCircle
 10
-1.375
 20
1.375
 30
0.0
 40
0.5
100
AcDbArc
 50
270.0
 51
0.0
  0
LINE
  5
76
330
1F
100
AcDbEntity
  8
0
  6
Continuous
 62
     7
370
    15
100
AcDbLine
 10
-2.2348098353
 20
0.875
 30
0.0
 11
-1.375
 21
0.875
 31
0.0
  0
ARC
  5
77
330
1F
100
AcDbEntity
  8
0
  6
Continuous
 62
     7
370
    15
100
AcDbCircle
 10
0.0
 20
0.0
 30
0.0
 40
2.400000000000001
100
AcDbArc
 50
158.6180574202
 51
201.3819425798
  0
LINE
  5
78
330
1F
100
AcDbEntity
  8
0
  6
Continuous
 62
     7
370
    15
100
AcDbLine
 10
-1.375
 20
-0.875
 30
0.0
 11
-2.2348098353
 21
-0.875
 31
0.0
  0
ARC
  5
79
330
1F
100
AcDbEntity
  8
0
  6
Continuous
 62
     7
370
    15
100
AcDbCircle
 10
-1.375
 20
-1.375
 30
0.0
 40
0.5000000000000001
100
AcDbArc
 50
0.0
 51
90.0
  0
LINE
  5
7A
330
1F
100
AcDbEntity
  8
0
  6
Continuous
 62
     7
370
    15
100
AcDbLine
 10
-0.875
 20
-2.2348098353
 30
0.0
 11
-0.875
 21
-1.375
 31
0.0
  0
ARC
  5
7B
330
1F
100
AcDbEntity
  8
0
  6
Continuous
 62
     7
370
    15
100
AcDbCircle
 10
0.0
 20
0.0
 30
0.0
 40
2.399999999999999
100
AcDbArc
 50
248.6180574202
 51
291.3819425798
  0
LINE
  5
7C
330
1F
100
AcDbEntity
  8
0
  6
Continuous
 62
     7
370
    15
100
AcDbLine
 10
0.875
 20
-1.375
 30
0.0
 11
0.875
 21
-2.2348098353
 31
0.0
  0
ARC
  5
7D
330
1F
100
AcDbEntity
  8
0
  6
Continuous
 62
     7
370
    15
100
AcDbCircle
 10
1.375
 20
-1.375
 30
0.0
 40
0.5000000000000001
100
AcDbArc
 50
90.0
 51
180.0
  0
LINE
  5
7E
330
1F
100
AcDbEntity
  8
0
  6
Continuous
 62
     7
370
    15
100
AcDbLine
 10
2.2348098353
 20
-0.875
 30
0.0
 11
1.375
 21
-0.875
 31
0.0
  0
ARC
  5
7F
330
1F
100
AcDbEntity
  8
0
  6
Continuous
 62
     7
370
    15
100
AcDbCircle
 10
0.0
 20
0.0
 30
0.0
 40
21.4925
100
AcDbArc
 50
351.9585661567
 51
356.0414338434
  0
ARC
  5
80
330
1F
100
AcDbEntity
  8
0
  6
Continuous
 62
     7
370
    15
100
AcDbCircle
 10
21.6103983939
 20
-3.053081436
 30
0.0
 40
0.3325000000000018
100
AcDbArc
 50
171.9585661567
 51
259.2014199092
  0
ARC
  5
81
330
1F
100
AcDbEntity
  8
0
  6
Continuous
 62
     7
370
    15
100
AcDbCircle
 10
19.74392245
 20
-12.8388085252
 30
0.0
 40
9.62963767786723
100
AcDbArc
 50
59.4780604389
 51
79.2014199092
  0
LINE
  5
82
330
1F
100
AcDbEntity
  8
0
  6
Continuous
 62
     7
370
    15
100
AcDbLine
 10
24.5025973984
 20
-5.208187855
 30
0.0
 11
24.6345097693
 21
-4.5435039811
 31
0.0
  0
LINE
  5
83
330
1F
100
AcDbEntity
  8
0
  6
Continuous
 62
     7
370
    15
100
AcDbLine
 10
24.3527540581
 20
-5.8690603837
 30
0.0
 11
24.5025973984
 21
-5.208187855
 31
0.0
  0
ARC
  5
84
330
1F
100
AcDbEntity
  8
0
  6
Continuous
 62
     7
370
    15
100
AcDbCircle
 10
23.2589845509
 20
3.6982584713
 30
0.0
 40
9.629637677867228
100
AcDbArc
 50
256.7985800908
 51
276.5219395611
  0
ARC
  5
85
330
1F
100
AcDbEntity
  8
0
  6
Continuous
 62
     7
370
    15
100
AcDbCircle
 10
20.983881385
 20
-6.0006122206
 30
0.0
 40
0.3324999999999999
100
AcDbArc
 50
76.7985800908
 51
164.0414338433
  0
ARC
  5
86
330
1F
100
AcDbEntity
  8
0
  6
Continuous
 62
     7
370
    15
100
AcDbCircle
 10
0.0
 20
0.0
 30
0.0
 40
21.4925
100
AcDbArc
 50
339.9585661567
 51
344.0414338434
  0
ARC
  5
87
330
1F
100
AcDbEntity
  8
0
  6
Continuous
 62
     7
370
    15
100
AcDbCircle
 10
20.5033880164
 20
-7.4794187508
 30
0.0
 40
0.3325000000000047
100
AcDbArc
 50
159.9585661566
 51
247.2014199092
  0
ARC
  5
88
330
1F
100
AcDbEntity
  8
0
  6
Continuous
 62
     7
370
    15
100
AcDbCircle
 10
16.643131985
 20
-16.6632420551
 30
0.0
 40
9.629637677867231
100
AcDbArc
 50
47.4780604389
 51
67.2014199092
  0
LINE
  5
89
330
1F
100
AcDbEntity
  8
0
  6
Continuous
 62
     7
370
    15
100
AcDbLine
 10
22.8843137139
 20
-10.188752909
 30
0.0
 11
23.1515390312
 21
-9.5660200966
 31
0.0
  0
LINE
  5
8A
330
1F
100
AcDbEntity
  8
0
  6
Continuous
 62
     7
370
    15
100
AcDbLine
 10
22.6003416853
 20
-10.8040296051
 30
0.0
 11
22.8843137139
 21
-10.188752909
 31
0.0
  0
ARC
  5
8B
330
1F
100
AcDbEntity
  8
0
  6
Continuous
 62
     7
370
    15
100
AcDbCircle
 10
23.5196311058
 20
-1.2183721541
 30
0.0
 40
9.629637677867228
100
AcDbArc
 50
244.7985800908
 51
264.5219395611
  0
ARC
  5
8C
330
1F
100
AcDbEntity
  8
0
  6
Continuous
 62
     7
370
    15
100
AcDbCircle
 10
19.2777357981
 20
-10.2322787052
 30
0.0
 40
0.3325000000000012
100
AcDbArc
 50
64.7985800908
 51
152.0414338433
  0
ARC
  5
8D
330
1F
100
AcDbEntity
  8
0
  6
Continuous
 62
     7
370
    15
100
AcDbCircle
 10
0.0
 20
0.0
 30
0.0
 40
21.4925
100
AcDbArc
 50
327.9585661567
 51
332.0414338434
  0
ARC
  5
8E
330
1F
100
AcDbEntity
  8
0
  6
Continuous
 62
     7
370
    15
100
AcDbCircle
 10
18.5002811963
 20
-11.578869576
 30
0.0
 40
0.3325000000000056
100
AcDbArc
 50
147.9585661567
 51
235.2014199092
  0
ARC
  5
8F
330
1F
100
AcDbEntity
  8
0
  6
Continuous
 62
     7
370
    15
100
AcDbCircle
 10
12.8149567896
 20
-19.7594119482
 30
0.0
 40
9.629637677867228
100
AcDbArc
 50
35.4780604389
 51
55.2014199092
  0
LINE
  5
90
330
1F
100
AcDbEntity
  8
0
  6
Continuous
 62
     7
370
    15
100
AcDbLine
 10
20.2658757091
 20
-14.7240205699
 30
0.0
 11
20.6567349439
 21
-14.1704552311
 31
0.0
  0
LINE
  5
91
330
1F
100
AcDbEntity
  8
0
  6
Continuous
 62
     7
370
    15
100
AcDbLine
 10
19.8601859324
 20
-15.2668108894
 30
0.0
 11
20.2658757091
 21
-14.7240205699
 31
0.0
  0
ARC
  5
92
330
1F
100
AcDbEntity
  8
0
  6
Continuous
 62
     7
370
    15
100
AcDbCircle
 10
22.7523569216
 20
-6.08175407
 30
0.0
 40
9.629637677867228
100
AcDbArc
 50
232.7985800908
 51
252.5219395611
  0
ARC
  5
93
330
1F
100
AcDbEntity
  8
0
  6
Continuous
 62
     7
370
    15
100
AcDbCircle
 10
16.7290606519
 20
-14.0167455104
 30
0.0
 40
0.332500000000001
100
AcDbArc
 50
52.7985800908
 51
140.0414338433
  0
ARC
  5
94
330
1F
100
AcDbEntity
  8
0
  6
Continuous
 62
     7
370
    15
100
AcDbCircle
 10
0.0
 20
0.0
 30
0.0
 40
21.4925
100
AcDbArc
 50
315.9585661567
 51
320.0414338434
  0
ARC
  5
95
330
1F
100
AcDbEntity
  8
0
  6
Continuous
 62
     7
370
    15
100
AcDbCircle
 10
15.6886233138
 20
-15.1722682391
 30
0.0
 40
0.3325000000000056
100
AcDbArc
 50
135.9585661566
 51
223.2014199092
  0
ARC
  5
96
330
1F
100
AcDbEntity
  8
0
  6
Continuous
 62
     7
370
    15
100
AcDbCircle
 10
8.4267064896
 20
-21.9920007229
 30
0.0
 40
9.629637677867228
100
AcDbArc
 50
23.4780604389
 51
43.2014199092
  0
LINE
  5
97
330
1F
100
AcDbEntity
  8
0
  6
Continuous
 62
     7
370
    15
100
AcDbLine
 10
16.7617216893
 20
-18.6157778782
 30
0.0
 11
17.2591324176
 21
-18.1555734746
 31
0.0
  0
LINE
  5
98
330
1F
100
AcDbEntity
  8
0
  6
Continuous
 62
     7
370
    15
100
AcDbLine
 10
16.2520447545
 20
-19.0623592794
 30
0.0
 11
16.7617216893
 21
-18.6157778782
 31
0.0
  0
ARC
  5
99
330
1F
100
AcDbEntity
  8
0
  6
Continuous
 62
     7
370
    15
100
AcDbCircle
 10
20.9906955621
 20
-10.6793341494
 30
0.0
 40
9.629637677867228
100
AcDbArc
 50
220.7985800908
 51
240.5219395611
  0
ARC
  5
9A
330
1F
100
AcDbEntity
  8
0
  6
Continuous
 62
     7
370
    15
100
AcDbCircle
 10
13.4492452804
 20
-17.188613277
 30
0.0
 40
0.3324999999999974
100
AcDbArc
 50
40.7985800908
 51
128.0414338433
  0
ARC
  5
9B
330
1F
100
AcDbEntity
  8
0
  6
Continuous
 62
     7
370
    15
100
AcDbCircle
 10
0.0
 20
0.0
 30
0.0
 40
21.4925
100
AcDbArc
 50
303.9585661567
 51
308.0414338434
  0
ARC
  5
9C
330
1F
100
AcDbEntity
  8
0
  6
Continuous
 62
     7
370
    15
100
AcDbCircle
 10
12.1912973101
 20
-18.1025659755
 30
0.0
 40
0.3325
100
AcDbArc
 50
123.9585661566
 51
211.2014199092
  0
ARC
  5
9D
330
1F
100
AcDbEntity
  8
0
  6
Continuous
 62
     7
370
    15
100
AcDbCircle
 10
3.6701686801
 20
-23.2634335367
 30
0.0
 40
9.62963767786723
100
AcDbArc
 50
11.4780604389
 51
31.2014199092
  0
LINE
  5
9E
330
1F
100
AcDbEntity
  8
0
  6
Continuous
 62
     7
370
    15
100
AcDbLine
 10
12.525
 20
-21.6939363648
 30
0.0
 11
13.1072229862
 21
-21.3472060371
 31
0.0
  0
LINE
  5
9F
330
1F
100
AcDbEntity
  8
0
  6
Continuous
 62
     7
370
    15
100
AcDbLine
 10
11.9336112348
 20
-22.0247910977
 30
0.0
 11
12.525
 21
-21.6939363648
 31
0.0
  0
ARC
  5
A0
330
1F
100
AcDbEntity
  8
0
  6
Continuous
 62
     7
370
    15
100
AcDbCircle
 10
18.311640082
 20
-14.8101760815
 30
0.0
 40
9.629637677867228
100
AcDbArc
 50
208.7985800908
 51
228.5219395611
  0
ARC
  5
A1
330
1F
100
AcDbEntity
  8
0
  6
Continuous
 62
     7
370
    15
100
AcDbCircle
 10
9.5816333535
 20
-19.6092561634
 30
0.0
 40
0.332500000000002
100
AcDbArc
 50
28.7985800908
 51
116.0414338433
  0
ARC
  5
A2
330
1F
100
AcDbEntity
  8
0
  6
Continuous
 62
     7
370
    15
100
AcDbCircle
 10
0.0
 20
0.0
 30
0.0
 40
21.4925
100
AcDbArc
 50
291.9585661567
 51
296.0414338434
  0
ARC
  5
A3
330
1F
100
AcDbEntity
  8
0
  6
Continuous
 62
     7
370
    15
100
AcDbCircle
 10
8.1611531136
 20
-20.2416947131
 30
0.0
 40
0.332500000000004
100
AcDbArc
 50
111.9585661566
 51
199.2014199092
  0
ARC
  5
A4
330
1F
100
AcDbEntity
  8
0
  6
Continuous
 62
     7
370
    15
100
AcDbCircle
 10
-1.2467731121
 20
-23.5181426746
 30
0.0
 40
9.62963767786723
100
AcDbArc
 50
359.4780604389
 51
19.2014199092
  0
LINE
  5
A5
330
1F
100
AcDbEntity
  8
0
  6
Continuous
 62
     7
370
    15
100
AcDbLine
 10
7.7408757091
 20
-23.8239657332
 30
0.0
 11
8.3824650148
 21
-23.6058632605
 31
0.0
  0
LINE
  5
A6
330
1F
100
AcDbEntity
  8
0
  6
Continuous
 62
     7
370
    15
100
AcDbLine
 10
7.0936216404
 20
-24.0246338582
 30
0.0
 11
7.7408757091
 21
-23.8239657332
 31
0.0
  0
ARC
  5
A7
330
1F
100
AcDbEntity
  8
0
  6
Continuous
 62
     7
370
    15
100
AcDbCircle
 10
14.8322780613
 20
-18.2937422516
 30
0.0
 40
9.62963767786723
100
AcDbArc
 50
196.7985800908
 51
216.5219395611
  0
ARC
  5
A8
330
1F
100
AcDbEntity
  8
0
  6
Continuous
 62
     7
370
    15
100
AcDbCircle
 10
5.2952580712
 20
-21.1728804597
 30
0.0
 40
0.3325000000000045
100
AcDbArc
 50
16.7985800908
 51
104.0414338433
  0
ARC
  5
A9
330
1F
100
AcDbEntity
  8
0
  6
Continuous
 62
     7
370
    15
100
AcDbCircle
 10
0.0
 20
0.0
 30
0.0
 40
21.4925
100
AcDbArc
 50
279.9585661567
 51
284.0414338434
  0
ARC
  5
AA
330
1F
100
AcDbEntity
  8
0
  6
Continuous
 62
     7
370
    15
100
AcDbCircle
 10
3.7743273644
 20
-21.4961642612
 30
0.0
 40
0.3325000000000054
100
AcDbArc
 50
99.9585661566
 51
187.2014199092
  0
ARC
  5
AB
330
1F
100
AcDbEntity
  8
0
  6
Continuous
 62
     7
370
    15
100
AcDbCircle
 10
-6.1092249367
 20
-22.7449961251
 30
0.0
 40
9.62963767786723
100
AcDbArc
 50
347.4780604389
 51
7.2014199092
  0
LINE
  5
AC
330
1F
100
AcDbEntity
  8
0
  6
Continuous
 62
     7
370
    15
100
AcDbLine
 10
2.6184380049
 20
-24.912773479
 30
0.0
 11
3.2913530988
 21
-24.832830986
 31
0.0
  0
LINE
  5
AD
330
1F
100
AcDbEntity
  8
0
  6
Continuous
 62
     7
370
    15
100
AcDbLine
 10
1.9436067414
 20
-24.9744848362
 30
0.0
 11
2.6184380049
 21
-24.912773479
 31
0.0
  0
ARC
  5
AE
330
1F
100
AcDbEntity
  8
0
  6
Continuous
 62
     7
370
    15
100
AcDbCircle
 10
10.7046743162
 20
-20.9777841023
 30
0.0
 40
9.629637677867231
100
AcDbArc
 50
184.7985800908
 51
204.5219395611
  0
ARC
  5
AF
330
1F
100
AcDbEntity
  8
0
  6
Continuous
 62
     7
370
    15
100
AcDbCircle
 10
0.7774546017
 20
-21.8111482811
 30
0.0
 40
0.3324999999999995
100
AcDbArc
 50
4.7985800908
 51
92.0414338433
  0
ARC
  5
B0
330
1F
100
AcDbEntity
  8
0
  6
Continuous
 62
     7
370
    15
100
AcDbCircle
 10
0.0
 20
0.0
 30
0.0
 40
21.4925
100
AcDbArc
 50
267.9585661567
 51
272.0414338434
  0
ARC
  5
B1
330
1F
100
AcDbEntity
  8
0
  6
Continuous
 62
     7
370
    15
100
AcDbCircle
 10
-0.7774546017
 20
-21.8111482811
 30
0.0
 40
0.3324999999999996
100
AcDbArc
 50
87.9585661566
 51
175.2014199092
  0
ARC
  5
B2
330
1F
100
AcDbEntity
  8
0
  6
Continuous
 62
     7
370
    15
100
AcDbCircle
 10
-10.7046743162
 20
-20.9777841023
 30
0.0
 40
9.629637677867228
100
AcDbArc
 50
335.4780604389
 51
355.2014199092
  0
LINE
  5
B3
330
1F
100
AcDbEntity
  8
0
  6
Continuous
 62
     7
370
    15
100
AcDbLine
 10
-2.6184380049
 20
-24.912773479
 30
0.0
 11
-1.9436067414
 21
-24.9744848362
 31
0.0
  0
LINE
  5
B4
330
1F
100
AcDbEntity
  8
0
  6
Continuous
 62
     7
370
    15
100
AcDbLine
 10
-3.2913530988
 20
-24.832830986
 30
0.0
 11
-2.6184380049
 21
-24.912773479
 31
0.0
  0
ARC
  5
B5
330
1F
100
AcDbEntity
  8
0
  6
Continuous
 62
     7
370
    15
100
AcDbCircle
 10
6.1092249367
 20
-22.7449961251
 30
0.0
 40
9.629637677867228
100
AcDbArc
 50
172.7985800908
 51
192.5219395611
  0
ARC
  5
B6
330
1F
100
AcDbEntity
  8
0
  6
Continuous
 62
     7
370
    15
100
AcDbCircle
 10
-3.7743273644
 20
-21.4961642612
 30
0.0
 40
0.3325000000000021
100
AcDbArc
 50
352.7985800908
 51
80.0414338433
  0
ARC
  5
B7
330
1F
100
AcDbEntity
  8
0
  6
Continuous
 62
     7
370
    15
100
AcDbCircle
 10
0.0
 20
0.0
 30
0.0
 40
21.4925
100
AcDbArc
 50
255.9585661567
 51
260.0414338434
  0
ARC
  5
B8
330
1F
100
AcDbEntity
  8
0
  6
Continuous
 62
     7
370
    15
100
AcDbCircle
 10
-5.2952580712
 20
-21.1728804597
 30
0.0
 40
0.3325000000000017
100
AcDbArc
 50
75.9585661566
 51
163.2014199092
  0
ARC
  5
B9
330
1F
100
AcDbEntity
  8
0
  6
Continuous
 62
     7
370
    15
100
AcDbCircle
 10
-14.8322780613
 20
-18.2937422516
 30
0.0
 40
9.629637677867228
100
AcDbArc
 50
323.4780604389
 51
343.2014199092
  0
LINE
  5
BA
330
1F
100
AcDbEntity
  8
0
  6
Continuous
 62
     7
370
    15
100
AcDbLine
 10
-7.7408757091
 20
-23.8239657332
 30
0.0
 11
-7.0936216404
 21
-24.0246338582
 31
0.0
  0
LINE
  5
BB
330
1F
100
AcDbEntity
  8
0
  6
Continuous
 62
     7
370
    15
100
AcDbLine
 10
-8.3824650148
 20
-23.6058632605
 30
0.0
 11
-7.7408757091
 21
-23.8239657332
 31
0.0
  0
ARC
  5
BC
330
1F
100
AcDbEntity
  8
0
  6
Continuous
 62
     7
370
    15
100
AcDbCircle
 10
1.2467731121
 20
-23.5181426746
 30
0.0
 40
9.62963767786723
100
AcDbArc
 50
160.7985800908
 51
180.5219395611
  0
ARC
  5
BD
330
1F
100
AcDbEntity
  8
0
  6
Continuous
 62
     7
370
    15
100
AcDbCircle
 10
-8.1611531136
 20
-20.2416947131
 30
0.0
 40
0.3325000000000013
100
AcDbArc
 50
340.7985800908
 51
68.0414338433
  0
ARC
  5
BE
330
1F
100
AcDbEntity
  8
0
  6
Continuous
 62
     7
370
    15
100
AcDbCircle
 10
0.0
 20
0.0
 30
0.0
 40
21.4925
100
AcDbArc
 50
243.9585661567
 51
248.0414338434
  0
ARC
  5
BF
330
1F
100
AcDbEntity
  8
0
  6
Continuous
 62
     7
370
    15
100
AcDbCircle
 10
-9.5816333535
 20
-19.6092561634
 30
0.0
 40
0.3325000000000004
100
AcDbArc
 50
63.9585661566
 51
151.2014199092
  0
ARC
  5
C0
330
1F
100
AcDbEntity
  8
0
  6
Continuous
 62
     7
370
    15
100
AcDbCircle
 10
-18.311640082
 20
-14.8101760815
 30
0.0
 40
9.629637677867228
100
AcDbArc
 50
311.4780604389
 51
331.2014199092
  0
LINE
  5
C1
330
1F
100
AcDbEntity
  8
0
  6
Continuous
 62
     7
370
    15
100
AcDbLine
 10
-12.525
 20
-21.6939363648
 30
0.0
 11
-11.9336112348
 21
-22.0247910977
 31
0.0
  0
LINE
  5
C2
330
1F
100
AcDbEntity
  8
0
  6
Continuous
 62
     7
370
    15
100
AcDbLine
 10
-13.1072229862
 20
-21.3472060371
 30
0.0
 11
-12.525
 21
-21.6939363648
 31
0.0
  0
ARC
  5
C3
330
1F
100
AcDbEntity
  8
0
  6
Continuous
 62
     7
370
    15
100
AcDbCircle
 10
-3.6701686801
 20
-23.2634335367
 30
0.0
 40
9.62963767786723
100
AcDbArc
 50
148.7985800908
 51
168.5219395611
  0
ARC
  5
C4
330
1F
100
AcDbEntity
  8
0
  6
Continuous
 62
     7
370
    15
100
AcDbCircle
 10
-12.1912973101
 20
-18.1025659755
 30
0.0
 40
0.332499999999998
100
AcDbArc
 50
328.7985800908
 51
56.0414338433
  0
ARC
  5
C5
330
1F
100
AcDbEntity
  8
0
  6
Continuous
 62
     7
370
    15
100
AcDbCircle
 10
0.0
 20
0.0
 30
0.0
 40
21.4925
100
AcDbArc
 50
231.9585661567
 51
236.0414338434
  0
ARC
  5
C6
330
1F
100
AcDbEntity
  8
0
  6
Continuous
 62
     7
370
    15
100
AcDbCircle
 10
-13.4492452804
 20
-17.188613277
 30
0.0
 40
0.3325000000000084
100
AcDbArc
 50
51.9585661566
 51
139.2014199092
  0
ARC
  5
C7
330
1F
100
AcDbEntity
  8
0
  6
Continuous
 62
     7
370
    15
100
AcDbCircle
 10
-20.9906955621
 20
-10.6793341494
 30
0.0
 40
9.629637677867233
100
AcDbArc
 50
299.4780604389
 51
319.2014199092
  0
LINE
  5
C8
330
1F
100
AcDbEntity
  8
0
  6
Continuous
 62
     7
370
    15
100
AcDbLine
 10
-16.7617216893
 20
-18.6157778782
 30
0.0
 11
-16.2520447545
 21
-19.0623592794
 31
0.0
  0
LINE
  5
C9
330
1F
100
AcDbEntity
  8
0
  6
Continuous
 62
     7
370
    15
100
AcDbLine
 10
-17.2591324176
 20
-18.1555734746
 30
0.0
 11
-16.7617216893
 21
-18.6157778782
 31
0.0
  0
ARC
  5
CA
330
1F
100
AcDbEntity
  8
0
  6
Continuous
 62
     7
370
    15
100
AcDbCircle
 10
-8.4267064896
 20
-21.9920007229
 30
0.0
 40
9.629637677867228
100
AcDbArc
 50
136.7985800908
 51
156.5219395611
  0
ARC
  5
CB
330
1F
100
AcDbEntity
  8
0
  6
Continuous
 62
     7
370
    15
100
AcDbCircle
 10
-15.6886233138
 20
-15.1722682391
 30
0.0
 40
0.3324999999999992
100
AcDbArc
 50
316.7985800908
 51
44.0414338433
  0
ARC
  5
CC
330
1F
100
AcDbEntity
  8
0
  6
Continuous
 62
     7
370
    15
100
AcDbCircle
 10
0.0
 20
0.0
 30
0.0
 40
21.4925
100
AcDbArc
 50
219.9585661567
 51
224.0414338434
  0
ARC
  5
CD
330
1F
100
AcDbEntity
  8
0
  6
Continuous
 62
     7
370
    15
100
AcDbCircle
 10
-16.7290606519
 20
-14.0167455104
 30
0.0
 40
0.3325000000000041
100
AcDbArc
 50
39.9585661566
 51
127.2014199092
  0
ARC
  5
CE
330
1F
100
AcDbEntity
  8
0
  6
Continuous
 62
     7
370
    15
100
AcDbCircle
 10
-22.7523569216
 20
-6.08175407
 30
0.0
 40
9.62963767786723
100
AcDbArc
 50
287.4780604389
 51
307.2014199092
  0
LINE
  5
CF
330
1F
100
AcDbEntity
  8
0
  6
Continuous
 62
     7
370
    15
100
AcDbLine
 10
-20.2658757091
 20
-14.7240205699
 30
0.0
 11
-19.8601859324
 21
-15.2668108894
 31
0.0
  0
LINE
  5
D0
330
1F
100
AcDbEntity
  8
0
  6
Continuous
 62
     7
370
    15
100
AcDbLine
 10
-20.6567349439
 20
-14.1704552311
 30
0.0
 11
-20.2658757091
 21
-14.7240205699
 31
0.0
  0
ARC
  5
D1
330
1F
100
AcDbEntity
  8
0
  6
Continuous
 62
     7
370
    15
100
AcDbCircle
 10
-12.8149567896
 20
-19.7594119482
 30
0.0
 40
9.629637677867228
100
AcDbArc
 50
124.7985800908
 51
144.5219395611
  0
ARC
  5
D2
330
1F
100
AcDbEntity
  8
0
  6
Continuous
 62
     7
370
    15
100
AcDbCircle
 10
-18.5002811963
 20
-11.578869576
 30
0.0
 40
0.3325
100
AcDbArc
 50
304.7985800908
 51
32.0414338433
  0
ARC
  5
D3
330
1F
100
AcDbEntity
  8
0
  6
Continuous
 62
     7
370
    15
100
AcDbCircle
 10
0.0
 20
0.0
 30
0.0
 40
21.4925
100
AcDbArc
 50
207.9585661567
 51
212.0414338434
  0
ARC
  5
D4
330
1F
100
AcDbEntity
  8
0
  6
Continuous
 62
     7
370
    15
100
AcDbCircle
 10
-19.2777357981
 20
-10.2322787052
 30
0.0
 40
0.3325000000000065
100
AcDbArc
 50
27.9585661566
 51
115.2014199092
  0
ARC
  5
D5
330
1F
100
AcDbEntity
  8
0
  6
Continuous
 62
     7
370
    15
100
AcDbCircle
 10
-23.5196311058
 20
-1.2183721541
 30
0.0
 40
9.629637677867228
100
AcDbArc
 50
275.4780604389
 51
295.2014199092
  0
LINE
  5
D6
330
1F
100
AcDbEntity
  8
0
  6
Continuous
 62
     7
370
    15
100
AcDbLine
 10
-22.8843137139
 20
-10.188752909
 30
0.0
 11
-22.6003416853
 21
-10.8040296051
 31
0.0
  0
LINE
  5
D7
330
1F
100
AcDbEntity
  8
0
  6
Continuous
 62
     7
370
    15
100
AcDbLine
 10
-23.1515390312
 20
-9.5660200966
 30
0.0
 11
-22.8843137139
 21
-10.188752909
 31
0.0
  0
ARC
  5
D8
330
1F
100
AcDbEntity
  8
0
  6
Continuous
 62
     7
370
    15
100
AcDbCircle
 10
-16.643131985
 20
-16.6632420551
 30
0.0
 40
9.629637677867228
100
AcDbArc
 50
112.7985800908
 51
132.5219395611
  0
ARC
  5
D9
330
1F
100
AcDbEntity
  8
0
  6
Continuous
 62
     7
370
    15
100
AcDbCircle
 10
-20.5033880164
 20
-7.4794187508
 30
0.0
 40
0.3324999999999999
100
AcDbArc
 50
292.7985800908
 51
20.0414338433
  0
ARC
  5
DA
330
1F
100
AcDbEntity
  8
0
  6
Continuous
 62
     7
370
    15
100
AcDbCircle
 10
0.0
 20
0.0
 30
0.0
 40
21.4925
100
AcDbArc
 50
195.9585661567
 51
200.0414338434
  0
ARC
  5
DB
330
1F
100
AcDbEntity
  8
0
  6
Continuous
 62
     7
370
    15
100
AcDbCircle
 10
-20.983881385
 20
-6.0006122206
 30
0.0
 40
0.3325000000000047
100
AcDbArc
 50
15.9585661566
 51
103.2014199092
  0
ARC
  5
DC
330
1F
100
AcDbEntity
  8
0
  6
Continuous
 62
     7
370
    15
100
AcDbCircle
 10
-23.2589845509
 20
3.6982584713
 30
0.0
 40
9.629637677867228
100
AcDbArc
 50
263.4780604389
 51
283.2014199092
  0
LINE
  5
DD
330
1F
100
AcDbEntity
  8
0
  6
Continuous
 62
     7
370
    15
100
AcDbLine
 10
-24.5025973984
 20
-5.208187855
 30
0.0
 11
-24.3527540581
 21
-5.8690603837
 31
0.0
  0
LINE
  5
DE
330
1F
100
AcDbEntity
  8
0
  6
Continuous
 62
     7
370
    15
100
AcDbLine
 10
-24.6345097693
 20
-4.5435039811
 30
0.0
 11
-24.5025973984
 21
-5.208187855
 31
0.0
  0
ARC
  5
DF
330
1F
100
AcDbEntity
  8
0
  6
Continuous
 62
     7
370
    15
100
AcDbCircle
 10
-19.74392245
 20
-12.8388085252
 30
0.0
 40
9.62963767786723
100
AcDbArc
 50
100.7985800908
 51
120.5219395611
  0
ARC
  5
E0
330
1F
100
AcDbEntity
  8
0
  6
Continuous
 62
     7
370
    15
100
AcDbCircle
 10
-21.6103983939
 20
-3.053081436
 30
0.0
 40
0.332499999999998
100
AcDbArc
 50
280.7985800908
 51
8.0414338433
  0
ARC
  5
E1
330
1F
100
AcDbEntity
  8
0
  6
Continuous
 62
     7
370
    15
100
AcDbCircle
 10
0.0
 20
0.0
 30
0.0
 40
21.4925
100
AcDbArc
 50
183.9585661567
 51
188.0414338434
  0
ARC
  5
E2
330
1F
100
AcDbEntity
  8
0
  6
Continuous
 62
     7
370
    15
100
AcDbCircle
 10
-21.7729306635
 20
-1.5066901878
 30
0.0
 40
0.3324999999999991
100
AcDbArc
 50
3.9585661567
 51
91.2014199092
  0
ARC
  5
E3
330
1F
100
AcDbEntity
  8
0
  6
Continuous
 62
     7
370
    15
100
AcDbCircle
 10
-21.9818087621
 20
8.4532574552
 30
0.0
 40
9.629637677867228
100
AcDbArc
 50
251.4780604389
 51
271.2014199092
  0
LINE
  5
E4
330
1F
100
AcDbEntity
  8
0
  6
Continuous
 62
     7
370
    15
100
AcDbLine
 10
-25.05
 20
0.0
 30
0.0
 11
-25.040834221
 21
-0.6775850606
 31
0.0
  0
LINE
  5
E5
330
1F
100
AcDbEntity
  8
0
  6
Continuous
 62
     7
370
    15
100
AcDbLine
 10
-25.040834221
 20
0.6775850606
 30
0.0
 11
-25.05
 21
0.0
 31
0.0
  0
ARC
  5
E6
330
1F
100
AcDbEntity
  8
0
  6
Continuous
 62
     7
370
    15
100
AcDbCircle
 10
-21.9818087621
 20
-8.4532574552
 30
0.0
 40
9.629637677867228
100
AcDbArc
 50
88.7985800908
 51
108.5219395611
  0
ARC
  5
E7
330
1F
100
AcDbEntity
  8
0
  6
Continuous
 62
     7
370
    15
100
AcDbCircle
 10
-21.7729306635
 20
1.5066901878
 30
0.0
 40
0.3324999999999991
100
AcDbArc
 50
268.7985800908
 51
356.0414338434
  0
ARC
  5
E8
330
1F
100
AcDbEntity
  8
0
  6
Continuous
 62
     7
370
    15
100
AcDbCircle
 10
0.0
 20
0.0
 30
0.0
 40
21.4925
100
AcDbArc
 50
171.9585661566
 51
176.0414338433
  0
ARC
  5
E9
330
1F
100
AcDbEntity
  8
0
  6
Continuous
 62
     7
370
    15
100
AcDbCircle
 10
-21.6103983939
 20
3.053081436
 30
0.0
 40
0.3324999999999986
100
AcDbArc
 50
351.9585661567
 51
79.2014199092
  0
ARC
  5
EA
330
1F
100
AcDbEntity
  8
0
  6
Continuous
 62
     7
370
    15
100
AcDbCircle
 10
-19.74392245
 20
12.8388085252
 30
0.0
 40
9.62963767786723
100
AcDbArc
 50
239.4780604389
 51
259.2014199092
  0
LINE
  5
EB
330
1F
100
AcDbEntity
  8
0
  6
Continuous
 62
     7
370
    15
100
AcDbLine
 10
-24.5025973984
 20
5.208187855
 30
0.0
 11
-24.6345097693
 21
4.5435039811
 31
0.0
  0
LINE
  5
EC
330
1F
100
AcDbEntity
  8
0
  6
Continuous
 62
     7
370
    15
100
AcDbLine
 10
-24.3527540581
 20
5.8690603837
 30
0.0
 11
-24.5025973984
 21
5.208187855
 31
0.0
  0
ARC
  5
ED
330
1F
100
AcDbEntity
  8
0
  6
Continuous
 62
     7
370
    15
100
AcDbCircle
 10
-23.2589845509
 20
-3.6982584713
 30
0.0
 40
9.629637677867228
100
AcDbArc
 50
76.7985800908
 51
96.5219395611
  0
ARC
  5
EE
330
1F
100
AcDbEntity
  8
0
  6
Continuous
 62
     7
370
    15
100
AcDbCircle
 10
-20.983881385
 20
6.0006122206
 30
0.0
 40
0.3324999999999977
100
AcDbArc
 50
256.7985800908
 51
344.0414338434
  0
ARC
  5
EF
330
1F
100
AcDbEntity
  8
0
  6
Continuous
 62
     7
370
    15
100
AcDbCircle
 10
0.0
 20
0.0
 30
0.0
 40
21.4925
100
AcDbArc
 50
159.9585661566
 51
164.0414338433
  0
ARC
  5
F0
330
1F
100
AcDbEntity
  8
0
  6
Continuous
 62
     7
370
    15
100
AcDbCircle
 10
-20.5033880164
 20
7.4794187508
 30
0.0
 40
0.3325000000000017
100
AcDbArc
 50
339.9585661567
 51
67.2014199092
  0
ARC
  5
F1
330
1F
100
AcDbEntity
  8
0
  6
Continuous
 62
     7
370
    15
100
AcDbCircle
 10
-16.643131985
 20
16.6632420551
 30
0.0
 40
9.629637677867233
100
AcDbArc
 50
227.4780604389
 51
247.2014199092
  0
LINE
  5
F2
330
1F
100
AcDbEntity
  8
0
  6
Continuous
 62
     7
370
    15
100
AcDbLine
 10
-22.8843137139
 20
10.188752909
 30
0.0
 11
-23.1515390312
 21
9.5660200966
 31
0.0
  0
LINE
  5
F3
330
1F
100
AcDbEntity
  8
0
  6
Continuous
 62
     7
370
    15
100
AcDbLine
 10
-22.6003416853
 20
10.8040296051
 30
0.0
 11
-22.8843137139
 21
10.188752909
 31
0.0
  0
ARC
  5
F4
330
1F
100
AcDbEntity
  8
0
  6
Continuous
 62
     7
370
    15
100
AcDbCircle
 10
-23.5196311058
 20
1.2183721541
 30
0.0
 40
9.62963767786723
100
AcDbArc
 50
64.7985800908
 51
84.5219395611
  0
ARC
  5
F5
330
1F
100
AcDbEntity
  8
0
  6
Continuous
 62
     7
370
    15
100
AcDbCircle
 10
-19.2777357981
 20
10.2322787052
 30
0.0
 40
0.3325000000000041
100
AcDbArc
 50
244.7985800908
 51
332.0414338434
  0
ARC
  5
F6
330
1F
100
AcDbEntity
  8
0
  6
Continuous
 62
     7
370
    15
100
AcDbCircle
 10
0.0
 20
0.0
 30
0.0
 40
21.4925
100
AcDbArc
 50
147.9585661566
 51
152.0414338433
  0
ARC
  5
F7
330
1F
100
AcDbEntity
  8
0
  6
Continuous
 62
     7
370
    15
100
AcDbCircle
 10
-18.5002811963
 20
11.578869576
 30
0.0
 40
0.332500000000004
100
AcDbArc
 50
327.9585661567
 51
55.2014199092
  0
ARC
  5
F8
330
1F
100
AcDbEntity
  8
0
  6
Continuous
 62
     7
370
    15
100
AcDbCircle
 10
-12.8149567896
 20
19.7594119482
 30
0.0
 40
9.629637677867228
100
AcDbArc
 50
215.4780604389
 51
235.2014199092
  0
LINE
  5
F9
330
1F
100
AcDbEntity
  8
0
  6
Continuous
 62
     7
370
    15
100
AcDbLine
 10
-20.2658757091
 20
14.7240205699
 30
0.0
 11
-20.6567349439
 21
14.1704552311
 31
0.0
  0
LINE
  5
FA
330
1F
100
AcDbEntity
  8
0
  6
Continuous
 62
     7
370
    15
100
AcDbLine
 10
-19.8601859324
 20
15.2668108894
 30
0.0
 11
-20.2658757091
 21
14.7240205699
 31
0.0
  0
ARC
  5
FB
330
1F
100
AcDbEntity
  8
0
  6
Continuous
 62
     7
370
    15
100
AcDbCircle
 10
-22.7523569216
 20
6.08175407
 30
0.0
 40
9.629637677867228
100
AcDbArc
 50
52.7985800908
 51
72.5219395611
  0
ARC
  5
FC
330
1F
100
AcDbEntity
  8
0
  6
Continuous
 62
     7
370
    15
100
AcDbCircle
 10
-16.7290606519
 20
14.0167455104
 30
0.0
 40
0.3325000000000048
100
AcDbArc
 50
232.7985800908
 51
320.0414338434
  0
ARC
  5
FD
330
1F
100
AcDbEntity
  8
0
  6
Continuous
 62
     7
370
    15
100
AcDbCircle
 10
0.0
 20
0.0
 30
0.0
 40
21.4925
100
AcDbArc
 50
135.9585661566
 51
140.0414338433
  0
ARC
  5
FE
330
1F
100
AcDbEntity
  8
0
  6
Continuous
 62
     7
370
    15
100
AcDbCircle
 10
-15.6886233138
 20
15.1722682391
 30
0.0
 40
0.3324999999999979
100
AcDbArc
 50
315.9585661567
 51
43.2014199092
  0
ARC
  5
FF
330
1F
100
AcDbEntity
  8
0
  6
Continuous
 62
     7
370
    15
100
AcDbCircle
 10
-8.4267064896
 20
21.9920007229
 30
0.0
 40
9.62963767786723
100
AcDbArc
 50
203.4780604389
 51
223.2014199092
  0
LINE
  5
100
330
1F
100
AcDbEntity
  8
0
  6
Continuous
 62
     7
370
    15
100
AcDbLine
 10
-16.7617216893
 20
18.6157778782
 30
0.0
 11
-17.2591324176
 21
18.1555734746
 31
0.0
  0
LINE
  5
101
330
1F
100
AcDbEntity
  8
0
  6
Continuous
 62
     7
370
    15
100
AcDbLine
 10
-16.2520447545
 20
19.0623592794
 30
0.0
 11
-16.7617216893
 21
18.6157778782
 31
0.0
  0
ARC
  5
102
330
1F
100
AcDbEntity
  8
0
  6
Continuous
 62
     7
370
    15
100
AcDbCircle
 10
-20.9906955621
 20
10.6793341494
 30
0.0
 40
9.629637677867226
100
AcDbArc
 50
40.7985800908
 51
60.5219395611
  0
ARC
  5
103
330
1F
100
AcDbEntity
  8
0
  6
Continuous
 62
     7
370
    15
100
AcDbCircle
 10
-13.4492452804
 20
17.188613277
 30
0.0
 40
0.3325000000000002
100
AcDbArc
 50
220.7985800908
 51
308.0414338434
  0
ARC
  5
104
330
1F
100
AcDbEntity
  8
0
  6
Continuous
 62
     7
370
    15
100
AcDbCircle
 10
0.0
 20
0.0
 30
0.0
 40
21.4925
100
AcDbArc
 50
123.9585661566
 51
128.0414338433
  0
ARC
  5
105
330
1F
100
AcDbEntity
  8
0
  6
Continuous
 62
     7
370
    15
100
AcDbCircle
 10
-12.1912973101
 20
18.1025659755
 30
0.0
 40
0.3325
100
AcDbArc
 50
303.9585661567
 51
31.2014199092
  0
ARC
  5
106
330
1F
100
AcDbEntity
  8
0
  6
Continuous
 62
     7
370
    15
100
AcDbCircle
 10
-3.6701686801
 20
23.2634335367
 30
0.0
 40
9.62963767786723
100
AcDbArc
 50
191.4780604389
 51
211.2014199092
  0
LINE
  5
107
330
1F
100
AcDbEntity
  8
0
  6
Continuous
 62
     7
370
    15
100
AcDbLine
 10
-12.525
 20
21.6939363648
 30
0.0
 11
-13.1072229862
 21
21.3472060371
 31
0.0
  0
LINE
  5
108
330
1F
100
AcDbEntity
  8
0
  6
Continuous
 62
     7
370
    15
100
AcDbLine
 10
-11.9336112348
 20
22.0247910977
 30
0.0
 11
-12.525
 21
21.6939363648
 31
0.0
  0
ARC
  5
109
330
1F
100
AcDbEntity
  8
0
  6
Continuous
 62
     7
370
    15
100
AcDbCircle
 10
-18.311640082
 20
14.8101760815
 30
0.0
 40
9.62963767786723
100
AcDbArc
 50
28.7985800908
 51
48.5219395611
  0
ARC
  5
10A
330
1F
100
AcDbEntity
  8
0
  6
Continuous
 62
     7
370
    15
100
AcDbCircle
 10
-9.5816333534
 20
19.6092561634
 30
0.0
 40
0.3325000000000012
100
AcDbArc
 50
208.7985800908
 51
296.0414338434
  0
ARC
  5
10B
330
1F
100
AcDbEntity
  8
0
  6
Continuous
 62
     7
370
    15
100
AcDbCircle
 10
0.0
 20
0.0
 30
0.0
 40
21.4925
100
AcDbArc
 50
111.9585661566
 51
116.0414338433
  0
ARC
  5
10C
330
1F
100
AcDbEntity
  8
0
  6
Continuous
 62
     7
370
    15
100
AcDbCircle
 10
-8.1611531136
 20
20.2416947131
 30
0.0
 40
0.3324999999999993
100
AcDbArc
 50
291.9585661567
 51
19.2014199092
  0
ARC
  5
10D
330
1F
100
AcDbEntity
  8
0
  6
Continuous
 62
     7
370
    15
100
AcDbCircle
 10
1.2467731121
 20
23.5181426746
 30
0.0
 40
9.629637677867228
100
AcDbArc
 50
179.4780604389
 51
199.2014199092
  0
LINE
  5
10E
330
1F
100
AcDbEntity
  8
0
  6
Continuous
 62
     7
370
    15
100
AcDbLine
 10
-7.7408757091
 20
23.8239657332
 30
0.0
 11
-8.3824650148
 21
23.6058632605
 31
0.0
  0
LINE
  5
10F
330
1F
100
AcDbEntity
  8
0
  6
Continuous
 62
     7
370
    15
100
AcDbLine
 10
-7.0936216404
 20
24.0246338582
 30
0.0
 11
-7.7408757091
 21
23.8239657332
 31
0.0
  0
ARC
  5
110
330
1F
100
AcDbEntity
  8
0
  6
Continuous
 62
     7
370
    15
100
AcDbCircle
 10
-14.8322780613
 20
18.2937422516
 30
0.0
 40
9.629637677867228
100
AcDbArc
 50
16.7985800908
 51
36.5219395611
  0
ARC
  5
111
330
1F
100
AcDbEntity
  8
0
  6
Continuous
 62
     7
370
    15
100
AcDbCircle
 10
-5.2952580712
 20
21.1728804597
 30
0.0
 40
0.3325000000000004
100
AcDbArc
 50
196.7985800908
 51
284.0414338434
  0
ARC
  5
112
330
1F
100
AcDbEntity
  8
0
  6
Continuous
 62
     7
370
    15
100
AcDbCircle
 10
0.0
 20
0.0
 30
0.0
 40
21.4925
100
AcDbArc
 50
99.9585661566
 51
104.0414338433
  0
ARC
  5
113
330
1F
100
AcDbEntity
  8
0
  6
Continuous
 62
     7
370
    15
100
AcDbCircle
 10
-3.7743273644
 20
21.4961642612
 30
0.0
 40
0.3324999999999978
100
AcDbArc
 50
279.9585661567
 51
7.2014199092
  0
ARC
  5
114
330
1F
100
AcDbEntity
  8
0
  6
Continuous
 62
     7
370
    15
100
AcDbCircle
 10
6.1092249367
 20
22.7449961251
 30
0.0
 40
9.629637677867228
100
AcDbArc
 50
167.4780604389
 51
187.2014199092
  0
LINE
  5
115
330
1F
100
AcDbEntity
  8
0
  6
Continuous
 62
     7
370
    15
100
AcDbLine
 10
-2.6184380049
 20
24.912773479
 30
0.0
 11
-3.2913530988
 21
24.832830986
 31
0.0
  0
LINE
  5
116
330
1F
100
AcDbEntity
  8
0
  6
Continuous
 62
     7
370
    15
100
AcDbLine
 10
-1.9436067413
 20
24.9744848362
 30
0.0
 11
-2.6184380049
 21
24.912773479
 31
0.0
  0
ARC
  5
117
330
1F
100
AcDbEntity
  8
0
  6
Continuous
 62
     7
370
    15
100
AcDbCircle
 10
-10.7046743162
 20
20.9777841023
 30
0.0
 40
9.629637677867228
100
AcDbArc
 50
4.7985800908
 51
24.5219395611
  0
ARC
  5
118
330
1F
100
AcDbEntity
  8
0
  6
Continuous
 62
     7
370
    15
100
AcDbCircle
 10
-0.7774546017
 20
21.8111482811
 30
0.0
 40
0.332500000000003
100
AcDbArc
 50
184.7985800908
 51
272.0414338434
  0
ARC
  5
119
330
1F
100
AcDbEntity
  8
0
  6
Continuous
 62
     7
370
    15
100
AcDbCircle
 10
0.0
 20
0.0
 30
0.0
 40
21.4925
100
AcDbArc
 50
87.9585661566
 51
92.0414338433
  0
ARC
  5
11A
330
1F
100
AcDbEntity
  8
0
  6
Continuous
 62
     7
370
    15
100
AcDbCircle
 10
0.7774546017
 20
21.8111482811
 30
0.0
 40
0.3324999999999997
100
AcDbArc
 50
267.9585661567
 51
355.2014199092
  0
ARC
  5
11B
330
1F
100
AcDbEntity
  8
0
  6
Continuous
 62
     7
370
    15
100
AcDbCircle
 10
10.7046743162
 20
20.9777841023
 30
0.0
 40
9.62963767786723
100
AcDbArc
 50
155.4780604389
 51
175.2014199092
  0
LINE
  5
11C
330
1F
100
AcDbEntity
  8
0
  6
Continuous
 62
     7
370
    15
100
AcDbLine
 10
2.6184380049
 20
24.912773479
 30
0.0
 11
1.9436067414
 21
24.9744848362
 31
0.0
  0
LINE
  5
11D
330
1F
100
AcDbEntity
  8
0
  6
Continuous
 62
     7
370
    15
100
AcDbLine
 10
3.2913530988
 20
24.832830986
 30
0.0
 11
2.6184380049
 21
24.912773479
 31
0.0
  0
ARC
  5
11E
330
1F
100
AcDbEntity
  8
0
  6
Continuous
 62
     7
370
    15
100
AcDbCircle
 10
-6.1092249367
 20
22.7449961251
 30
0.0
 40
9.629637677867228
100
AcDbArc
 50
352.7985800908
 51
12.5219395611
  0
ARC
  5
11F
330
1F
100
AcDbEntity
  8
0
  6
Continuous
 62
     7
370
    15
100
AcDbCircle
 10
3.7743273644
 20
21.4961642612
 30
0.0
 40
0.3325000000000026
100
AcDbArc
 50
172.7985800908
 51
260.0414338434
  0
ARC
  5
120
330
1F
100
AcDbEntity
  8
0
  6
Continuous
 62
     7
370
    15
100
AcDbCircle
 10
0.0
 20
0.0
 30
0.0
 40
21.4925
100
AcDbArc
 50
75.9585661566
 51
80.0414338433
  0
ARC
  5
121
330
1F
100
AcDbEntity
  8
0
  6
Continuous
 62
     7
370
    15
100
AcDbCircle
 10
5.2952580712
 20
21.1728804597
 30
0.0
 40
0.3325000000000038
100
AcDbArc
 50
255.9585661567
 51
343.2014199092
  0
ARC
  5
122
330
1F
100
AcDbEntity
  8
0
  6
Continuous
 62
     7
370
    15
100
AcDbCircle
 10
14.8322780613
 20
18.2937422516
 30
0.0
 40
9.629637677867228
100
AcDbArc
 50
143.4780604389
 51
163.2014199092
  0
LINE
  5
123
330
1F
100
AcDbEntity
  8
0
  6
Continuous
 62
     7
370
    15
100
AcDbLine
 10
7.7408757091
 20
23.8239657332
 30
0.0
 11
7.0936216404
 21
24.0246338582
 31
0.0
  0
LINE
  5
124
330
1F
100
AcDbEntity
  8
0
  6
Continuous
 62
     7
370
    15
100
AcDbLine
 10
8.3824650148
 20
23.6058632605
 30
0.0
 11
7.7408757091
 21
23.8239657332
 31
0.0
  0
ARC
  5
125
330
1F
100
AcDbEntity
  8
0
  6
Continuous
 62
     7
370
    15
100
AcDbCircle
 10
-1.2467731121
 20
23.5181426746
 30
0.0
 40
9.62963767786723
100
AcDbArc
 50
340.7985800908
 51
0.5219395611
  0
ARC
  5
126
330
1F
100
AcDbEntity
  8
0
  6
Continuous
 62
     7
370
    15
100
AcDbCircle
 10
8.1611531136
 20
20.2416947131
 30
0.0
 40
0.3325000000000026
100
AcDbArc
 50
160.7985800908
 51
248.0414338433
  0
ARC
  5
127
330
1F
100
AcDbEntity
  8
0
  6
Continuous
 62
     7
370
    15
100
AcDbCircle
 10
0.0
 20
0.0
 30
0.0
 40
21.4925
100
AcDbArc
 50
63.9585661566
 51
68.0414338433
  0
ARC
  5
128
330
1F
100
AcDbEntity
  8
0
  6
Continuous
 62
     7
370
    15
100
AcDbCircle
 10
9.5816333535
 20
19.6092561634
 30
0.0
 40
0.3325000000000004
100
AcDbArc
 50
243.9585661567
 51
331.2014199092
  0
ARC
  5
129
330
1F
100
AcDbEntity
  8
0
  6
Continuous
 62
     7
370
    15
100
AcDbCircle
 10
18.311640082
 20
14.8101760815
 30
0.0
 40
9.629637677867228
100
AcDbArc
 50
131.4780604389
 51
151.2014199092
  0
LINE
  5
12A
330
1F
100
AcDbEntity
  8
0
  6
Continuous
 62
     7
370
    15
100
AcDbLine
 10
12.525
 20
21.6939363648
 30
0.0
 11
11.9336112348
 21
22.0247910977
 31
0.0
  0
LINE
  5
12B
330
1F
100
AcDbEntity
  8
0
  6
Continuous
 62
     7
370
    15
100
AcDbLine
 10
13.1072229862
 20
21.3472060371
 30
0.0
 11
12.525
 21
21.6939363648
 31
0.0
  0
ARC
  5
12C
330
1F
100
AcDbEntity
  8
0
  6
Continuous
 62
     7
370
    15
100
AcDbCircle
 10
3.6701686801
 20
23.2634335367
 30
0.0
 40
9.629637677867228
100
AcDbArc
 50
328.7985800908
 51
348.5219395611
  0
ARC
  5
12D
330
1F
100
AcDbEntity
  8
0
  6
Continuous
 62
     7
370
    15
100
AcDbCircle
 10
12.1912973101
 20
18.1025659755
 30
0.0
 40
0.332500000000004
100
AcDbArc
 50
148.7985800908
 51
236.0414338434
  0
ARC
  5
12E
330
1F
100
AcDbEntity
  8
0
  6
Continuous
 62
     7
370
    15
100
AcDbCircle
 10
0.0
 20
0.0
 30
0.0
 40
21.4925
100
AcDbArc
 50
51.9585661566
 51
56.0414338433
  0
ARC
  5
12F
330
1F
100
AcDbEntity
  8
0
  6
Continuous
 62
     7
370
    15
100
AcDbCircle
 10
13.4492452804
 20
17.188613277
 30
0.0
 40
0.3325000000000046
100
AcDbArc
 50
231.9585661567
 51
319.2014199092
  0
ARC
  5
130
330
1F
100
AcDbEntity
  8
0
  6
Continuous
 62
     7
370
    15
100
AcDbCircle
 10
20.9906955621
 20
10.6793341494
 30
0.0
 40
9.629637677867228
100
AcDbArc
 50
119.4780604389
 51
139.2014199092
  0
LINE
  5
131
330
1F
100
AcDbEntity
  8
0
  6
Continuous
 62
     7
370
    15
100
AcDbLine
 10
16.7617216893
 20
18.6157778782
 30
0.0
 11
16.2520447545
 21
19.0623592794
 31
0.0
  0
LINE
  5
132
330
1F
100
AcDbEntity
  8
0
  6
Continuous
 62
     7
370
    15
100
AcDbLine
 10
17.2591324176
 20
18.1555734746
 30
0.0
 11
16.7617216893
 21
18.6157778782
 31
0.0
  0
ARC
  5
133
330
1F
100
AcDbEntity
  8
0
  6
Continuous
 62
     7
370
    15
100
AcDbCircle
 10
8.4267064896
 20
21.9920007229
 30
0.0
 40
9.62963767786723
100
AcDbArc
 50
316.7985800908
 51
336.5219395611
  0
ARC
  5
134
330
1F
100
AcDbEntity
  8
0
  6
Continuous
 62
     7
370
    15
100
AcDbCircle
 10
15.6886233138
 20
15.1722682391
 30
0.0
 40
0.3325000000000005
100
AcDbArc
 50
136.7985800908
 51
224.0414338434
  0
ARC
  5
135
330
1F
100
AcDbEntity
  8
0
  6
Continuous
 62
     7
370
    15
100
AcDbCircle
 10
0.0
 20
0.0
 30
0.0
 40
21.4925
100
AcDbArc
 50
39.9585661566
 51
44.0414338433
  0
ARC
  5
136
330
1F
100
AcDbEntity
  8
0
  6
Continuous
 62
     7
370
    15
100
AcDbCircle
 10
16.7290606519
 20
14.0167455104
 30
0.0
 40
0.3325000000000041
100
AcDbArc
 50
219.9585661567
 51
307.2014199092
  0
ARC
  5
137
330
1F
100
AcDbEntity
  8
0
  6
Continuous
 62
     7
370
    15
100
AcDbCircle
 10
22.7523569216
 20
6.08175407
 30
0.0
 40
9.629637677867231
100
AcDbArc
 50
107.4780604389
 51
127.2014199092
  0
LINE
  5
138
330
1F
100
AcDbEntity
  8
0
  6
Continuous
 62
     7
370
    15
100
AcDbLine
 10
20.2658757091
 20
14.7240205699
 30
0.0
 11
19.8601859324
 21
15.2668108894
 31
0.0
  0
LINE
  5
139
330
1F
100
AcDbEntity
  8
0
  6
Continuous
 62
     7
370
    15
100
AcDbLine
 10
20.6567349439
 20
14.1704552311
 30
0.0
 11
20.2658757091
 21
14.7240205699
 31
0.0
  0
ARC
  5
13A
330
1F
100
AcDbEntity
  8
0
  6
Continuous
 62
     7
370
    15
100
AcDbCircle
 10
12.8149567896
 20
19.7594119482
 30
0.0
 40
9.629637677867228
100
AcDbArc
 50
304.7985800908
 51
324.5219395611
  0
ARC
  5
13B
330
1F
100
AcDbEntity
  8
0
  6
Continuous
 62
     7
370
    15
100
AcDbCircle
 10
18.5002811963
 20
11.578869576
 30
0.0
 40
0.3325000000000015
100
AcDbArc
 50
124.7985800908
 51
212.0414338434
  0
ARC
  5
13C
330
1F
100
AcDbEntity
  8
0
  6
Continuous
 62
     7
370
    15
100
AcDbCircle
 10
0.0
 20
0.0
 30
0.0
 40
21.4925
100
AcDbArc
 50
27.9585661566
 51
32.0414338433
  0
ARC
  5
13D
330
1F
100
AcDbEntity
  8
0
  6
Continuous
 62
     7
370
    15
100
AcDbCircle
 10
19.2777357981
 20
10.2322787052
 30
0.0
 40
0.3325000000000009
100
AcDbArc
 50
207.9585661567
 51
295.2014199092
  0
ARC
  5
13E
330
1F
100
AcDbEntity
  8
0
  6
Continuous
 62
     7
370
    15
100
AcDbCircle
 10
23.5196311058
 20
1.2183721541
 30
0.0
 40
9.62963767786723
100
AcDbArc
 50
95.4780604389
 51
115.2014199092
  0
LINE
  5
13F
330
1F
100
AcDbEntity
  8
0
  6
Continuous
 62
     7
370
    15
100
AcDbLine
 10
22.8843137139
 20
10.188752909
 30
0.0
 11
22.6003416853
 21
10.8040296051
 31
0.0
  0
LINE
  5
140
330
1F
100
AcDbEntity
  8
0
  6
Continuous
 62
     7
370
    15
100
AcDbLine
 10
23.1515390312
 20
9.5660200966
 30
0.0
 11
22.8843137139
 21
10.188752909
 31
0.0
  0
ARC
  5
141
330
1F
100
AcDbEntity
  8
0
  6
Continuous
 62
     7
370
    15
100
AcDbCircle
 10
16.643131985
 20
16.6632420551
 30
0.0
 40
9.629637677867228
100
AcDbArc
 50
292.7985800908
 51
312.5219395611
  0
ARC
  5
142
330
1F
100
AcDbEntity
  8
0
  6
Continuous
 62
     7
370
    15
100
AcDbCircle
 10
20.5033880164
 20
7.4794187508
 30
0.0
 40
0.3325000000000033
100
AcDbArc
 50
112.7985800908
 51
200.0414338433
  0
ARC
  5
143
330
1F
100
AcDbEntity
  8
0
  6
Continuous
 62
     7
370
    15
100
AcDbCircle
 10
0.0
 20
0.0
 30
0.0
 40
21.4925
100
AcDbArc
 50
15.9585661566
 51
20.0414338433
  0
ARC
  5
144
330
1F
100
AcDbEntity
  8
0
  6
Continuous
 62
     7
370
    15
100
AcDbCircle
 10
20.983881385
 20
6.0006122206
 30
0.0
 40
0.3325000000000021
100
AcDbArc
 50
195.9585661567
 51
283.2014199092
  0
ARC
  5
145
330
1F
100
AcDbEntity
  8
0
  6
Continuous
 62
     7
370
    15
100
AcDbCircle
 10
23.2589845509
 20
-3.6982584713
 30
0.0
 40
9.629637677867228
100
AcDbArc
 50
83.4780604389
 51
103.2014199092
  0
LINE
  5
146
330
1F
100
AcDbEntity
  8
0
  6
Continuous
 62
     7
370
    15
100
AcDbLine
 10
24.5025973984
 20
5.208187855
 30
0.0
 11
24.3527540581
 21
5.8690603837
 31
0.0
  0
LINE
  5
147
330
1F
100
AcDbEntity
  8
0
  6
Continuous
 62
     7
370
    15
100
AcDbLine
 10
24.6345097693
 20
4.5435039811
 30
0.0
 11
24.5025973984
 21
5.208187855
 31
0.0
  0
ARC
  5
148
330
1F
100
AcDbEntity
  8
0
  6
Continuous
 62
     7
370
    15
100
AcDbCircle
 10
19.74392245
 20
12.8388085252
 30
0.0
 40
9.629637677867228
100
AcDbArc
 50
280.7985800908
 51
300.5219395611
  0
ARC
  5
149
330
1F
100
AcDbEntity
  8
0
  6
Continuous
 62
     7
370
    15
100
AcDbCircle
 10
21.6103983939
 20
3.053081436
 30
0.0
 40
0.3325000000000012
100
AcDbArc
 50
100.7985800908
 51
188.0414338434
  0
ARC
  5
14A
330
1F
100
AcDbEntity
  8
0
  6
Continuous
 62
     7
370
    15
100
AcDbCircle
 10
0.0
 20
0.0
 30
0.0
 40
21.4925
100
AcDbArc
 50
3.9585661567
 51
8.0414338433
  0
ARC
  5
14B
330
1F
100
AcDbEntity
  8
0
  6
Continuous
 62
     7
370
    15
100
AcDbCircle
 10
21.7729306635
 20
1.5066901878
 30
0.0
 40
0.3324999999999991
100
AcDbArc
 50
183.9585661567
 51
271.2014199092
  0
ARC
  5
14C
330
1F
100
AcDbEntity
  8
0
  6
Continuous
 62
     7
370
    15
100
AcDbCircle
 10
21.9818087621
 20
-8.4532574552
 30
0.0
 40
9.629637677867228
100
AcDbArc
 50
71.4780604389
 51
91.2014199092
  0
LINE
  5
14D
330
1F
100
AcDbEntity
  8
0
  6
Continuous
 62
     7
370
    15
100
AcDbLine
 10
25.05
 20
0.0
 30
0.0
 11
25.040834221
 21
0.6775850606
 31
0.0
  0
LINE
  5
14E
330
1F
100
AcDbEntity
  8
0
  6
Continuous
 62
     7
370
    15
100
AcDbLine
 10
25.040834221
 20
-0.6775850606
 30
0.0
 11
25.05
 21
0.0
 31
0.0
  0
ARC
  5
14F
330
1F
100
AcDbEntity
  8
0
  6
Continuous
 62
     7
370
    15
100
AcDbCircle
 10
21.9818087621
 20
8.4532574552
 30
0.0
 40
9.629637677867228
100
AcDbArc
 50
268.7985800908
 51
288.5219395611
  0
ARC
  5
150
330
1F
100
AcDbEntity
  8
0
  6
Continuous
 62
     7
370
    15
100
AcDbCircle
 10
21.7729306635
 20
-1.5066901878
 30
0.0
 40
0.3324999999999991
100
AcDbArc
 50
88.7985800908
 51
176.0414338433
  0
MTEXT
  5
152
330
1F
100
AcDbEntity
  8
0
  6
Continuous
 62
     7
100
AcDbMText
 10
-25.05
 20
-25.9940512279
 30
0.0
 40
4.83362
 41
0.0
 71
     1
 72
     1
  1
SolidWorks Student Edition.
  7
SLDTEXTSTYLE0
 73
     1
 44
1.0
  0
MTEXT
  5
153
330
1F
100
AcDbEntity
  8
0
  6
Continuous
 62
     7
100
AcDbMText
 10
-25.05
 20
-33.2444812279
 30
0.0
 40
4.83362
 41
0.0
 71
     1
 72
     1
  1
For Academic Use Only.
  7
SLDTEXTSTYLE0
 73
     1
 44
1.0
  0
ENDSEC
  0
SECTION
  2
OBJECTS
  0
DICTIONARY
  5
C
330
0
100
AcDbDictionary
281
     1
  3
ACAD_GROUP
350
D
  3
ACAD_LAYOUT
350
1A
  3
ACAD_MLINESTYLE
350
17
  3
ACAD_PLOTSETTINGS
350
19
  3
ACAD_PLOTSTYLENAME
350
E
  3
ACAD_SCALELIST
350
47
  0
DICTIONARY
  5
D
102
{ACAD_REACTORS
330
C
102
}
330
C
100
AcDbDictionary
281
     1
  0
DICTIONARY
  5
1A
102
{ACAD_REACTORS
330
C
102
}
330
C
100
AcDbDictionary
281
     1
  3
Layout1
350
1E
  3
Layout2
350
26
  3
Model
350
22
  0
DICTIONARY
  5
17
102
{ACAD_REACTORS
330
C
102
}
330
C
100
AcDbDictionary
281
     1
  3
Standard
350
18
  0
DICTIONARY
  5
19
102
{ACAD_REACTORS
330
C
102
}
330
C
100
AcDbDictionary
281
     1
  0
ACDBDICTIONARYWDFLT
  5
E
102
{ACAD_REACTORS
330
C
102
}
330
C
100
AcDbDictionary
281
     1
  3
Normal
350
F
100
AcDbDictionaryWithDefault
340
F
  0
DICTIONARY
  5
47
102
{ACAD_REACTORS
330
C
102
}
330
C
100
AcDbDictionary
281
     1
  3
A0
350
48
  3
A1
350
49
  3
A2
350
4A
  3
A3
350
4B
  3
A4
350
4C
  3
A5
350
4D
  3
A6
350
4E
  3
A7
350
4F
  3
A8
350
50
  3
A9
350
51
  3
B0
350
52
  3
B1
350
53
  3
B2
350
54
  3
B3
350
55
  3
B4
350
56
  3
B5
350
57
  3
B6
350
58
  3
B7
350
59
  3
B8
350
5A
  3
B9
350
5B
  3
C0
350
5C
  3
C1
350
5D
  3
C2
350
5E
  3
C3
350
5F
  3
C4
350
60
  3
C5
350
61
  3
C6
350
62
  3
C7
350
63
  3
C8
350
64
  3
C9
350
65
  3
D0
350
66
  3
D1
350
67
  3
D2
350
68
  0
LAYOUT
  5
1E
102
{ACAD_REACTORS
330
1A
102
}
330
1A
100
AcDbPlotSettings
  1

  2
none_device
  4

  6

 40
0.0
 41
0.0
 42
0.0
 43
0.0
 44
0.0
 45
0.0
 46
0.0
 47
0.0
 48
0.0
 49
0.0
140
0.0
141
0.0
142
1.0
143
1.0
 70
   688
 72
     1
 73
     0
 74
     5
  7

 75
    16
147
1.0
148
0.0
149
0.0
100
AcDbLayout
  1
Layout1
 70
     1
 71
     1
 10
0.0
 20
0.0
 11
420.0
 21
297.0
 12
0.0
 22
0.0
 32
0.0
 14
1.0000000000E+20
 24
1.0000000000E+20
 34
1.0000000000E+20
 15
-1.0000000000E+20
 25
-1.0000000000E+20
 35
-1.0000000000E+20
146
0.0
 13
0.0
 23
0.0
 33
0.0
 16
1.0
 26
0.0
 36
0.0
 17
0.0
 27
1.0
 37
0.0
 76
     0
330
1B
  0
LAYOUT
  5
26
102
{ACAD_REACTORS
330
1A
102
}
330
1A
100
AcDbPlotSettings
  1

  2
none_device
  4

  6

 40
0.0
 41
0.0
 42
0.0
 43
0.0
 44
0.0
 45
0.0
 46
0.0
 47
0.0
 48
0.0
 49
0.0
140
0.0
141
0.0
142
1.0
143
1.0
 70
   688
 72
     1
 73
     0
 74
     5
  7

 75
    16
147
1.0
148
0.0
149
0.0
100
AcDbLayout
  1
Layout2
 70
     1
 71
     2
 10
0.0
 20
0.0
 11
0.0
 21
0.0
 12
0.0
 22
0.0
 32
0.0
 14
0.0
 24
0.0
 34
0.0
 15
0.0
 25
0.0
 35
0.0
146
0.0
 13
0.0
 23
0.0
 33
0.0
 16
1.0
 26
0.0
 36
0.0
 17
0.0
 27
1.0
 37
0.0
 76
     0
330
23
  0
LAYOUT
  5
22
102
{ACAD_REACTORS
330
1A
102
}
330
1A
100
AcDbPlotSettings
  1

  2
none_device
  4
ANSI_A_(11.00_x_8.50_Inches)
  6

 40
6.35
 41
19.05
 42
6.35000508
 43
19.05000254
 44
279.4
 45
215.9
 46
133.34999746
 47
88.89999873
 48
0.0
 49
0.0
140
0.0
141
0.0
142
0.1684719436
143
1.0
 70
  1696
 72
     0
 73
     0
 74
     0
  7

 75
     0
147
0.0179189148
148
-1300.4909072572
149
0.0
100
AcDbLayout
  1
Model
 70
     1
 71
     0
 10
0.0
 20
0.0
 11
420.0
 21
297.0
 12
0.0
 22
0.0
 32
0.0
 14
-25.05
 24
-24.9744848362
 34
0.0
 15
25.05
 25
24.9744848362
 35
0.0
146
0.0
 13
0.0
 23
0.0
 33
0.0
 16
1.0
 26
0.0
 36
0.0
 17
0.0
 27
1.0
 37
0.0
 76
     0
330
1F
331
29
  0
MLINESTYLE
  5
18
102
{ACAD_REACTORS
330
17
102
}
330
17
100
AcDbMlineStyle
  2
Standard
 70
     0
  3

 62
   256
 51
90.0
 52
90.0
 71
     2
 49
0.5
 62
   256
  6
BYLAYER
 49
-0.5
 62
   256
  6
BYLAYER
  0
ACDBPLACEHOLDER
  5
F
102
{ACAD_REACTORS
330
E
102
}
330
E
  0
SCALE
  5
48
102
{ACAD_REACTORS
330
47
102
}
330
47
100
AcDbScale
 70
     0
300
1:1
140
1.0
141
1.0
290
     1
  0
SCALE
  5
49
102
{ACAD_REACTORS
330
47
102
}
330
47
100
AcDbScale
 70
     0
300
1:2
140
1.0
141
2.0
290
     0
  0
SCALE
  5
4A
102
{ACAD_REACTORS
330
47
102
}
330
47
100
AcDbScale
 70
     0
300
1:4
140
1.0
141
4.0
290
     0
  0
SCALE
  5
4B
102
{ACAD_REACTORS
330
47
102
}
330
47
100
AcDbScale
 70
     0
300
1:5
140
1.0
141
5.0
290
     0
  0
SCALE
  5
4C
102
{ACAD_REACTORS
330
47
102
}
330
47
100
AcDbScale
 70
     0
300
1:8
140
1.0
141
8.0
290
     0
  0
SCALE
  5
4D
102
{ACAD_REACTORS
330
47
102
}
330
47
100
AcDbScale
 70
     0
300
1:10
140
1.0
141
10.0
290
     0
  0
SCALE
  5
4E
102
{ACAD_REACTORS
330
47
102
}
330
47
100
AcDbScale
 70
     0
300
1:16
140
1.0
141
16.0
290
     0
  0
SCALE
  5
4F
102
{ACAD_REACTORS
330
47
102
}
330
47
100
AcDbScale
 70
     0
300
1:20
140
1.0
141
20.0
290
     0
  0
SCALE
  5
50
102
{ACAD_REACTORS
330
47
102
}
330
47
100
AcDbScale
 70
     0
300
1:30
140
1.0
141
30.0
290
     0
  0
SCALE
  5
51
102
{ACAD_REACTORS
330
47
102
}
330
47
100
AcDbScale
 70
     0
300
1:40
140
1.0
141
40.0
290
     0
  0
SCALE
  5
52
102
{ACAD_REACTORS
330
47
102
}
330
47
100
AcDbScale
 70
     0
300
1:50
140
1.0
141
50.0
290
     0
  0
SCALE
  5
53
102
{ACAD_REACTORS
330
47
102
}
330
47
100
AcDbScale
 70
     0
300
1:100
140
1.0
141
100.0
290
     0
  0
SCALE
  5
54
102
{ACAD_REACTORS
330
47
102
}
330
47
100
AcDbScale
 70
     0
300
2:1
140
2.0
141
1.0
290
     0
  0
SCALE
  5
55
102
{ACAD_REACTORS
330
47
102
}
330
47
100
AcDbScale
 70
     0
300
4:1
140
4.0
141
1.0
290
     0
  0
SCALE
  5
56
102
{ACAD_REACTORS
330
47
102
}
330
47
100
AcDbScale
 70
     0
300
8:1
140
8.0
141
1.0
290
     0
  0
SCALE
  5
57
102
{ACAD_REACTORS
330
47
102
}
330
47
100
AcDbScale
 70
     0
300
10:1
140
10.0
141
1.0
290
     0
  0
SCALE
  5
58
102
{ACAD_REACTORS
330
47
102
}
330
47
100
AcDbScale
 70
     0
300
100:1
140
100.0
141
1.0
290
     0
  0
SCALE
  5
59
102
{ACAD_REACTORS
330
47
102
}
330
47
100
AcDbScale
 70
     0
300
1/128" = 1'-0"
140
0.0078125
141
12.0
290
     0
  0
SCALE
  5
5A
102
{ACAD_REACTORS
330
47
102
}
330
47
100
AcDbScale
 70
     0
300
1/64" = 1'-0"
140
0.015625
141
12.0
290
     0
  0
SCALE
  5
5B
102
{ACAD_REACTORS
330
47
102
}
330
47
100
AcDbScale
 70
     0
300
1/32" = 1'-0"
140
0.03125
141
12.0
290
     0
  0
SCALE
  5
5C
102
{ACAD_REACTORS
330
47
102
}
330
47
100
AcDbScale
 70
     0
300
1/16" = 1'-0"
140
0.0625
141
12.0
290
     0
  0
SCALE
  5
5D
102
{ACAD_REACTORS
330
47
102
}
330
47
100
AcDbScale
 70
     0
300
3/32" = 1'-0"
140
0.09375
141
12.0
290
     0
  0
SCALE
  5
5E
102
{ACAD_REACTORS
330
47
102
}
330
47
100
AcDbScale
 70
     0
300
1/8" = 1'-0"
140
0.125
141
12.0
290
     0
  0
SCALE
  5
5F
102
{ACAD_REACTORS
330
47
102
}
330
47
100
AcDbScale
 70
     0
300
3/16" = 1'-0"
140
0.1875
141
12.0
290
     0
  0
SCALE
  5
60
102
{ACAD_REACTORS
330
47
102
}
330
47
100
AcDbScale
 70
     0
300
1/4" = 1'-0"
140
0.25
141
12.0
290
     0
  0
SCALE
  5
61
102
{ACAD_REACTORS
330
47
102
}
330
47
100
AcDbScale
 70
     0
300
3/8" = 1'-0"
140
0.375
141
12.0
290
     0
  0
SCALE
  5
62
102
{ACAD_REACTORS
330
47
102
}
330
47
100
AcDbScale
 70
     0
300
1/2" = 1'-0"
140
0.5
141
12.0
290
     0
  0
SCALE
  5
63
102
{ACAD_REACTORS
330
47
102
}
330
47
100
AcDbScale
 70
     0
300
3/4" = 1'-0"
140
0.75
141
12.0
290
     0
  0
SCALE
  5
64
102
{ACAD_REACTORS
330
47
102
}
330
47
100
AcDbScale
 70
     0
300
1" = 1'-0"
140
1.0
141
12.0
290
     0
  0
SCALE
  5
65
102
{ACAD_REACTORS
330
47
102
}
330
47
100
AcDbScale
 70
     0
300
1-1/2" = 1'-0"
140
1.5
141
12.0
290
     0
  0
SCALE
  5
66
102
{ACAD_REACTORS
330
47
102
}
330
47
100
AcDbScale
 70
     0
300
3" = 1'-0"
140
3.0
141
12.0
290
     0
  0
SCALE
  5
67
102
{ACAD_REACTORS
330
47
102
}
330
47
100
AcDbScale
 70
     0
300
6" = 1'-0"
140
6.0
141
12.0
290
     0
  0
SCALE
  5
68
102
{ACAD_REACTORS
330
47
102
}
330
47
100
AcDbScale
 70
     0
300
1'-0" = 1'-0"
140
12.0
141
12.0
290
     0
  0
ENDSEC
  0
EOF
