  0
SECTION
  2
HEADER
  9
$ACADVER
  1
AC1015
  9
$ACADMAINTVER
 70
     6
  9
$DWGCODEPAGE
  3
ANSI_1252
  9
$INSBASE
 10
0.0
 20
0.0
 30
0.0
  9
$EXTMIN
 10
-50.2486447911
 20
-50.2537056338
 30
0.0
  9
$EXTMAX
 10
50.2486447911
 20
144.81
 30
0.0
  9
$LIMMIN
 10
0.0
 20
0.0
  9
$LIMMAX
 10
420.0
 20
297.0
  9
$ORTHOMODE
 70
     0
  9
$REGENMODE
 70
     1
  9
$FILLMODE
 70
     1
  9
$QTEXTMODE
 70
     0
  9
$MIRRTEXT
 70
     1
  9
$LTSCALE
 40
1.0
  9
$ATTMODE
 70
     1
  9
$TEXTSIZE
 40
3.5
  9
$TRACEWID
 40
1.0
  9
$TEXTSTYLE
  7
Standard
  9
$CLAYER
  8
0
  9
$CELTYPE
  6
ByLayer
  9
$CECOLOR
 62
   256
  9
$CELTSCALE
 40
1.0
  9
$DISPSILH
 70
     0
  9
$DIMSCALE
 40
1.0
  9
$DIMASZ
 40
3.302
  9
$DIMEXO
 40
1.0
  9
$DIMDLI
 40
3.75
  9
$DIMRND
 40
0.0
  9
$DIMDLE
 40
0.0
  9
$DIMEXE
 40
1.0
  9
$DIMTP
 40
0.0
  9
$DIMTM
 40
0.0
  9
$DIMTXT
 40
3.5
  9
$DIMCEN
 40
2.5
  9
$DIMTSZ
 40
0.0
  9
$DIMTOL
 70
     0
  9
$DIMLIM
 70
     0
  9
$DIMTIH
 70
     1
  9
$DIMTOH
 70
     1
  9
$DIMSE1
 70
     0
  9
$DIMSE2
 70
     0
  9
$DIMTAD
 70
     1
  9
$DIMZIN
 70
     0
  9
$DIMBLK
  1

  9
$DIMASO
 70
     1
  9
$DIMSHO
 70
     1
  9
$DIMPOST
  1

  9
$DIMAPOST
  1

  9
$DIMALT
 70
     0
  9
$DIMALTD
 70
     3
  9
$DIMALTF
 40
0.0393700787
  9
$DIMLFAC
 40
1.0
  9
$DIMTOFL
 70
     1
  9
$DIMTVP
 40
0.0
  9
$DIMTIX
 70
     0
  9
$DIMSOXD
 70
     0
  9
$DIMSAH
 70
     0
  9
$DIMBLK1
  1

  9
$DIMBLK2
  1

  9
$DIMSTYLE
  2
ISO-25
  9
$DIMCLRD
 70
     0
  9
$DIMCLRE
 70
     0
  9
$DIMCLRT
 70
     0
  9
$DIMTFAC
 40
1.0
  9
$DIMGAP
 40
1.524
  9
$DIMJUST
 70
     0
  9
$DIMSD1
 70
     0
  9
$DIMSD2
 70
     0
  9
$DIMTOLJ
 70
     0
  9
$DIMTZIN
 70
     0
  9
$DIMALTZ
 70
     0
  9
$DIMALTTZ
 70
     0
  9
$DIMUPT
 70
     0
  9
$DIMDEC
 70
     2
  9
$DIMTDEC
 70
     2
  9
$DIMALTU
 70
     2
  9
$DIMALTTD
 70
     3
  9
$DIMTXSTY
  7
Standard
  9
$DIMAUNIT
 70
     0
  9
$DIMADEC
 70
     2
  9
$DIMALTRND
 40
0.0
  9
$DIMAZIN
 70
     0
  9
$DIMDSEP
 70
    44
  9
$DIMATFIT
 70
     3
  9
$DIMFRAC
 70
     0
  9
$DIMLDRBLK
  1

  9
$DIMLUNIT
 70
     2
  9
$DIMLWD
 70
    -2
  9
$DIMLWE
 70
    -2
  9
$DIMTMOVE
 70
     0
  9
$LUNITS
 70
     2
  9
$LUPREC
 70
     2
  9
$SKETCHINC
 40
1.0
  9
$FILLETRAD
 40
10.0
  9
$AUNITS
 70
     0
  9
$AUPREC
 70
     2
  9
$MENU
  1
.
  9
$ELEVATION
 40
0.0
  9
$PELEVATION
 40
0.0
  9
$THICKNESS
 40
0.0
  9
$LIMCHECK
 70
     0
  9
$CHAMFERA
 40
0.0
  9
$CHAMFERB
 40
0.0
  9
$CHAMFERC
 40
0.0
  9
$CHAMFERD
 40
0.0
  9
$SKPOLY
 70
     0
  9
$TDCREATE
 40
2457206.749381192
  9
$TDUCREATE
 40
2457207.041047859
  9
$TDUPDATE
 40
2457206.749406018
  9
$TDUUPDATE
 40
2457207.041072685
  9
$TDINDWG
 40
0.0000000116
  9
$TDUSRTIMER
 40
0.0000000116
  9
$USRTIMER
 70
     1
  9
$ANGBASE
 50
0.0
  9
$ANGDIR
 70
     0
  9
$PDMODE
 70
     0
  9
$PDSIZE
 40
-1.0
  9
$PLINEWID
 40
0.0
  9
$SPLFRAME
 70
     0
  9
$SPLINETYPE
 70
     6
  9
$SPLINESEGS
 70
     8
  9
$HANDSEED
  5
16E
  9
$SURFTAB1
 70
     6
  9
$SURFTAB2
 70
     6
  9
$SURFTYPE
 70
     6
  9
$SURFU
 70
     6
  9
$SURFV
 70
     6
  9
$UCSBASE
  2

  9
$UCSNAME
  2

  9
$UCSORG
 10
0.0
 20
0.0
 30
0.0
  9
$UCSXDIR
 10
1.0
 20
0.0
 30
0.0
  9
$UCSYDIR
 10
0.0
 20
1.0
 30
0.0
  9
$UCSORTHOREF
  2

  9
$UCSORTHOVIEW
 70
     0
  9
$UCSORGTOP
 10
0.0
 20
0.0
 30
0.0
  9
$UCSORGBOTTOM
 10
0.0
 20
0.0
 30
0.0
  9
$UCSORGLEFT
 10
0.0
 20
0.0
 30
0.0
  9
$UCSORGRIGHT
 10
0.0
 20
0.0
 30
0.0
  9
$UCSORGFRONT
 10
0.0
 20
0.0
 30
0.0
  9
$UCSORGBACK
 10
0.0
 20
0.0
 30
0.0
  9
$PUCSBASE
  2

  9
$PUCSNAME
  2

  9
$PUCSORG
 10
0.0
 20
0.0
 30
0.0
  9
$PUCSXDIR
 10
1.0
 20
0.0
 30
0.0
  9
$PUCSYDIR
 10
0.0
 20
1.0
 30
0.0
  9
$PUCSORTHOREF
  2

  9
$PUCSORTHOVIEW
 70
     0
  9
$PUCSORGTOP
 10
0.0
 20
0.0
 30
0.0
  9
$PUCSORGBOTTOM
 10
0.0
 20
0.0
 30
0.0
  9
$PUCSORGLEFT
 10
0.0
 20
0.0
 30
0.0
  9
$PUCSORGRIGHT
 10
0.0
 20
0.0
 30
0.0
  9
$PUCSORGFRONT
 10
0.0
 20
0.0
 30
0.0
  9
$PUCSORGBACK
 10
0.0
 20
0.0
 30
0.0
  9
$USERI1
 70
     0
  9
$USERI2
 70
     0
  9
$USERI3
 70
     0
  9
$USERI4
 70
     0
  9
$USERI5
 70
     0
  9
$USERR1
 40
0.0
  9
$USERR2
 40
0.0
  9
$USERR3
 40
0.0
  9
$USERR4
 40
0.0
  9
$USERR5
 40
0.0
  9
$WORLDVIEW
 70
     1
  9
$SHADEDGE
 70
     3
  9
$SHADEDIF
 70
    70
  9
$TILEMODE
 70
     1
  9
$MAXACTVP
 70
    64
  9
$PINSBASE
 10
0.0
 20
0.0
 30
0.0
  9
$PLIMCHECK
 70
     0
  9
$PEXTMIN
 10
1.0000000000E+20
 20
1.0000000000E+20
 30
1.0000000000E+20
  9
$PEXTMAX
 10
-1.0000000000E+20
 20
-1.0000000000E+20
 30
-1.0000000000E+20
  9
$PLIMMIN
 10
0.0
 20
0.0
  9
$PLIMMAX
 10
420.0
 20
297.0
  9
$UNITMODE
 70
     0
  9
$VISRETAIN
 70
     1
  9
$PLINEGEN
 70
     0
  9
$PSLTSCALE
 70
     1
  9
$TREEDEPTH
 70
  3020
  9
$CMLSTYLE
  2
Standard
  9
$CMLJUST
 70
     0
  9
$CMLSCALE
 40
20.0
  9
$PROXYGRAPHICS
 70
     1
  9
$MEASUREMENT
 70
     1
  9
$CELWEIGHT
370
    -1
  9
$ENDCAPS
280
     0
  9
$JOINSTYLE
280
     0
  9
$LWDISPLAY
290
     1
  9
$INSUNITS
 70
     4
  9
$HYPERLINKBASE
  1

  9
$STYLESHEET
  1

  9
$XEDIT
290
     1
  9
$CEPSNTYPE
380
     0
  9
$PSTYLEMODE
290
     1
  9
$FINGERPRINTGUID
  2
{DD49311A-0A08-4A05-B828-03D22DC056CB}
  9
$VERSIONGUID
  2
{FAEB1C32-E019-11D5-929B-00C0DF256EC4}
  9
$EXTNAMES
290
     1
  9
$PSVPSCALE
 40
0.0
  9
$OLESTARTUP
290
     0
  0
ENDSEC
  0
SECTION
  2
CLASSES
  0
CLASS
  1
ACDBDICTIONARYWDFLT
  2
AcDbDictionaryWithDefault
  3
ObjectDBX Classes
 90
        0
280
     0
281
     0
  0
CLASS
  1
VISUALSTYLE
  2
AcDbVisualStyle
  3
ObjectDBX Classes
 90
     4095
280
     0
281
     0
  0
CLASS
  1
MATERIAL
  2
AcDbMaterial
  3
ObjectDBX Classes
 90
     1153
280
     0
281
     0
  0
CLASS
  1
SCALE
  2
AcDbScale
  3
ObjectDBX Classes
 90
     1153
280
     0
281
     0
  0
CLASS
  1
SUN
  2
AcDbSun
  3
SCENEOE
 90
     1153
280
     0
281
     0
  0
CLASS
  1
ACDBPLACEHOLDER
  2
AcDbPlaceHolder
  3
ObjectDBX Classes
 90
        0
280
     0
281
     0
  0
CLASS
  1
LAYOUT
  2
AcDbLayout
  3
ObjectDBX Classes
 90
        0
280
     0
281
     0
  0
ENDSEC
  0
SECTION
  2
TABLES
  0
TABLE
  2
VPORT
  5
8
330
0
100
AcDbSymbolTable
 70
     1
  0
VPORT
  5
29
330
8
100
AcDbSymbolTableRecord
100
AcDbViewportTableRecord
  2
*Active
 70
     0
 10
0.0
 20
0.0
 11
1.0
 21
1.0
 12
0.0
 22
47.2781471831
 13
0.0
 23
0.0
 14
10.0
 24
10.0
 15
10.0
 25
10.0
 16
0.0
 26
0.0
 36
1.0
 17
0.0
 27
0.0
 37
0.0
 40
198.9649797464
 41
0.5152024015
 42
50.0
 43
0.0
 44
0.0
 50
0.0
 51
0.0
 71
     0
 72
   100
 73
     1
 74
     3
 75
     0
 76
     0
 77
     0
 78
     0
281
     0
 65
     1
110
0.0
120
0.0
130
0.0
111
1.0
121
0.0
131
0.0
112
0.0
122
1.0
132
0.0
 79
     0
146
0.0
  0
ENDTAB
  0
TABLE
  2
LTYPE
  5
5
330
0
100
AcDbSymbolTable
 70
     6
  0
LTYPE
  5
14
330
5
100
AcDbSymbolTableRecord
100
AcDbLinetypeTableRecord
  2
ByBlock
 70
     0
  3

 72
    65
 73
     0
 40
0.0
  0
LTYPE
  5
15
330
5
100
AcDbSymbolTableRecord
100
AcDbLinetypeTableRecord
  2
ByLayer
 70
     0
  3

 72
    65
 73
     0
 40
0.0
  0
LTYPE
  5
16
330
5
100
AcDbSymbolTableRecord
100
AcDbLinetypeTableRecord
  2
Continuous
 70
     0
  3
Solid line
 72
    65
 73
     0
 40
0.0
  0
LTYPE
  5
6A
330
5
100
AcDbSymbolTableRecord
100
AcDbLinetypeTableRecord
  2
HIDDEN
 70
     0
  3
Hidden __ __ __ __ __ __ __ __ __ __ __ __ __ __
 72
    65
 73
     2
 40
1.905
 49
1.27
 74
     0
 49
-0.635
 74
     0
  0
LTYPE
  5
6B
330
5
100
AcDbSymbolTableRecord
100
AcDbLinetypeTableRecord
  2
PHANTOM
 70
     0
  3
Phantom ______  __  __  ______  __  __  ______
 72
    65
 73
     6
 40
12.7
 49
6.35
 74
     0
 49
-1.27
 74
     0
 49
1.27
 74
     0
 49
-1.27
 74
     0
 49
1.27
 74
     0
 49
-1.27
 74
     0
  0
LTYPE
  5
6C
330
5
100
AcDbSymbolTableRecord
100
AcDbLinetypeTableRecord
  2
CENTER
 70
     0
  3
Center ____ _ ____ _ ____ _ ____ _ ____ _ ____
 72
    65
 73
     4
 40
10.16
 49
6.35
 74
     0
 49
-1.27
 74
     0
 49
1.27
 74
     0
 49
-1.27
 74
     0
  0
LTYPE
  5
6D
330
5
100
AcDbSymbolTableRecord
100
AcDbLinetypeTableRecord
  2
CENTERX2
 70
     0
  3
Center (2x) ________  __  ________  __  _____
 72
    65
 73
     4
 40
20.32
 49
12.7
 74
     0
 49
-2.54
 74
     0
 49
2.54
 74
     0
 49
-2.54
 74
     0
  0
LTYPE
  5
6E
330
5
100
AcDbSymbolTableRecord
100
AcDbLinetypeTableRecord
  2
DOT2
 70
     0
  3
Dot (.5x) ........................................
 72
    65
 73
     2
 40
0.635
 49
0.0
 74
     0
 49
-0.635
 74
     0
  0
ENDTAB
  0
TABLE
  2
LAYER
  5
2
330
0
100
AcDbSymbolTable
 70
     1
  0
LAYER
  5
10
330
2
100
AcDbSymbolTableRecord
100
AcDbLayerTableRecord
  2
0
 70
     0
 62
     7
  6
Continuous
370
    -3
390
F
  0
ENDTAB
  0
TABLE
  2
STYLE
  5
3
330
0
100
AcDbSymbolTable
 70
     2
  0
STYLE
  5
11
330
3
100
AcDbSymbolTableRecord
100
AcDbTextStyleTableRecord
  2
Standard
 70
     0
 40
0.0
 41
1.0
 50
0.0
 71
     0
 42
3.5
  3
txt
  4

  0
STYLE
  5
16B
330
3
100
AcDbSymbolTableRecord
100
AcDbTextStyleTableRecord
  2
SLDTEXTSTYLE0
 70
     0
 40
0.0
 41
0.7
 50
0.0
 71
     0
 42
3.5
  3
TXT
  4

  0
ENDTAB
  0
TABLE
  2
VIEW
  5
6
330
0
100
AcDbSymbolTable
 70
     0
  0
ENDTAB
  0
TABLE
  2
UCS
  5
7
330
0
100
AcDbSymbolTable
 70
     0
  0
ENDTAB
  0
TABLE
  2
APPID
  5
9
330
0
100
AcDbSymbolTable
 70
     1
  0
APPID
  5
12
330
9
100
AcDbSymbolTableRecord
100
AcDbRegAppTableRecord
  2
ACAD
 70
     0
  0
ENDTAB
  0
TABLE
  2
DIMSTYLE
  5
A
330
0
100
AcDbSymbolTable
 70
     1
100
AcDbDimStyleTable
  0
DIMSTYLE
105
27
330
A
100
AcDbSymbolTableRecord
100
AcDbDimStyleTableRecord
  2
ISO-25
 70
     0
 41
2.5
 42
0.625
 43
3.75
 44
1.25
 73
     0
 74
     0
 77
     1
 78
     8
140
2.5
141
2.5
143
0.0393700787
147
0.625
171
     3
172
     1
178
     0
271
     2
272
     2
274
     3
278
    44
283
     0
284
     8
340
11
  0
ENDTAB
  0
TABLE
  2
BLOCK_RECORD
  5
1
330
0
100
AcDbSymbolTable
 70
     1
  0
BLOCK_RECORD
  5
1F
330
1
100
AcDbSymbolTableRecord
100
AcDbBlockTableRecord
  2
*Model_Space
340
22
  0
BLOCK_RECORD
  5
1B
330
1
100
AcDbSymbolTableRecord
100
AcDbBlockTableRecord
  2
*Paper_Space
340
1E
  0
BLOCK_RECORD
  5
23
330
1
100
AcDbSymbolTableRecord
100
AcDbBlockTableRecord
  2
*Paper_Space0
340
26
  0
ENDTAB
  0
ENDSEC
  0
SECTION
  2
BLOCKS
  0
BLOCK
  5
20
330
1F
100
AcDbEntity
  8
0
100
AcDbBlockBegin
  2
*Model_Space
 70
     0
 10
0.0
 20
0.0
 30
0.0
  3
*Model_Space
  1
*Model_Space
  0
ENDBLK
  5
21
330
1F
100
AcDbEntity
  8
0
100
AcDbBlockEnd
  0
BLOCK
  5
1C
330
1B
100
AcDbEntity
 67
     1
  8
0
100
AcDbBlockBegin
  2
*Paper_Space
 70
     0
 10
0.0
 20
0.0
 30
0.0
  3
*Paper_Space
  1
*Paper_Space
  0
ENDBLK
  5
1D
330
1B
100
AcDbEntity
 67
     1
  8
0
100
AcDbBlockEnd
  0
BLOCK
  5
24
330
23
100
AcDbEntity
  8
0
100
AcDbBlockBegin
  2
*Paper_Space0
 70
     0
 10
0.0
 20
0.0
 30
0.0
  3
*Paper_Space0
  1
*Paper_Space0
  0
ENDBLK
  5
25
330
23
100
AcDbEntity
  8
0
100
AcDbBlockEnd
  0
ENDSEC
  0
SECTION
  2
ENTITIES
  0
CIRCLE
  5
6F
330
1F
100
AcDbEntity
  8
0
  6
Continuous
 62
     7
370
    15
100
AcDbCircle
 10
0.0
 20
0.0
 30
0.0
 40
0.5
  0
CIRCLE
  5
70
330
1F
100
AcDbEntity
  8
0
  6
Continuous
 62
     7
370
    15
100
AcDbCircle
 10
0.0
 20
134.62
 30
0.0
 40
2.500000000000001
  0
ARC
  5
71
330
1F
100
AcDbEntity
  8
0
  6
Continuous
 62
     7
370
    15
100
AcDbCircle
 10
11.0116899366
 20
44.0987037641
 30
0.0
 40
19.5075566437423
100
AcDbArc
 50
161.6133795911
 51
174.0493668548
  0
ARC
  5
72
330
1F
100
AcDbEntity
  8
0
  6
Continuous
 62
     7
370
    15
100
AcDbCircle
 10
0.0
 20
0.0
 30
0.0
 40
46.87812843081573
100
AcDbArc
 50
100.3109801385
 51
101.8428660154
  0
ARC
  5
73
330
1F
100
AcDbEntity
  8
0
  6
Continuous
 62
     7
370
    15
100
AcDbCircle
 10
-26.9927381503
 20
37.0057291348
 30
0.0
 40
19.5075566437423
100
AcDbArc
 50
27.0603788054
 51
37.6102966426
  0
ARC
  5
74
330
1F
100
AcDbEntity
  8
0
  6
Continuous
 62
     7
370
    15
100
AcDbCircle
 10
0.0
 20
0.0
 30
0.0
 40
50.25370563375132
100
AcDbArc
 50
103.2746846761
 51
104.4176230162
  0
ARC
  5
75
330
1F
100
AcDbEntity
  8
0
  6
Continuous
 62
     7
370
    15
100
AcDbCircle
 10
6.7034628167
 20
45.3110967414
 30
0.0
 40
19.50755664374229
100
AcDbArc
 50
170.0820110497
 51
180.6319288869
  0
ARC
  5
76
330
1F
100
AcDbEntity
  8
0
  6
Continuous
 62
     7
370
    15
100
AcDbCircle
 10
0.0
 20
0.0
 30
0.0
 40
46.87812843081572
100
AcDbArc
 50
105.8494416769
 51
107.3813275538
  0
ARC
  5
77
330
1F
100
AcDbEntity
  8
0
  6
Continuous
 62
     7
370
    15
100
AcDbCircle
 10
-30.4382942037
 20
34.2277978786
 30
0.0
 40
19.50755664374231
100
AcDbArc
 50
32.5988403438
 51
43.1487581811
  0
ARC
  5
78
330
1F
100
AcDbEntity
  8
0
  6
Continuous
 62
     7
370
    15
100
AcDbCircle
 10
0.0
 20
0.0
 30
0.0
 40
50.25370563375131
100
AcDbArc
 50
108.8131462145
 51
109.9560845547
  0
ARC
  5
79
330
1F
100
AcDbEntity
  8
0
  6
Continuous
 62
     7
370
    15
100
AcDbCircle
 10
2.2990169962
 20
45.7465454706
 30
0.0
 40
19.50755664374231
100
AcDbArc
 50
175.6204725882
 51
186.1703904254
  0
ARC
  5
7A
330
1F
100
AcDbEntity
  8
0
  6
Continuous
 62
     7
370
    15
100
AcDbCircle
 10
0.0
 20
0.0
 30
0.0
 40
46.8781284308157
100
AcDbArc
 50
111.3879032154
 51
112.9197890923
  0
ARC
  5
7B
330
1F
100
AcDbEntity
  8
0
  6
Continuous
 62
     7
370
    15
100
AcDbCircle
 10
-33.5996561053
 20
31.1302908957
 30
0.0
 40
19.50755664374231
100
AcDbArc
 50
38.1373018823
 51
48.6872197195
  0
ARC
  5
7C
330
1F
100
AcDbEntity
  8
0
  6
Continuous
 62
     7
370
    15
100
AcDbCircle
 10
0.0
 20
0.0
 30
0.0
 40
50.25370563375133
100
AcDbArc
 50
114.351607753
 51
115.4945460932
  0
ARC
  5
7D
330
1F
100
AcDbEntity
  8
0
  6
Continuous
 62
     7
370
    15
100
AcDbCircle
 10
-2.1268941266
 20
45.7548710305
 30
0.0
 40
19.50755664374231
100
AcDbArc
 50
181.1589341266
 51
191.7088519639
  0
ARC
  5
7E
330
1F
100
AcDbEntity
  8
0
  6
Continuous
 62
     7
370
    15
100
AcDbCircle
 10
0.0
 20
0.0
 30
0.0
 40
46.87812843081571
100
AcDbArc
 50
116.9263647539
 51
118.4582506308
  0
ARC
  5
7F
330
1F
100
AcDbEntity
  8
0
  6
Continuous
 62
     7
370
    15
100
AcDbCircle
 10
-36.4473070708
 20
27.7421287743
 30
0.0
 40
19.50755664374232
100
AcDbArc
 50
43.6757634208
 51
54.225681258
  0
ARC
  5
80
330
1F
100
AcDbEntity
  8
0
  6
Continuous
 62
     7
370
    15
100
AcDbCircle
 10
0.0
 20
0.0
 30
0.0
 40
50.25370563375132
100
AcDbArc
 50
119.8900692914
 51
121.0330076316
  0
ARC
  5
81
330
1F
100
AcDbEntity
  8
0
  6
Continuous
 62
     7
370
    15
100
AcDbCircle
 10
-6.532947012
 20
45.3359956876
 30
0.0
 40
19.5075566437423
100
AcDbArc
 50
186.6973956651
 51
197.2473135023
  0
ARC
  5
82
330
1F
100
AcDbEntity
  8
0
  6
Continuous
 62
     7
370
    15
100
AcDbCircle
 10
0.0
 20
0.0
 30
0.0
 40
46.87812843081572
100
AcDbArc
 50
122.4648262923
 51
123.9967121692
  0
ARC
  5
83
330
1F
100
AcDbEntity
  8
0
  6
Continuous
 62
     7
370
    15
100
AcDbCircle
 10
-38.9546593504
 20
24.0949458713
 30
0.0
 40
19.5075566437423
100
AcDbArc
 50
49.2142249592
 51
59.7641427965
  0
ARC
  5
84
330
1F
100
AcDbEntity
  8
0
  6
Continuous
 62
     7
370
    15
100
AcDbCircle
 10
0.0
 20
0.0
 30
0.0
 40
50.25370563375132
100
AcDbArc
 50
125.4285308299
 51
126.5714691701
  0
ARC
  5
85
330
1F
100
AcDbEntity
  8
0
  6
Continuous
 62
     7
370
    15
100
AcDbCircle
 10
-10.8780035314
 20
44.493830368
 30
0.0
 40
19.50755664374229
100
AcDbArc
 50
192.2358572035
 51
202.7857750408
  0
ARC
  5
86
330
1F
100
AcDbEntity
  8
0
  6
Continuous
 62
     7
370
    15
100
AcDbCircle
 10
0.0
 20
0.0
 30
0.0
 40
46.87812843081572
100
AcDbArc
 50
128.0032878308
 51
129.5351737077
  0
ARC
  5
87
330
1F
100
AcDbEntity
  8
0
  6
Continuous
 62
     7
370
    15
100
AcDbCircle
 10
-41.0983024713
 20
20.2227949508
 30
0.0
 40
19.5075566437423
100
AcDbArc
 50
54.7526864977
 51
65.3026043349
  0
ARC
  5
88
330
1F
100
AcDbEntity
  8
0
  6
Continuous
 62
     7
370
    15
100
AcDbCircle
 10
0.0
 20
0.0
 30
0.0
 40
50.25370563375132
100
AcDbArc
 50
130.9669923684
 51
132.1099307086
  0
ARC
  5
89
330
1F
100
AcDbEntity
  8
0
  6
Continuous
 62
     7
370
    15
100
AcDbCircle
 10
-15.1214950627
 20
43.2362381425
 30
0.0
 40
19.50755664374232
100
AcDbArc
 50
197.774318742
 51
208.3242365792
  0
ARC
  5
8A
330
1F
100
AcDbEntity
  8
0
  6
Continuous
 62
     7
370
    15
100
AcDbCircle
 10
0.0
 20
0.0
 30
0.0
 40
46.87812843081572
100
AcDbArc
 50
133.5417493692
 51
135.0736352461
  0
ARC
  5
8B
330
1F
100
AcDbEntity
  8
0
  6
Continuous
 62
     7
370
    15
100
AcDbCircle
 10
-42.8582218155
 20
16.1618292425
 30
0.0
 40
19.5075566437423
100
AcDbArc
 50
60.2911480361
 51
70.8410658734
  0
ARC
  5
8C
330
1F
100
AcDbEntity
  8
0
  6
Continuous
 62
     7
370
    15
100
AcDbCircle
 10
0.0
 20
0.0
 30
0.0
 40
50.25370563375134
100
AcDbArc
 50
136.5054539068
 51
137.648392247
  0
ARC
  5
8D
330
1F
100
AcDbEntity
  8
0
  6
Continuous
 62
     7
370
    15
100
AcDbCircle
 10
-19.2238012688
 20
41.5749608108
 30
0.0
 40
19.50755664374232
100
AcDbArc
 50
203.3127802805
 51
213.8626981177
  0
ARC
  5
8E
330
1F
100
AcDbEntity
  8
0
  6
Continuous
 62
     7
370
    15
100
AcDbCircle
 10
0.0
 20
0.0
 30
0.0
 40
46.87812843081573
100
AcDbArc
 50
139.0802109077
 51
140.6120967846
  0
ARC
  5
8F
330
1F
100
AcDbEntity
  8
0
  6
Continuous
 62
     7
370
    15
100
AcDbCircle
 10
-44.21798549
 20
11.9499648891
 30
0.0
 40
19.50755664374229
100
AcDbArc
 50
65.8296095746
 51
76.3795274118
  0
ARC
  5
90
330
1F
100
AcDbEntity
  8
0
  6
Continuous
 62
     7
370
    15
100
AcDbCircle
 10
0.0
 20
0.0
 30
0.0
 40
50.25370563375132
100
AcDbArc
 50
142.0439154453
 51
143.1868537855
  0
ARC
  5
91
330
1F
100
AcDbEntity
  8
0
  6
Continuous
 62
     7
370
    15
100
AcDbCircle
 10
-23.1466200221
 20
39.5255092718
 30
0.0
 40
19.50755664374231
100
AcDbArc
 50
208.8512418189
 51
219.4011596562
  0
ARC
  5
92
330
1F
100
AcDbEntity
  8
0
  6
Continuous
 62
     7
370
    15
100
AcDbCircle
 10
0.0
 20
0.0
 30
0.0
 40
46.87812843081572
100
AcDbArc
 50
144.6186724462
 51
146.1505583231
  0
ARC
  5
93
330
1F
100
AcDbEntity
  8
0
  6
Continuous
 62
     7
370
    15
100
AcDbCircle
 10
-45.1648977479
 20
7.6265269333
 30
0.0
 40
19.50755664374231
100
AcDbArc
 50
71.3680711131
 51
81.9179889503
  0
ARC
  5
94
330
1F
100
AcDbEntity
  8
0
  6
Continuous
 62
     7
370
    15
100
AcDbCircle
 10
0.0
 20
0.0
 30
0.0
 40
50.25370563375131
100
AcDbArc
 50
147.5823769838
 51
148.7253153239
  0
ARC
  5
95
330
1F
100
AcDbEntity
  8
0
  6
Continuous
 62
     7
370
    15
100
AcDbCircle
 10
-26.8533250208
 20
37.1070187023
 30
0.0
 40
19.50755664374229
100
AcDbArc
 50
214.3897033574
 51
224.9396211946
  0
ARC
  5
96
330
1F
100
AcDbEntity
  8
0
  6
Continuous
 62
     7
370
    15
100
AcDbCircle
 10
0.0
 20
0.0
 30
0.0
 40
46.87812843081571
100
AcDbArc
 50
150.1571339846
 51
151.6890198615
  0
ARC
  5
97
330
1F
100
AcDbEntity
  8
0
  6
Continuous
 62
     7
370
    15
100
AcDbCircle
 10
-45.6901175246
 20
3.2318821504
 30
0.0
 40
19.50755664374232
100
AcDbArc
 50
76.9065326515
 51
87.4564504888
  0
ARC
  5
98
330
1F
100
AcDbEntity
  8
0
  6
Continuous
 62
     7
370
    15
100
AcDbCircle
 10
0.0
 20
0.0
 30
0.0
 40
50.25370563375133
100
AcDbArc
 50
153.1208385222
 51
154.2637768624
  0
ARC
  5
99
330
1F
100
AcDbEntity
  8
0
  6
Continuous
 62
     7
370
    15
100
AcDbCircle
 10
-30.3093077589
 20
34.3420698972
 30
0.0
 40
19.50755664374231
100
AcDbArc
 50
219.9281648959
 51
230.4780827331
  0
ARC
  5
9A
330
1F
100
AcDbEntity
  8
0
  6
Continuous
 62
     7
370
    15
100
AcDbCircle
 10
0.0
 20
0.0
 30
0.0
 40
46.87812843081572
100
AcDbArc
 50
155.6955955231
 51
157.2274814
  0
ARC
  5
9B
330
1F
100
AcDbEntity
  8
0
  6
Continuous
 62
     7
370
    15
100
AcDbCircle
 10
-45.7887409845
 20
-1.1929378454
 30
0.0
 40
19.50755664374232
100
AcDbArc
 50
82.44499419
 51
92.9949120272
  0
ARC
  5
9C
330
1F
100
AcDbEntity
  8
0
  6
Continuous
 62
     7
370
    15
100
AcDbCircle
 10
0.0
 20
0.0
 30
0.0
 40
50.25370563375132
100
AcDbArc
 50
158.6593000607
 51
159.8022384009
  0
ARC
  5
9D
330
1F
100
AcDbEntity
  8
0
  6
Continuous
 62
     7
370
    15
100
AcDbCircle
 10
-33.4823006569
 20
31.2564784383
 30
0.0
 40
19.50755664374231
100
AcDbArc
 50
225.4666264343
 51
236.0165442715
  0
ARC
  5
9E
330
1F
100
AcDbEntity
  8
0
  6
Continuous
 62
     7
370
    15
100
AcDbCircle
 10
0.0
 20
0.0
 30
0.0
 40
46.87812843081573
100
AcDbArc
 50
161.2340570616
 51
162.7659429384
  0
ARC
  5
9F
330
1F
100
AcDbEntity
  8
0
  6
Continuous
 62
     7
370
    15
100
AcDbCircle
 10
-45.4598473069
 20
-5.6066197019
 30
0.0
 40
19.50755664374233
100
AcDbArc
 50
87.9834557285
 51
98.5333735657
  0
ARC
  5
A0
330
1F
100
AcDbEntity
  8
0
  6
Continuous
 62
     7
370
    15
100
AcDbCircle
 10
0.0
 20
0.0
 30
0.0
 40
50.25370563375134
100
AcDbArc
 50
164.1977615991
 51
165.3406999393
  0
ARC
  5
A1
330
1F
100
AcDbEntity
  8
0
  6
Continuous
 62
     7
370
    15
100
AcDbCircle
 10
-36.342678335
 20
27.8790536619
 30
0.0
 40
19.5075566437423
100
AcDbArc
 50
231.0050879728
 51
241.55500581
  0
ARC
  5
A2
330
1F
100
AcDbEntity
  8
0
  6
Continuous
 62
     7
370
    15
100
AcDbCircle
 10
0.0
 20
0.0
 30
0.0
 40
46.87812843081572
100
AcDbArc
 50
166.7725186
 51
168.3044044769
  0
ARC
  5
A3
330
1F
100
AcDbEntity
  8
0
  6
Continuous
 62
     7
370
    15
100
AcDbCircle
 10
-44.7065072835
 20
-9.9679540609
 30
0.0
 40
19.50755664374231
100
AcDbArc
 50
93.5219172669
 51
104.0718351041
  0
ARC
  5
A4
330
1F
100
AcDbEntity
  8
0
  6
Continuous
 62
     7
370
    15
100
AcDbCircle
 10
0.0
 20
0.0
 30
0.0
 40
50.25370563375133
100
AcDbArc
 50
169.7362231376
 51
170.8791614778
  0
ARC
  5
A5
330
1F
100
AcDbEntity
  8
0
  6
Continuous
 62
     7
370
    15
100
AcDbCircle
 10
-38.8637342175
 20
24.241329673
 30
0.0
 40
19.50755664374231
100
AcDbArc
 50
236.5435495112
 51
247.0934673485
  0
ARC
  5
A6
330
1F
100
AcDbEntity
  8
0
  6
Continuous
 62
     7
370
    15
100
AcDbCircle
 10
0.0
 20
0.0
 30
0.0
 40
46.87812843081572
100
AcDbArc
 50
172.3109801385
 51
173.8428660154
  0
ARC
  5
A7
330
1F
100
AcDbEntity
  8
0
  6
Continuous
 62
     7
370
    15
100
AcDbCircle
 10
-43.535754647
 20
-14.2362203186
 30
0.0
 40
19.50755664374231
100
AcDbArc
 50
99.0603788054
 51
109.6102966426
  0
ARC
  5
A8
330
1F
100
AcDbEntity
  8
0
  6
Continuous
 62
     7
370
    15
100
AcDbCircle
 10
0.0
 20
0.0
 30
0.0
 40
50.25370563375134
100
AcDbArc
 50
175.2746846761
 51
176.4176230162
  0
ARC
  5
A9
330
1F
100
AcDbEntity
  8
0
  6
Continuous
 62
     7
370
    15
100
AcDbCircle
 10
-41.0219298849
 20
20.3772709204
 30
0.0
 40
19.50755664374231
100
AcDbArc
 50
242.0820110497
 51
252.6319288869
  0
ARC
  5
AA
330
1F
100
AcDbEntity
  8
0
  6
Continuous
 62
     7
370
    15
100
AcDbCircle
 10
0.0
 20
0.0
 30
0.0
 40
46.87812843081571
100
AcDbArc
 50
177.8494416769
 51
179.3813275538
  0
ARC
  5
AB
330
1F
100
AcDbEntity
  8
0
  6
Continuous
 62
     7
370
    15
100
AcDbCircle
 10
-41.9585203996
 20
-18.3715668228
 30
0.0
 40
19.50755664374232
100
AcDbArc
 50
104.5988403438
 51
115.1487581811
  0
ARC
  5
AC
330
1F
100
AcDbEntity
  8
0
  6
Continuous
 62
     7
370
    15
100
AcDbCircle
 10
0.0
 20
0.0
 30
0.0
 40
50.25370563375132
100
AcDbArc
 50
180.8131462145
 51
181.9560845547
  0
ARC
  5
AD
330
1F
100
AcDbEntity
  8
0
  6
Continuous
 62
     7
370
    15
100
AcDbCircle
 10
-42.7971148457
 20
16.3229550797
 30
0.0
 40
19.50755664374229
100
AcDbArc
 50
247.6204725882
 51
258.1703904254
  0
ARC
  5
AE
330
1F
100
AcDbEntity
  8
0
  6
Continuous
 62
     7
370
    15
100
AcDbCircle
 10
0.0
 20
0.0
 30
0.0
 40
46.87812843081572
100
AcDbArc
 50
183.3879032154
 51
184.9197890923
  0
ARC
  5
AF
330
1F
100
AcDbEntity
  8
0
  6
Continuous
 62
     7
370
    15
100
AcDbCircle
 10
-39.9895307522
 20
-22.3353829576
 30
0.0
 40
19.50755664374233
100
AcDbArc
 50
110.1373018823
 51
120.6872197195
  0
ARC
  5
B0
330
1F
100
AcDbEntity
  8
0
  6
Continuous
 62
     7
370
    15
100
AcDbCircle
 10
0.0
 20
0.0
 30
0.0
 40
50.25370563375133
100
AcDbArc
 50
186.351607753
 51
187.4945460932
  0
ARC
  5
B1
330
1F
100
AcDbEntity
  8
0
  6
Continuous
 62
     7
370
    15
100
AcDbCircle
 10
-44.1727146762
 20
12.1162362053
 30
0.0
 40
19.5075566437423
100
AcDbArc
 50
253.1589341266
 51
263.7088519639
  0
ARC
  5
B2
330
1F
100
AcDbEntity
  8
0
  6
Continuous
 62
     7
370
    15
100
AcDbCircle
 10
0.0
 20
0.0
 30
0.0
 40
46.87812843081574
100
AcDbArc
 50
188.9263647539
 51
190.4582506308
  0
ARC
  5
B3
330
1F
100
AcDbEntity
  8
0
  6
Continuous
 62
     7
370
    15
100
AcDbCircle
 10
-37.6471696308
 20
-26.0906596397
 30
0.0
 40
19.50755664374233
100
AcDbArc
 50
115.6757634208
 51
126.225681258
  0
ARC
  5
B4
330
1F
100
AcDbEntity
  8
0
  6
Continuous
 62
     7
370
    15
100
AcDbCircle
 10
0.0
 20
0.0
 30
0.0
 40
50.25370563375133
100
AcDbArc
 50
191.8900692915
 51
193.0330076316
  0
ARC
  5
B5
330
1F
100
AcDbEntity
  8
0
  6
Continuous
 62
     7
370
    15
100
AcDbCircle
 10
-45.1358857715
 20
7.796391298
 30
0.0
 40
19.5075566437423
100
AcDbArc
 50
258.6973956651
 51
269.2473135023
  0
ARC
  5
B6
330
1F
100
AcDbEntity
  8
0
  6
Continuous
 62
     7
370
    15
100
AcDbCircle
 10
0.0
 20
0.0
 30
0.0
 40
46.87812843081572
100
AcDbArc
 50
194.4648262923
 51
195.9967121692
  0
ARC
  5
B7
330
1F
100
AcDbEntity
  8
0
  6
Continuous
 62
     7
370
    15
100
AcDbCircle
 10
-34.9533070301
 20
-29.6023348624
 30
0.0
 40
19.50755664374233
100
AcDbArc
 50
121.2142249592
 51
131.7641427965
  0
ARC
  5
B8
330
1F
100
AcDbEntity
  8
0
  6
Continuous
 62
     7
370
    15
100
AcDbCircle
 10
0.0
 20
0.0
 30
0.0
 40
50.25370563375132
100
AcDbArc
 50
197.4285308299
 51
198.5714691701
  0
ARC
  5
B9
330
1F
100
AcDbEntity
  8
0
  6
Continuous
 62
     7
370
    15
100
AcDbCircle
 10
-45.6776352625
 20
3.4037535858
 30
0.0
 40
19.5075566437423
100
AcDbArc
 50
264.2358572035
 51
274.7857750408
  0
ARC
  5
BA
330
1F
100
AcDbEntity
  8
0
  6
Continuous
 62
     7
370
    15
100
AcDbCircle
 10
0.0
 20
0.0
 30
0.0
 40
46.87812843081572
100
AcDbArc
 50
200.0032878308
 51
201.5351737077
  0
ARC
  5
BB
330
1F
100
AcDbEntity
  8
0
  6
Continuous
 62
     7
370
    15
100
AcDbCircle
 10
-31.9330948192
 20
-32.8376210605
 30
0.0
 40
19.50755664374232
100
AcDbArc
 50
126.7526864977
 51
137.3026043349
  0
ARC
  5
BC
330
1F
100
AcDbEntity
  8
0
  6
Continuous
 62
     7
370
    15
100
AcDbCircle
 10
0.0
 20
0.0
 30
0.0
 40
50.25370563375131
100
AcDbArc
 50
202.9669923684
 51
204.1099307086
  0
ARC
  5
BD
330
1F
100
AcDbEntity
  8
0
  6
Continuous
 62
     7
370
    15
100
AcDbCircle
 10
-45.7929049802
 20
-1.0206640566
 30
0.0
 40
19.5075566437423
100
AcDbArc
 50
269.774318742
 51
280.3242365792
  0
ARC
  5
BE
330
1F
100
AcDbEntity
  8
0
  6
Continuous
 62
     7
370
    15
100
AcDbCircle
 10
0.0
 20
0.0
 30
0.0
 40
46.87812843081574
100
AcDbArc
 50
205.5417493693
 51
207.0736352461
  0
ARC
  5
BF
330
1F
100
AcDbEntity
  8
0
  6
Continuous
 62
     7
370
    15
100
AcDbCircle
 10
-28.614731906
 20
-35.7663112383
 30
0.0
 40
19.50755664374233
100
AcDbArc
 50
132.2911480361
 51
142.8410658734
  0
ARC
  5
C0
330
1F
100
AcDbEntity
  8
0
  6
Continuous
 62
     7
370
    15
100
AcDbCircle
 10
0.0
 20
0.0
 30
0.0
 40
50.25370563375134
100
AcDbArc
 50
208.5054539068
 51
209.648392247
  0
ARC
  5
C1
330
1F
100
AcDbEntity
  8
0
  6
Continuous
 62
     7
370
    15
100
AcDbCircle
 10
-45.4806186824
 20
-5.4355520337
 30
0.0
 40
19.5075566437423
100
AcDbArc
 50
275.3127802805
 51
285.8626981177
  0
ARC
  5
C2
330
1F
100
AcDbEntity
  8
0
  6
Continuous
 62
     7
370
    15
100
AcDbCircle
 10
0.0
 20
0.0
 30
0.0
 40
46.87812843081574
100
AcDbArc
 50
211.0802109077
 51
212.6120967846
  0
ARC
  5
C3
330
1F
100
AcDbEntity
  8
0
  6
Continuous
 62
     7
370
    15
100
AcDbCircle
 10
-25.0292009507
 20
-38.3610610048
 30
0.0
 40
19.50755664374232
100
AcDbArc
 50
137.8296095746
 51
148.3795274118
  0
ARC
  5
C4
330
1F
100
AcDbEntity
  8
0
  6
Continuous
 62
     7
370
    15
100
AcDbCircle
 10
0.0
 20
0.0
 30
0.0
 40
50.25370563375132
100
AcDbArc
 50
214.0439154453
 51
215.1868537855
  0
ARC
  5
C5
330
1F
100
AcDbEntity
  8
0
  6
Continuous
 62
     7
370
    15
100
AcDbCircle
 10
-44.743692102
 20
-9.7996897259
 30
0.0
 40
19.50755664374229
100
AcDbArc
 50
280.8512418189
 51
291.4011596562
  0
ARC
  5
C6
330
1F
100
AcDbEntity
  8
0
  6
Continuous
 62
     7
370
    15
100
AcDbCircle
 10
0.0
 20
0.0
 30
0.0
 40
46.87812843081572
100
AcDbArc
 50
216.6186724462
 51
218.1505583231
  0
ARC
  5
C7
330
1F
100
AcDbEntity
  8
0
  6
Continuous
 62
     7
370
    15
100
AcDbCircle
 10
-21.2099790899
 20
-40.5976438805
 30
0.0
 40
19.50755664374231
100
AcDbArc
 50
143.3680711131
 51
153.9179889503
  0
ARC
  5
C8
330
1F
100
AcDbEntity
  8
0
  6
Continuous
 62
     7
370
    15
100
AcDbCircle
 10
0.0
 20
0.0
 30
0.0
 40
50.25370563375131
100
AcDbArc
 50
219.5823769838
 51
220.7253153239
  0
ARC
  5
C9
330
1F
100
AcDbEntity
  8
0
  6
Continuous
 62
     7
370
    15
100
AcDbCircle
 10
-43.589005724
 20
-14.0723303556
 30
0.0
 40
19.5075566437423
100
AcDbArc
 50
286.3897033574
 51
296.9396211946
  0
ARC
  5
CA
330
1F
100
AcDbEntity
  8
0
  6
Continuous
 62
     7
370
    15
100
AcDbCircle
 10
0.0
 20
0.0
 30
0.0
 40
46.87812843081571
100
AcDbArc
 50
222.1571339846
 51
223.6890198615
  0
ARC
  5
CB
330
1F
100
AcDbEntity
  8
0
  6
Continuous
 62
     7
370
    15
100
AcDbCircle
 10
-17.1927253691
 20
-42.4551774938
 30
0.0
 40
19.50755664374232
100
AcDbArc
 50
148.9065326515
 51
159.4564504888
  0
ARC
  5
CC
330
1F
100
AcDbEntity
  8
0
  6
Continuous
 62
     7
370
    15
100
AcDbCircle
 10
0.0
 20
0.0
 30
0.0
 40
50.25370563375133
100
AcDbArc
 50
225.1208385222
 51
226.2637768624
  0
ARC
  5
CD
330
1F
100
AcDbEntity
  8
0
  6
Continuous
 62
     7
370
    15
100
AcDbCircle
 10
-42.027340544
 20
-18.2135814283
 30
0.0
 40
19.50755664374229
100
AcDbArc
 50
291.9281648959
 51
302.4780827331
  0
ARC
  5
CE
330
1F
100
AcDbEntity
  8
0
  6
Continuous
 62
     7
370
    15
100
AcDbCircle
 10
0.0
 20
0.0
 30
0.0
 40
46.87812843081572
100
AcDbArc
 50
227.6955955231
 51
229.2274814
  0
ARC
  5
CF
330
1F
100
AcDbEntity
  8
0
  6
Continuous
 62
     7
370
    15
100
AcDbCircle
 10
-13.0149478038
 20
-43.9163185537
 30
0.0
 40
19.50755664374232
100
AcDbArc
 50
154.44499419
 51
164.9949120272
  0
ARC
  5
D0
330
1F
100
AcDbEntity
  8
0
  6
Continuous
 62
     7
370
    15
100
AcDbCircle
 10
0.0
 20
0.0
 30
0.0
 40
50.25370563375132
100
AcDbArc
 50
230.6593000607
 51
231.8022384009
  0
ARC
  5
D1
330
1F
100
AcDbEntity
  8
0
  6
Continuous
 62
     7
370
    15
100
AcDbCircle
 10
-40.073277409
 20
-22.1847771986
 30
0.0
 40
19.50755664374232
100
AcDbArc
 50
297.4666264343
 51
308.0165442715
  0
ARC
  5
D2
330
1F
100
AcDbEntity
  8
0
  6
Continuous
 62
     7
370
    15
100
AcDbCircle
 10
0.0
 20
0.0
 30
0.0
 40
46.87812843081573
100
AcDbArc
 50
233.2340570616
 51
234.7659429384
  0
ARC
  5
D3
330
1F
100
AcDbEntity
  8
0
  6
Continuous
 62
     7
370
    15
100
AcDbCircle
 10
-8.7156531776
 20
-44.9674247799
 30
0.0
 40
19.50755664374233
100
AcDbArc
 50
159.9834557285
 51
170.5333735657
  0
ARC
  5
D4
330
1F
100
AcDbEntity
  8
0
  6
Continuous
 62
     7
370
    15
100
AcDbCircle
 10
0.0
 20
0.0
 30
0.0
 40
50.25370563375134
100
AcDbArc
 50
236.1977615991
 51
237.3406999393
  0
ARC
  5
D5
330
1F
100
AcDbEntity
  8
0
  6
Continuous
 62
     7
370
    15
100
AcDbCircle
 10
-37.7450608799
 20
-25.9488396816
 30
0.0
 40
19.5075566437423
100
AcDbArc
 50
303.0050879728
 51
313.55500581
  0
ARC
  5
D6
330
1F
100
AcDbEntity
  8
0
  6
Continuous
 62
     7
370
    15
100
AcDbCircle
 10
0.0
 20
0.0
 30
0.0
 40
46.87812843081571
100
AcDbArc
 50
238.7725186
 51
240.3044044769
  0
ARC
  5
D7
330
1F
100
AcDbEntity
  8
0
  6
Continuous
 62
     7
370
    15
100
AcDbCircle
 10
-4.334982846
 20
-45.5986822767
 30
0.0
 40
19.50755664374233
100
AcDbArc
 50
165.5219172669
 51
176.0718351041
  0
ARC
  5
D8
330
1F
100
AcDbEntity
  8
0
  6
Continuous
 62
     7
370
    15
100
AcDbCircle
 10
0.0
 20
0.0
 30
0.0
 40
50.25370563375133
100
AcDbArc
 50
241.7362231376
 51
242.8791614778
  0
ARC
  5
D9
330
1F
100
AcDbEntity
  8
0
  6
Continuous
 62
     7
370
    15
100
AcDbCircle
 10
-35.0644288873
 20
-29.4706248399
 30
0.0
 40
19.5075566437423
100
AcDbArc
 50
308.5435495112
 51
319.0934673485
  0
ARC
  5
DA
330
1F
100
AcDbEntity
  8
0
  6
Continuous
 62
     7
370
    15
100
AcDbCircle
 10
0.0
 20
0.0
 30
0.0
 40
46.87812843081572
100
AcDbArc
 50
244.3109801385
 51
245.8428660154
  0
ARC
  5
DB
330
1F
100
AcDbEntity
  8
0
  6
Continuous
 62
     7
370
    15
100
AcDbCircle
 10
0.0861620525
 20
-45.804197163
 30
0.0
 40
19.50755664374231
100
AcDbArc
 50
171.0603788054
 51
181.6102966426
  0
ARC
  5
DC
330
1F
100
AcDbEntity
  8
0
  6
Continuous
 62
     7
370
    15
100
AcDbCircle
 10
0.0
 20
0.0
 30
0.0
 40
50.25370563375132
100
AcDbArc
 50
247.2746846761
 51
248.4176230162
  0
ARC
  5
DD
330
1F
100
AcDbEntity
  8
0
  6
Continuous
 62
     7
370
    15
100
AcDbCircle
 10
-32.0564097697
 20
-32.7172507146
 30
0.0
 40
19.50755664374229
100
AcDbArc
 50
314.0820110497
 51
324.6319288869
  0
ARC
  5
DE
330
1F
100
AcDbEntity
  8
0
  6
Continuous
 62
     7
370
    15
100
AcDbCircle
 10
0.0
 20
0.0
 30
0.0
 40
46.87812843081572
100
AcDbArc
 50
249.8494416769
 51
251.3813275538
  0
ARC
  5
DF
330
1F
100
AcDbEntity
  8
0
  6
Continuous
 62
     7
370
    15
100
AcDbCircle
 10
4.5065024791
 20
-45.5820506017
 30
0.0
 40
19.50755664374231
100
AcDbArc
 50
176.5988403438
 51
187.1487581811
  0
ARC
  5
E0
330
1F
100
AcDbEntity
  8
0
  6
Continuous
 62
     7
370
    15
100
AcDbCircle
 10
0.0
 20
0.0
 30
0.0
 40
50.25370563375132
100
AcDbArc
 50
252.8131462145
 51
253.9560845547
  0
ARC
  5
E1
330
1F
100
AcDbEntity
  8
0
  6
Continuous
 62
     7
370
    15
100
AcDbCircle
 10
-28.7490885912
 20
-35.6584044346
 30
0.0
 40
19.50755664374231
100
AcDbArc
 50
319.6204725882
 51
330.1703904254
  0
ARC
  5
E2
330
1F
100
AcDbEntity
  8
0
  6
Continuous
 62
     7
370
    15
100
AcDbCircle
 10
0.0
 20
0.0
 30
0.0
 40
46.87812843081572
100
AcDbArc
 50
255.3879032154
 51
256.9197890923
  0
ARC
  5
E3
330
1F
100
AcDbEntity
  8
0
  6
Continuous
 62
     7
370
    15
100
AcDbCircle
 10
8.8847669063
 20
-44.9343167153
 30
0.0
 40
19.5075566437423
100
AcDbArc
 50
182.1373018823
 51
192.6872197195
  0
ARC
  5
E4
330
1F
100
AcDbEntity
  8
0
  6
Continuous
 62
     7
370
    15
100
AcDbCircle
 10
0.0
 20
0.0
 30
0.0
 40
50.25370563375133
100
AcDbArc
 50
258.351607753
 51
259.4945460932
  0
ARC
  5
E5
330
1F
100
AcDbEntity
  8
0
  6
Continuous
 62
     7
370
    15
100
AcDbCircle
 10
-25.1733449186
 20
-38.2666252399
 30
0.0
 40
19.5075566437423
100
AcDbArc
 50
325.1589341266
 51
335.7088519639
  0
ARC
  5
E6
330
1F
100
AcDbEntity
  8
0
  6
Continuous
 62
     7
370
    15
100
AcDbCircle
 10
0.0
 20
0.0
 30
0.0
 40
46.87812843081572
100
AcDbArc
 50
260.9263647539
 51
262.4582506308
  0
ARC
  5
E7
330
1F
100
AcDbEntity
  8
0
  6
Continuous
 62
     7
370
    15
100
AcDbCircle
 10
13.1800766587
 20
-43.8670432206
 30
0.0
 40
19.5075566437423
100
AcDbArc
 50
187.6757634208
 51
198.225681258
  0
ARC
  5
E8
330
1F
100
AcDbEntity
  8
0
  6
Continuous
 62
     7
370
    15
100
AcDbCircle
 10
0.0
 20
0.0
 30
0.0
 40
50.25370563375132
100
AcDbArc
 50
263.8900692915
 51
265.0330076316
  0
ARC
  5
E9
330
1F
100
AcDbEntity
  8
0
  6
Continuous
 62
     7
370
    15
100
AcDbCircle
 10
-21.3625645071
 20
-40.5175608758
 30
0.0
 40
19.5075566437423
100
AcDbArc
 50
330.6973956651
 51
341.2473135023
  0
ARC
  5
EA
330
1F
100
AcDbEntity
  8
0
  6
Continuous
 62
     7
370
    15
100
AcDbCircle
 10
0.0
 20
0.0
 30
0.0
 40
46.87812843081572
100
AcDbArc
 50
266.4648262923
 51
267.9967121692
  0
ARC
  5
EB
330
1F
100
AcDbEntity
  8
0
  6
Continuous
 62
     7
370
    15
100
AcDbCircle
 10
17.3523275866
 20
-42.3901949627
 30
0.0
 40
19.50755664374232
100
AcDbArc
 50
193.2142249592
 51
203.7641427965
  0
ARC
  5
EC
330
1F
100
AcDbEntity
  8
0
  6
Continuous
 62
     7
370
    15
100
AcDbCircle
 10
0.0
 20
0.0
 30
0.0
 40
50.25370563375132
100
AcDbArc
 50
269.4285308299
 51
270.5714691701
  0
ARC
  5
ED
330
1F
100
AcDbEntity
  8
0
  6
Continuous
 62
     7
370
    15
100
AcDbCircle
 10
-17.3523275866
 20
-42.3901949627
 30
0.0
 40
19.5075566437423
100
AcDbArc
 50
336.2358572035
 51
346.7857750408
  0
ARC
  5
EE
330
1F
100
AcDbEntity
  8
0
  6
Continuous
 62
     7
370
    15
100
AcDbCircle
 10
0.0
 20
0.0
 30
0.0
 40
46.87812843081572
100
AcDbArc
 50
272.0032878308
 51
273.5351737077
  0
ARC
  5
EF
330
1F
100
AcDbEntity
  8
0
  6
Continuous
 62
     7
370
    15
100
AcDbCircle
 10
21.3625645071
 20
-40.5175608758
 30
0.0
 40
19.50755664374232
100
AcDbArc
 50
198.7526864977
 51
209.3026043349
  0
ARC
  5
F0
330
1F
100
AcDbEntity
  8
0
  6
Continuous
 62
     7
370
    15
100
AcDbCircle
 10
0.0
 20
0.0
 30
0.0
 40
50.25370563375132
100
AcDbArc
 50
274.9669923684
 51
276.1099307086
  0
ARC
  5
F1
330
1F
100
AcDbEntity
  8
0
  6
Continuous
 62
     7
370
    15
100
AcDbCircle
 10
-13.1800766587
 20
-43.8670432206
 30
0.0
 40
19.50755664374231
100
AcDbArc
 50
341.774318742
 51
352.3242365792
  0
ARC
  5
F2
330
1F
100
AcDbEntity
  8
0
  6
Continuous
 62
     7
370
    15
100
AcDbCircle
 10
0.0
 20
0.0
 30
0.0
 40
46.87812843081574
100
AcDbArc
 50
277.5417493693
 51
279.0736352461
  0
ARC
  5
F3
330
1F
100
AcDbEntity
  8
0
  6
Continuous
 62
     7
370
    15
100
AcDbCircle
 10
25.1733449186
 20
-38.2666252399
 30
0.0
 40
19.50755664374232
100
AcDbArc
 50
204.2911480362
 51
214.8410658734
  0
ARC
  5
F4
330
1F
100
AcDbEntity
  8
0
  6
Continuous
 62
     7
370
    15
100
AcDbCircle
 10
0.0
 20
0.0
 30
0.0
 40
50.25370563375132
100
AcDbArc
 50
280.5054539068
 51
281.648392247
  0
ARC
  5
F5
330
1F
100
AcDbEntity
  8
0
  6
Continuous
 62
     7
370
    15
100
AcDbCircle
 10
-8.8847669063
 20
-44.9343167153
 30
0.0
 40
19.5075566437423
100
AcDbArc
 50
347.3127802805
 51
357.8626981177
  0
ARC
  5
F6
330
1F
100
AcDbEntity
  8
0
  6
Continuous
 62
     7
370
    15
100
AcDbCircle
 10
0.0
 20
0.0
 30
0.0
 40
46.87812843081571
100
AcDbArc
 50
283.0802109077
 51
284.6120967846
  0
ARC
  5
F7
330
1F
100
AcDbEntity
  8
0
  6
Continuous
 62
     7
370
    15
100
AcDbCircle
 10
28.7490885912
 20
-35.6584044346
 30
0.0
 40
19.50755664374231
100
AcDbArc
 50
209.8296095746
 51
220.3795274118
  0
ARC
  5
F8
330
1F
100
AcDbEntity
  8
0
  6
Continuous
 62
     7
370
    15
100
AcDbCircle
 10
0.0
 20
0.0
 30
0.0
 40
50.25370563375132
100
AcDbArc
 50
286.0439154453
 51
287.1868537855
  0
ARC
  5
F9
330
1F
100
AcDbEntity
  8
0
  6
Continuous
 62
     7
370
    15
100
AcDbCircle
 10
-4.5065024791
 20
-45.5820506017
 30
0.0
 40
19.5075566437423
100
AcDbArc
 50
352.8512418189
 51
3.4011596562
  0
ARC
  5
FA
330
1F
100
AcDbEntity
  8
0
  6
Continuous
 62
     7
370
    15
100
AcDbCircle
 10
0.0
 20
0.0
 30
0.0
 40
46.87812843081573
100
AcDbArc
 50
288.6186724462
 51
290.1505583231
  0
ARC
  5
FB
330
1F
100
AcDbEntity
  8
0
  6
Continuous
 62
     7
370
    15
100
AcDbCircle
 10
32.0564097697
 20
-32.7172507146
 30
0.0
 40
19.50755664374231
100
AcDbArc
 50
215.3680711131
 51
225.9179889503
  0
ARC
  5
FC
330
1F
100
AcDbEntity
  8
0
  6
Continuous
 62
     7
370
    15
100
AcDbCircle
 10
0.0
 20
0.0
 30
0.0
 40
50.25370563375134
100
AcDbArc
 50
291.5823769838
 51
292.7253153239
  0
ARC
  5
FD
330
1F
100
AcDbEntity
  8
0
  6
Continuous
 62
     7
370
    15
100
AcDbCircle
 10
-0.0861620525
 20
-45.804197163
 30
0.0
 40
19.5075566437423
100
AcDbArc
 50
358.3897033574
 51
8.9396211946
  0
ARC
  5
FE
330
1F
100
AcDbEntity
  8
0
  6
Continuous
 62
     7
370
    15
100
AcDbCircle
 10
0.0
 20
0.0
 30
0.0
 40
46.87812843081572
100
AcDbArc
 50
294.1571339846
 51
295.6890198615
  0
ARC
  5
FF
330
1F
100
AcDbEntity
  8
0
  6
Continuous
 62
     7
370
    15
100
AcDbCircle
 10
35.0644288873
 20
-29.4706248399
 30
0.0
 40
19.50755664374232
100
AcDbArc
 50
220.9065326515
 51
231.4564504888
  0
ARC
  5
100
330
1F
100
AcDbEntity
  8
0
  6
Continuous
 62
     7
370
    15
100
AcDbCircle
 10
0.0
 20
0.0
 30
0.0
 40
50.25370563375133
100
AcDbArc
 50
297.1208385222
 51
298.2637768624
  0
ARC
  5
101
330
1F
100
AcDbEntity
  8
0
  6
Continuous
 62
     7
370
    15
100
AcDbCircle
 10
4.334982846
 20
-45.5986822767
 30
0.0
 40
19.5075566437423
100
AcDbArc
 50
3.9281648959
 51
14.4780827331
  0
ARC
  5
102
330
1F
100
AcDbEntity
  8
0
  6
Continuous
 62
     7
370
    15
100
AcDbCircle
 10
0.0
 20
0.0
 30
0.0
 40
46.87812843081573
100
AcDbArc
 50
299.6955955231
 51
301.2274814
  0
ARC
  5
103
330
1F
100
AcDbEntity
  8
0
  6
Continuous
 62
     7
370
    15
100
AcDbCircle
 10
37.7450608799
 20
-25.9488396816
 30
0.0
 40
19.50755664374233
100
AcDbArc
 50
226.44499419
 51
236.9949120272
  0
ARC
  5
104
330
1F
100
AcDbEntity
  8
0
  6
Continuous
 62
     7
370
    15
100
AcDbCircle
 10
0.0
 20
0.0
 30
0.0
 40
50.25370563375132
100
AcDbArc
 50
302.6593000607
 51
303.8022384009
  0
ARC
  5
105
330
1F
100
AcDbEntity
  8
0
  6
Continuous
 62
     7
370
    15
100
AcDbCircle
 10
8.7156531776
 20
-44.9674247799
 30
0.0
 40
19.50755664374231
100
AcDbArc
 50
9.4666264343
 51
20.0165442715
  0
ARC
  5
106
330
1F
100
AcDbEntity
  8
0
  6
Continuous
 62
     7
370
    15
100
AcDbCircle
 10
0.0
 20
0.0
 30
0.0
 40
46.87812843081572
100
AcDbArc
 50
305.2340570616
 51
306.7659429384
  0
ARC
  5
107
330
1F
100
AcDbEntity
  8
0
  6
Continuous
 62
     7
370
    15
100
AcDbCircle
 10
40.073277409
 20
-22.1847771986
 30
0.0
 40
19.50755664374232
100
AcDbArc
 50
231.9834557285
 51
242.5333735657
  0
ARC
  5
108
330
1F
100
AcDbEntity
  8
0
  6
Continuous
 62
     7
370
    15
100
AcDbCircle
 10
0.0
 20
0.0
 30
0.0
 40
50.25370563375131
100
AcDbArc
 50
308.1977615991
 51
309.3406999393
  0
ARC
  5
109
330
1F
100
AcDbEntity
  8
0
  6
Continuous
 62
     7
370
    15
100
AcDbCircle
 10
13.0149478038
 20
-43.9163185537
 30
0.0
 40
19.5075566437423
100
AcDbArc
 50
15.0050879728
 51
25.55500581
  0
ARC
  5
10A
330
1F
100
AcDbEntity
  8
0
  6
Continuous
 62
     7
370
    15
100
AcDbCircle
 10
0.0
 20
0.0
 30
0.0
 40
46.87812843081571
100
AcDbArc
 50
310.7725186
 51
312.3044044769
  0
ARC
  5
10B
330
1F
100
AcDbEntity
  8
0
  6
Continuous
 62
     7
370
    15
100
AcDbCircle
 10
42.027340544
 20
-18.2135814283
 30
0.0
 40
19.50755664374232
100
AcDbArc
 50
237.5219172669
 51
248.0718351042
  0
ARC
  5
10C
330
1F
100
AcDbEntity
  8
0
  6
Continuous
 62
     7
370
    15
100
AcDbCircle
 10
0.0
 20
0.0
 30
0.0
 40
50.25370563375132
100
AcDbArc
 50
313.7362231376
 51
314.8791614778
  0
ARC
  5
10D
330
1F
100
AcDbEntity
  8
0
  6
Continuous
 62
     7
370
    15
100
AcDbCircle
 10
17.1927253691
 20
-42.4551774938
 30
0.0
 40
19.50755664374232
100
AcDbArc
 50
20.5435495112
 51
31.0934673485
  0
ARC
  5
10E
330
1F
100
AcDbEntity
  8
0
  6
Continuous
 62
     7
370
    15
100
AcDbCircle
 10
0.0
 20
0.0
 30
0.0
 40
46.87812843081572
100
AcDbArc
 50
316.3109801385
 51
317.8428660154
  0
ARC
  5
10F
330
1F
100
AcDbEntity
  8
0
  6
Continuous
 62
     7
370
    15
100
AcDbCircle
 10
43.589005724
 20
-14.0723303556
 30
0.0
 40
19.50755664374232
100
AcDbArc
 50
243.0603788054
 51
253.6102966426
  0
ARC
  5
110
330
1F
100
AcDbEntity
  8
0
  6
Continuous
 62
     7
370
    15
100
AcDbCircle
 10
0.0
 20
0.0
 30
0.0
 40
50.25370563375133
100
AcDbArc
 50
319.2746846761
 51
320.4176230162
  0
ARC
  5
111
330
1F
100
AcDbEntity
  8
0
  6
Continuous
 62
     7
370
    15
100
AcDbCircle
 10
21.2099790899
 20
-40.5976438805
 30
0.0
 40
19.50755664374231
100
AcDbArc
 50
26.0820110497
 51
36.6319288869
  0
ARC
  5
112
330
1F
100
AcDbEntity
  8
0
  6
Continuous
 62
     7
370
    15
100
AcDbCircle
 10
0.0
 20
0.0
 30
0.0
 40
46.87812843081572
100
AcDbArc
 50
321.8494416769
 51
323.3813275538
  0
ARC
  5
113
330
1F
100
AcDbEntity
  8
0
  6
Continuous
 62
     7
370
    15
100
AcDbCircle
 10
44.743692102
 20
-9.7996897259
 30
0.0
 40
19.5075566437423
100
AcDbArc
 50
248.5988403438
 51
259.1487581811
  0
ARC
  5
114
330
1F
100
AcDbEntity
  8
0
  6
Continuous
 62
     7
370
    15
100
AcDbCircle
 10
0.0
 20
0.0
 30
0.0
 40
50.25370563375131
100
AcDbArc
 50
324.8131462145
 51
325.9560845547
  0
ARC
  5
115
330
1F
100
AcDbEntity
  8
0
  6
Continuous
 62
     7
370
    15
100
AcDbCircle
 10
25.0292009507
 20
-38.3610610048
 30
0.0
 40
19.50755664374231
100
AcDbArc
 50
31.6204725882
 51
42.1703904254
  0
ARC
  5
116
330
1F
100
AcDbEntity
  8
0
  6
Continuous
 62
     7
370
    15
100
AcDbCircle
 10
0.0
 20
0.0
 30
0.0
 40
46.87812843081571
100
AcDbArc
 50
327.3879032154
 51
328.9197890923
  0
ARC
  5
117
330
1F
100
AcDbEntity
  8
0
  6
Continuous
 62
     7
370
    15
100
AcDbCircle
 10
45.4806186824
 20
-5.4355520337
 30
0.0
 40
19.50755664374234
100
AcDbArc
 50
254.1373018823
 51
264.6872197195
  0
ARC
  5
118
330
1F
100
AcDbEntity
  8
0
  6
Continuous
 62
     7
370
    15
100
AcDbCircle
 10
0.0
 20
0.0
 30
0.0
 40
50.25370563375134
100
AcDbArc
 50
330.351607753
 51
331.4945460932
  0
ARC
  5
119
330
1F
100
AcDbEntity
  8
0
  6
Continuous
 62
     7
370
    15
100
AcDbCircle
 10
28.614731906
 20
-35.7663112383
 30
0.0
 40
19.5075566437423
100
AcDbArc
 50
37.1589341266
 51
47.7088519639
  0
ARC
  5
11A
330
1F
100
AcDbEntity
  8
0
  6
Continuous
 62
     7
370
    15
100
AcDbCircle
 10
0.0
 20
0.0
 30
0.0
 40
46.87812843081571
100
AcDbArc
 50
332.9263647539
 51
334.4582506308
  0
ARC
  5
11B
330
1F
100
AcDbEntity
  8
0
  6
Continuous
 62
     7
370
    15
100
AcDbCircle
 10
45.7929049802
 20
-1.0206640566
 30
0.0
 40
19.5075566437423
100
AcDbArc
 50
259.6757634208
 51
270.225681258
  0
ARC
  5
11C
330
1F
100
AcDbEntity
  8
0
  6
Continuous
 62
     7
370
    15
100
AcDbCircle
 10
0.0
 20
0.0
 30
0.0
 40
50.25370563375133
100
AcDbArc
 50
335.8900692915
 51
337.0330076316
  0
ARC
  5
11D
330
1F
100
AcDbEntity
  8
0
  6
Continuous
 62
     7
370
    15
100
AcDbCircle
 10
31.9330948192
 20
-32.8376210605
 30
0.0
 40
19.5075566437423
100
AcDbArc
 50
42.6973956651
 51
53.2473135023
  0
ARC
  5
11E
330
1F
100
AcDbEntity
  8
0
  6
Continuous
 62
     7
370
    15
100
AcDbCircle
 10
0.0
 20
0.0
 30
0.0
 40
46.87812843081572
100
AcDbArc
 50
338.4648262923
 51
339.9967121692
  0
ARC
  5
11F
330
1F
100
AcDbEntity
  8
0
  6
Continuous
 62
     7
370
    15
100
AcDbCircle
 10
45.6776352625
 20
3.4037535858
 30
0.0
 40
19.50755664374234
100
AcDbArc
 50
265.2142249592
 51
275.7641427965
  0
ARC
  5
120
330
1F
100
AcDbEntity
  8
0
  6
Continuous
 62
     7
370
    15
100
AcDbCircle
 10
0.0
 20
0.0
 30
0.0
 40
50.25370563375132
100
AcDbArc
 50
341.4285308299
 51
342.5714691701
  0
ARC
  5
121
330
1F
100
AcDbEntity
  8
0
  6
Continuous
 62
     7
370
    15
100
AcDbCircle
 10
34.9533070301
 20
-29.6023348624
 30
0.0
 40
19.50755664374231
100
AcDbArc
 50
48.2358572035
 51
58.7857750408
  0
ARC
  5
122
330
1F
100
AcDbEntity
  8
0
  6
Continuous
 62
     7
370
    15
100
AcDbCircle
 10
0.0
 20
0.0
 30
0.0
 40
46.87812843081572
100
AcDbArc
 50
344.0032878308
 51
345.5351737077
  0
ARC
  5
123
330
1F
100
AcDbEntity
  8
0
  6
Continuous
 62
     7
370
    15
100
AcDbCircle
 10
45.1358857715
 20
7.796391298
 30
0.0
 40
19.50755664374232
100
AcDbArc
 50
270.7526864977
 51
281.3026043349
  0
ARC
  5
124
330
1F
100
AcDbEntity
  8
0
  6
Continuous
 62
     7
370
    15
100
AcDbCircle
 10
0.0
 20
0.0
 30
0.0
 40
50.25370563375132
100
AcDbArc
 50
346.9669923684
 51
348.1099307086
  0
ARC
  5
125
330
1F
100
AcDbEntity
  8
0
  6
Continuous
 62
     7
370
    15
100
AcDbCircle
 10
37.6471696308
 20
-26.0906596397
 30
0.0
 40
19.5075566437423
100
AcDbArc
 50
53.774318742
 51
64.3242365792
  0
ARC
  5
126
330
1F
100
AcDbEntity
  8
0
  6
Continuous
 62
     7
370
    15
100
AcDbCircle
 10
0.0
 20
0.0
 30
0.0
 40
46.87812843081571
100
AcDbArc
 50
349.5417493693
 51
351.0736352461
  0
ARC
  5
127
330
1F
100
AcDbEntity
  8
0
  6
Continuous
 62
     7
370
    15
100
AcDbCircle
 10
44.1727146762
 20
12.1162362053
 30
0.0
 40
19.5075566437423
100
AcDbArc
 50
276.2911480362
 51
286.8410658734
  0
ARC
  5
128
330
1F
100
AcDbEntity
  8
0
  6
Continuous
 62
     7
370
    15
100
AcDbCircle
 10
0.0
 20
0.0
 30
0.0
 40
50.25370563375132
100
AcDbArc
 50
352.5054539068
 51
353.648392247
  0
ARC
  5
129
330
1F
100
AcDbEntity
  8
0
  6
Continuous
 62
     7
370
    15
100
AcDbCircle
 10
39.9895307522
 20
-22.3353829576
 30
0.0
 40
19.5075566437423
100
AcDbArc
 50
59.3127802805
 51
69.8626981177
  0
ARC
  5
12A
330
1F
100
AcDbEntity
  8
0
  6
Continuous
 62
     7
370
    15
100
AcDbCircle
 10
0.0
 20
0.0
 30
0.0
 40
46.87812843081571
100
AcDbArc
 50
355.0802109077
 51
356.6120967846
  0
ARC
  5
12B
330
1F
100
AcDbEntity
  8
0
  6
Continuous
 62
     7
370
    15
100
AcDbCircle
 10
42.7971148457
 20
16.3229550797
 30
0.0
 40
19.5075566437423
100
AcDbArc
 50
281.8296095746
 51
292.3795274118
  0
ARC
  5
12C
330
1F
100
AcDbEntity
  8
0
  6
Continuous
 62
     7
370
    15
100
AcDbCircle
 10
0.0
 20
0.0
 30
0.0
 40
50.25370563375131
100
AcDbArc
 50
358.0439154453
 51
359.1868537855
  0
ARC
  5
12D
330
1F
100
AcDbEntity
  8
0
  6
Continuous
 62
     7
370
    15
100
AcDbCircle
 10
41.9585203996
 20
-18.3715668228
 30
0.0
 40
19.5075566437423
100
AcDbArc
 50
64.8512418189
 51
75.4011596562
  0
ARC
  5
12E
330
1F
100
AcDbEntity
  8
0
  6
Continuous
 62
     7
370
    15
100
AcDbCircle
 10
0.0
 20
0.0
 30
0.0
 40
46.87812843081573
100
AcDbArc
 50
0.6186724462
 51
2.1505583231
  0
ARC
  5
12F
330
1F
100
AcDbEntity
  8
0
  6
Continuous
 62
     7
370
    15
100
AcDbCircle
 10
41.0219298849
 20
20.3772709204
 30
0.0
 40
19.5075566437423
100
AcDbArc
 50
287.3680711131
 51
297.9179889503
  0
ARC
  5
130
330
1F
100
AcDbEntity
  8
0
  6
Continuous
 62
     7
370
    15
100
AcDbCircle
 10
0.0
 20
0.0
 30
0.0
 40
50.25370563375132
100
AcDbArc
 50
3.5823769838
 51
4.7253153239
  0
ARC
  5
131
330
1F
100
AcDbEntity
  8
0
  6
Continuous
 62
     7
370
    15
100
AcDbCircle
 10
43.535754647
 20
-14.2362203186
 30
0.0
 40
19.50755664374232
100
AcDbArc
 50
70.3897033574
 51
80.9396211946
  0
ARC
  5
132
330
1F
100
AcDbEntity
  8
0
  6
Continuous
 62
     7
370
    15
100
AcDbCircle
 10
0.0
 20
0.0
 30
0.0
 40
46.87812843081572
100
AcDbArc
 50
6.1571339846
 51
7.6890198615
  0
ARC
  5
133
330
1F
100
AcDbEntity
  8
0
  6
Continuous
 62
     7
370
    15
100
AcDbCircle
 10
38.8637342175
 20
24.241329673
 30
0.0
 40
19.50755664374231
100
AcDbArc
 50
292.9065326515
 51
303.4564504888
  0
ARC
  5
134
330
1F
100
AcDbEntity
  8
0
  6
Continuous
 62
     7
370
    15
100
AcDbCircle
 10
0.0
 20
0.0
 30
0.0
 40
50.25370563375132
100
AcDbArc
 50
9.1208385222
 51
10.2637768624
  0
ARC
  5
135
330
1F
100
AcDbEntity
  8
0
  6
Continuous
 62
     7
370
    15
100
AcDbCircle
 10
44.7065072835
 20
-9.9679540609
 30
0.0
 40
19.50755664374231
100
AcDbArc
 50
75.9281648959
 51
86.4780827331
  0
ARC
  5
136
330
1F
100
AcDbEntity
  8
0
  6
Continuous
 62
     7
370
    15
100
AcDbCircle
 10
0.0
 20
0.0
 30
0.0
 40
46.8781284308157
100
AcDbArc
 50
11.6955955231
 51
13.2274814
  0
ARC
  5
137
330
1F
100
AcDbEntity
  8
0
  6
Continuous
 62
     7
370
    15
100
AcDbCircle
 10
36.342678335
 20
27.8790536619
 30
0.0
 40
19.5075566437423
100
AcDbArc
 50
298.44499419
 51
308.9949120272
  0
ARC
  5
138
330
1F
100
AcDbEntity
  8
0
  6
Continuous
 62
     7
370
    15
100
AcDbCircle
 10
0.0
 20
0.0
 30
0.0
 40
50.25370563375132
100
AcDbArc
 50
14.6593000607
 51
15.8022384009
  0
ARC
  5
139
330
1F
100
AcDbEntity
  8
0
  6
Continuous
 62
     7
370
    15
100
AcDbCircle
 10
45.4598473069
 20
-5.6066197019
 30
0.0
 40
19.50755664374231
100
AcDbArc
 50
81.4666264343
 51
92.0165442715
  0
ARC
  5
13A
330
1F
100
AcDbEntity
  8
0
  6
Continuous
 62
     7
370
    15
100
AcDbCircle
 10
0.0
 20
0.0
 30
0.0
 40
46.87812843081572
100
AcDbArc
 50
17.2340570616
 51
18.7659429384
  0
ARC
  5
13B
330
1F
100
AcDbEntity
  8
0
  6
Continuous
 62
     7
370
    15
100
AcDbCircle
 10
33.4823006569
 20
31.2564784383
 30
0.0
 40
19.50755664374231
100
AcDbArc
 50
303.9834557285
 51
314.5333735657
  0
ARC
  5
13C
330
1F
100
AcDbEntity
  8
0
  6
Continuous
 62
     7
370
    15
100
AcDbCircle
 10
0.0
 20
0.0
 30
0.0
 40
50.25370563375132
100
AcDbArc
 50
20.1977615991
 51
21.3406999393
  0
ARC
  5
13D
330
1F
100
AcDbEntity
  8
0
  6
Continuous
 62
     7
370
    15
100
AcDbCircle
 10
45.7887409845
 20
-1.1929378454
 30
0.0
 40
19.50755664374231
100
AcDbArc
 50
87.0050879728
 51
97.55500581
  0
ARC
  5
13E
330
1F
100
AcDbEntity
  8
0
  6
Continuous
 62
     7
370
    15
100
AcDbCircle
 10
0.0
 20
0.0
 30
0.0
 40
46.87812843081571
100
AcDbArc
 50
22.7725186
 51
24.3044044769
  0
ARC
  5
13F
330
1F
100
AcDbEntity
  8
0
  6
Continuous
 62
     7
370
    15
100
AcDbCircle
 10
30.3093077589
 20
34.3420698972
 30
0.0
 40
19.50755664374232
100
AcDbArc
 50
309.5219172669
 51
320.0718351042
  0
ARC
  5
140
330
1F
100
AcDbEntity
  8
0
  6
Continuous
 62
     7
370
    15
100
AcDbCircle
 10
0.0
 20
0.0
 30
0.0
 40
50.25370563375132
100
AcDbArc
 50
25.7362231376
 51
26.8791614778
  0
ARC
  5
141
330
1F
100
AcDbEntity
  8
0
  6
Continuous
 62
     7
370
    15
100
AcDbCircle
 10
45.6901175246
 20
3.2318821504
 30
0.0
 40
19.50755664374232
100
AcDbArc
 50
92.5435495112
 51
103.0934673485
  0
ARC
  5
142
330
1F
100
AcDbEntity
  8
0
  6
Continuous
 62
     7
370
    15
100
AcDbCircle
 10
0.0
 20
0.0
 30
0.0
 40
46.87812843081572
100
AcDbArc
 50
28.3109801385
 51
29.8428660154
  0
ARC
  5
143
330
1F
100
AcDbEntity
  8
0
  6
Continuous
 62
     7
370
    15
100
AcDbCircle
 10
26.8533250208
 20
37.1070187023
 30
0.0
 40
19.5075566437423
100
AcDbArc
 50
315.0603788054
 51
325.6102966426
  0
ARC
  5
144
330
1F
100
AcDbEntity
  8
0
  6
Continuous
 62
     7
370
    15
100
AcDbCircle
 10
0.0
 20
0.0
 30
0.0
 40
50.25370563375132
100
AcDbArc
 50
31.2746846761
 51
32.4176230162
  0
ARC
  5
145
330
1F
100
AcDbEntity
  8
0
  6
Continuous
 62
     7
370
    15
100
AcDbCircle
 10
45.1648977479
 20
7.6265269333
 30
0.0
 40
19.5075566437423
100
AcDbArc
 50
98.0820110497
 51
108.6319288869
  0
ARC
  5
146
330
1F
100
AcDbEntity
  8
0
  6
Continuous
 62
     7
370
    15
100
AcDbCircle
 10
0.0
 20
0.0
 30
0.0
 40
46.87812843081571
100
AcDbArc
 50
33.8494416769
 51
35.3813275538
  0
ARC
  5
147
330
1F
100
AcDbEntity
  8
0
  6
Continuous
 62
     7
370
    15
100
AcDbCircle
 10
23.1466200221
 20
39.5255092718
 30
0.0
 40
19.5075566437423
100
AcDbArc
 50
320.5988403438
 51
331.1487581811
  0
ARC
  5
148
330
1F
100
AcDbEntity
  8
0
  6
Continuous
 62
     7
370
    15
100
AcDbCircle
 10
0.0
 20
0.0
 30
0.0
 40
50.25370563375132
100
AcDbArc
 50
36.8131462145
 51
37.9560845547
  0
ARC
  5
149
330
1F
100
AcDbEntity
  8
0
  6
Continuous
 62
     7
370
    15
100
AcDbCircle
 10
44.21798549
 20
11.9499648891
 30
0.0
 40
19.5075566437423
100
AcDbArc
 50
103.6204725882
 51
114.1703904254
  0
ARC
  5
14A
330
1F
100
AcDbEntity
  8
0
  6
Continuous
 62
     7
370
    15
100
AcDbCircle
 10
0.0
 20
0.0
 30
0.0
 40
46.87812843081572
100
AcDbArc
 50
39.3879032154
 51
40.9197890923
  0
ARC
  5
14B
330
1F
100
AcDbEntity
  8
0
  6
Continuous
 62
     7
370
    15
100
AcDbCircle
 10
19.2238012688
 20
41.5749608108
 30
0.0
 40
19.50755664374232
100
AcDbArc
 50
326.1373018823
 51
336.6872197195
  0
ARC
  5
14C
330
1F
100
AcDbEntity
  8
0
  6
Continuous
 62
     7
370
    15
100
AcDbCircle
 10
0.0
 20
0.0
 30
0.0
 40
50.2537056337513
100
AcDbArc
 50
42.351607753
 51
43.4945460932
  0
ARC
  5
14D
330
1F
100
AcDbEntity
  8
0
  6
Continuous
 62
     7
370
    15
100
AcDbCircle
 10
42.8582218155
 20
16.1618292425
 30
0.0
 40
19.5075566437423
100
AcDbArc
 50
109.1589341266
 51
119.7088519639
  0
ARC
  5
14E
330
1F
100
AcDbEntity
  8
0
  6
Continuous
 62
     7
370
    15
100
AcDbCircle
 10
0.0
 20
0.0
 30
0.0
 40
46.87812843081571
100
AcDbArc
 50
44.9263647539
 51
46.4582506308
  0
ARC
  5
14F
330
1F
100
AcDbEntity
  8
0
  6
Continuous
 62
     7
370
    15
100
AcDbCircle
 10
15.1214950627
 20
43.2362381425
 30
0.0
 40
19.5075566437423
100
AcDbArc
 50
331.6757634208
 51
342.225681258
  0
ARC
  5
150
330
1F
100
AcDbEntity
  8
0
  6
Continuous
 62
     7
370
    15
100
AcDbCircle
 10
0.0
 20
0.0
 30
0.0
 40
50.25370563375132
100
AcDbArc
 50
47.8900692914
 51
49.0330076316
  0
ARC
  5
151
330
1F
100
AcDbEntity
  8
0
  6
Continuous
 62
     7
370
    15
100
AcDbCircle
 10
41.0983024713
 20
20.2227949508
 30
0.0
 40
19.5075566437423
100
AcDbArc
 50
114.6973956651
 51
125.2473135023
  0
ARC
  5
152
330
1F
100
AcDbEntity
  8
0
  6
Continuous
 62
     7
370
    15
100
AcDbCircle
 10
0.0
 20
0.0
 30
0.0
 40
46.87812843081574
100
AcDbArc
 50
50.4648262923
 51
51.9967121692
  0
ARC
  5
153
330
1F
100
AcDbEntity
  8
0
  6
Continuous
 62
     7
370
    15
100
AcDbCircle
 10
10.8780035314
 20
44.493830368
 30
0.0
 40
19.50755664374232
100
AcDbArc
 50
337.2142249592
 51
347.7641427965
  0
ARC
  5
154
330
1F
100
AcDbEntity
  8
0
  6
Continuous
 62
     7
370
    15
100
AcDbCircle
 10
0.0
 20
0.0
 30
0.0
 40
50.25370563375132
100
AcDbArc
 50
53.4285308299
 51
54.5714691701
  0
ARC
  5
155
330
1F
100
AcDbEntity
  8
0
  6
Continuous
 62
     7
370
    15
100
AcDbCircle
 10
38.9546593504
 20
24.0949458713
 30
0.0
 40
19.5075566437423
100
AcDbArc
 50
120.2358572035
 51
130.7857750408
  0
ARC
  5
156
330
1F
100
AcDbEntity
  8
0
  6
Continuous
 62
     7
370
    15
100
AcDbCircle
 10
0.0
 20
0.0
 30
0.0
 40
46.87812843081571
100
AcDbArc
 50
56.0032878308
 51
57.5351737077
  0
ARC
  5
157
330
1F
100
AcDbEntity
  8
0
  6
Continuous
 62
     7
370
    15
100
AcDbCircle
 10
6.532947012
 20
45.3359956876
 30
0.0
 40
19.50755664374232
100
AcDbArc
 50
342.7526864977
 51
353.3026043349
  0
ARC
  5
158
330
1F
100
AcDbEntity
  8
0
  6
Continuous
 62
     7
370
    15
100
AcDbCircle
 10
0.0
 20
0.0
 30
0.0
 40
50.25370563375131
100
AcDbArc
 50
58.9669923684
 51
60.1099307086
  0
ARC
  5
159
330
1F
100
AcDbEntity
  8
0
  6
Continuous
 62
     7
370
    15
100
AcDbCircle
 10
36.4473070708
 20
27.7421287743
 30
0.0
 40
19.5075566437423
100
AcDbArc
 50
125.774318742
 51
136.3242365792
  0
ARC
  5
15A
330
1F
100
AcDbEntity
  8
0
  6
Continuous
 62
     7
370
    15
100
AcDbCircle
 10
0.0
 20
0.0
 30
0.0
 40
46.87812843081571
100
AcDbArc
 50
61.5417493692
 51
63.0736352461
  0
ARC
  5
15B
330
1F
100
AcDbEntity
  8
0
  6
Continuous
 62
     7
370
    15
100
AcDbCircle
 10
2.1268941266
 20
45.7548710305
 30
0.0
 40
19.50755664374231
100
AcDbArc
 50
348.2911480362
 51
358.8410658734
  0
ARC
  5
15C
330
1F
100
AcDbEntity
  8
0
  6
Continuous
 62
     7
370
    15
100
AcDbCircle
 10
0.0
 20
0.0
 30
0.0
 40
50.25370563375132
100
AcDbArc
 50
64.5054539068
 51
65.648392247
  0
ARC
  5
15D
330
1F
100
AcDbEntity
  8
0
  6
Continuous
 62
     7
370
    15
100
AcDbCircle
 10
33.5996561053
 20
31.1302908957
 30
0.0
 40
19.50755664374231
100
AcDbArc
 50
131.3127802805
 51
141.8626981177
  0
ARC
  5
15E
330
1F
100
AcDbEntity
  8
0
  6
Continuous
 62
     7
370
    15
100
AcDbCircle
 10
0.0
 20
0.0
 30
0.0
 40
46.87812843081572
100
AcDbArc
 50
67.0802109077
 51
68.6120967846
  0
ARC
  5
15F
330
1F
100
AcDbEntity
  8
0
  6
Continuous
 62
     7
370
    15
100
AcDbCircle
 10
-2.2990169962
 20
45.7465454706
 30
0.0
 40
19.50755664374231
100
AcDbArc
 50
353.8296095746
 51
4.3795274118
  0
ARC
  5
160
330
1F
100
AcDbEntity
  8
0
  6
Continuous
 62
     7
370
    15
100
AcDbCircle
 10
0.0
 20
0.0
 30
0.0
 40
50.25370563375133
100
AcDbArc
 50
70.0439154453
 51
71.1868537855
  0
ARC
  5
161
330
1F
100
AcDbEntity
  8
0
  6
Continuous
 62
     7
370
    15
100
AcDbCircle
 10
30.4382942037
 20
34.2277978786
 30
0.0
 40
19.50755664374231
100
AcDbArc
 50
136.8512418189
 51
147.4011596562
  0
ARC
  5
162
330
1F
100
AcDbEntity
  8
0
  6
Continuous
 62
     7
370
    15
100
AcDbCircle
 10
0.0
 20
0.0
 30
0.0
 40
46.87812843081572
100
AcDbArc
 50
72.6186724462
 51
74.1505583231
  0
ARC
  5
163
330
1F
100
AcDbEntity
  8
0
  6
Continuous
 62
     7
370
    15
100
AcDbCircle
 10
-6.7034628167
 20
45.3110967414
 30
0.0
 40
19.50755664374231
100
AcDbArc
 50
359.3680711131
 51
9.9179889503
  0
ARC
  5
164
330
1F
100
AcDbEntity
  8
0
  6
Continuous
 62
     7
370
    15
100
AcDbCircle
 10
0.0
 20
0.0
 30
0.0
 40
50.25370563375132
100
AcDbArc
 50
75.5823769838
 51
76.7253153239
  0
ARC
  5
165
330
1F
100
AcDbEntity
  8
0
  6
Continuous
 62
     7
370
    15
100
AcDbCircle
 10
26.9927381503
 20
37.0057291348
 30
0.0
 40
19.5075566437423
100
AcDbArc
 50
142.3897033574
 51
152.9396211946
  0
ARC
  5
166
330
1F
100
AcDbEntity
  8
0
  6
Continuous
 62
     7
370
    15
100
AcDbCircle
 10
0.0
 20
0.0
 30
0.0
 40
46.87812843081574
100
AcDbArc
 50
78.1571339846
 51
79.6890198615
  0
ARC
  5
167
330
1F
100
AcDbEntity
  8
0
  6
Continuous
 62
     7
370
    15
100
AcDbCircle
 10
-11.0116899366
 20
44.0987037641
 30
0.0
 40
19.50755664374232
100
AcDbArc
 50
5.9506331452
 51
18.3866204088
  0
LINE
  5
168
330
1F
100
AcDbEntity
  8
0
  6
Continuous
 62
     7
370
    15
100
AcDbLine
 10
7.5
 20
50.2519225884
 30
0.0
 11
7.5
 21
144.81
 31
0.0
  0
LINE
  5
169
330
1F
100
AcDbEntity
  8
0
  6
Continuous
 62
     7
370
    15
100
AcDbLine
 10
7.5
 20
144.81
 30
0.0
 11
-7.5
 21
144.81
 31
0.0
  0
LINE
  5
16A
330
1F
100
AcDbEntity
  8
0
  6
Continuous
 62
     7
370
    15
100
AcDbLine
 10
-7.5
 20
144.81
 30
0.0
 11
-7.5
 21
50.2519225884
 31
0.0
  0
MTEXT
  5
16C
330
1F
100
AcDbEntity
  8
0
  6
Continuous
 62
     7
100
AcDbMText
 10
-50.2486447911
 20
-51.2732720254
 30
0.0
 40
4.83362
 41
0.0
 71
     1
 72
     1
  1
SolidWorks Student Edition.
  7
SLDTEXTSTYLE0
 73
     1
 44
1.0
  0
MTEXT
  5
16D
330
1F
100
AcDbEntity
  8
0
  6
Continuous
 62
     7
100
AcDbMText
 10
-50.2486447911
 20
-58.5237020254
 30
0.0
 40
4.83362
 41
0.0
 71
     1
 72
     1
  1
For Academic Use Only.
  7
SLDTEXTSTYLE0
 73
     1
 44
1.0
  0
ENDSEC
  0
SECTION
  2
OBJECTS
  0
DICTIONARY
  5
C
330
0
100
AcDbDictionary
281
     1
  3
ACAD_GROUP
350
D
  3
ACAD_LAYOUT
350
1A
  3
ACAD_MLINESTYLE
350
17
  3
ACAD_PLOTSETTINGS
350
19
  3
ACAD_PLOTSTYLENAME
350
E
  3
ACAD_SCALELIST
350
47
  0
DICTIONARY
  5
D
102
{ACAD_REACTORS
330
C
102
}
330
C
100
AcDbDictionary
281
     1
  0
DICTIONARY
  5
1A
102
{ACAD_REACTORS
330
C
102
}
330
C
100
AcDbDictionary
281
     1
  3
Layout1
350
1E
  3
Layout2
350
26
  3
Model
350
22
  0
DICTIONARY
  5
17
102
{ACAD_REACTORS
330
C
102
}
330
C
100
AcDbDictionary
281
     1
  3
Standard
350
18
  0
DICTIONARY
  5
19
102
{ACAD_REACTORS
330
C
102
}
330
C
100
AcDbDictionary
281
     1
  0
ACDBDICTIONARYWDFLT
  5
E
102
{ACAD_REACTORS
330
C
102
}
330
C
100
AcDbDictionary
281
     1
  3
Normal
350
F
100
AcDbDictionaryWithDefault
340
F
  0
DICTIONARY
  5
47
102
{ACAD_REACTORS
330
C
102
}
330
C
100
AcDbDictionary
281
     1
  3
A0
350
48
  3
A1
350
49
  3
A2
350
4A
  3
A3
350
4B
  3
A4
350
4C
  3
A5
350
4D
  3
A6
350
4E
  3
A7
350
4F
  3
A8
350
50
  3
A9
350
51
  3
B0
350
52
  3
B1
350
53
  3
B2
350
54
  3
B3
350
55
  3
B4
350
56
  3
B5
350
57
  3
B6
350
58
  3
B7
350
59
  3
B8
350
5A
  3
B9
350
5B
  3
C0
350
5C
  3
C1
350
5D
  3
C2
350
5E
  3
C3
350
5F
  3
C4
350
60
  3
C5
350
61
  3
C6
350
62
  3
C7
350
63
  3
C8
350
64
  3
C9
350
65
  3
D0
350
66
  3
D1
350
67
  3
D2
350
68
  0
LAYOUT
  5
1E
102
{ACAD_REACTORS
330
1A
102
}
330
1A
100
AcDbPlotSettings
  1

  2
none_device
  4

  6

 40
0.0
 41
0.0
 42
0.0
 43
0.0
 44
0.0
 45
0.0
 46
0.0
 47
0.0
 48
0.0
 49
0.0
140
0.0
141
0.0
142
1.0
143
1.0
 70
   688
 72
     1
 73
     0
 74
     5
  7

 75
    16
147
1.0
148
0.0
149
0.0
100
AcDbLayout
  1
Layout1
 70
     1
 71
     1
 10
0.0
 20
0.0
 11
420.0
 21
297.0
 12
0.0
 22
0.0
 32
0.0
 14
1.0000000000E+20
 24
1.0000000000E+20
 34
1.0000000000E+20
 15
-1.0000000000E+20
 25
-1.0000000000E+20
 35
-1.0000000000E+20
146
0.0
 13
0.0
 23
0.0
 33
0.0
 16
1.0
 26
0.0
 36
0.0
 17
0.0
 27
1.0
 37
0.0
 76
     0
330
1B
  0
LAYOUT
  5
26
102
{ACAD_REACTORS
330
1A
102
}
330
1A
100
AcDbPlotSettings
  1

  2
none_device
  4

  6

 40
0.0
 41
0.0
 42
0.0
 43
0.0
 44
0.0
 45
0.0
 46
0.0
 47
0.0
 48
0.0
 49
0.0
140
0.0
141
0.0
142
1.0
143
1.0
 70
   688
 72
     1
 73
     0
 74
     5
  7

 75
    16
147
1.0
148
0.0
149
0.0
100
AcDbLayout
  1
Layout2
 70
     1
 71
     2
 10
0.0
 20
0.0
 11
0.0
 21
0.0
 12
0.0
 22
0.0
 32
0.0
 14
0.0
 24
0.0
 34
0.0
 15
0.0
 25
0.0
 35
0.0
146
0.0
 13
0.0
 23
0.0
 33
0.0
 16
1.0
 26
0.0
 36
0.0
 17
0.0
 27
1.0
 37
0.0
 76
     0
330
23
  0
LAYOUT
  5
22
102
{ACAD_REACTORS
330
1A
102
}
330
1A
100
AcDbPlotSettings
  1

  2
none_device
  4
ANSI_A_(11.00_x_8.50_Inches)
  6

 40
6.35
 41
19.05
 42
6.35000508
 43
19.05000254
 44
279.4
 45
215.9
 46
133.34999746
 47
37.0949823932
 48
0.0
 49
0.0
140
0.0
141
0.0
142
0.0431397526
143
1.0
 70
  1696
 72
     0
 73
     0
 74
     0
  7

 75
     0
147
0.0179189148
148
-1300.4909072572
149
0.0
100
AcDbLayout
  1
Model
 70
     1
 71
     0
 10
0.0
 20
0.0
 11
420.0
 21
297.0
 12
0.0
 22
0.0
 32
0.0
 14
-50.2486447911
 24
-50.2537056338
 34
0.0
 15
50.2486447911
 25
144.81
 35
0.0
146
0.0
 13
0.0
 23
0.0
 33
0.0
 16
1.0
 26
0.0
 36
0.0
 17
0.0
 27
1.0
 37
0.0
 76
     0
330
1F
331
29
  0
MLINESTYLE
  5
18
102
{ACAD_REACTORS
330
17
102
}
330
17
100
AcDbMlineStyle
  2
Standard
 70
     0
  3

 62
   256
 51
90.0
 52
90.0
 71
     2
 49
0.5
 62
   256
  6
BYLAYER
 49
-0.5
 62
   256
  6
BYLAYER
  0
ACDBPLACEHOLDER
  5
F
102
{ACAD_REACTORS
330
E
102
}
330
E
  0
SCALE
  5
48
102
{ACAD_REACTORS
330
47
102
}
330
47
100
AcDbScale
 70
     0
300
1:1
140
1.0
141
1.0
290
     1
  0
SCALE
  5
49
102
{ACAD_REACTORS
330
47
102
}
330
47
100
AcDbScale
 70
     0
300
1:2
140
1.0
141
2.0
290
     0
  0
SCALE
  5
4A
102
{ACAD_REACTORS
330
47
102
}
330
47
100
AcDbScale
 70
     0
300
1:4
140
1.0
141
4.0
290
     0
  0
SCALE
  5
4B
102
{ACAD_REACTORS
330
47
102
}
330
47
100
AcDbScale
 70
     0
300
1:5
140
1.0
141
5.0
290
     0
  0
SCALE
  5
4C
102
{ACAD_REACTORS
330
47
102
}
330
47
100
AcDbScale
 70
     0
300
1:8
140
1.0
141
8.0
290
     0
  0
SCALE
  5
4D
102
{ACAD_REACTORS
330
47
102
}
330
47
100
AcDbScale
 70
     0
300
1:10
140
1.0
141
10.0
290
     0
  0
SCALE
  5
4E
102
{ACAD_REACTORS
330
47
102
}
330
47
100
AcDbScale
 70
     0
300
1:16
140
1.0
141
16.0
290
     0
  0
SCALE
  5
4F
102
{ACAD_REACTORS
330
47
102
}
330
47
100
AcDbScale
 70
     0
300
1:20
140
1.0
141
20.0
290
     0
  0
SCALE
  5
50
102
{ACAD_REACTORS
330
47
102
}
330
47
100
AcDbScale
 70
     0
300
1:30
140
1.0
141
30.0
290
     0
  0
SCALE
  5
51
102
{ACAD_REACTORS
330
47
102
}
330
47
100
AcDbScale
 70
     0
300
1:40
140
1.0
141
40.0
290
     0
  0
SCALE
  5
52
102
{ACAD_REACTORS
330
47
102
}
330
47
100
AcDbScale
 70
     0
300
1:50
140
1.0
141
50.0
290
     0
  0
SCALE
  5
53
102
{ACAD_REACTORS
330
47
102
}
330
47
100
AcDbScale
 70
     0
300
1:100
140
1.0
141
100.0
290
     0
  0
SCALE
  5
54
102
{ACAD_REACTORS
330
47
102
}
330
47
100
AcDbScale
 70
     0
300
2:1
140
2.0
141
1.0
290
     0
  0
SCALE
  5
55
102
{ACAD_REACTORS
330
47
102
}
330
47
100
AcDbScale
 70
     0
300
4:1
140
4.0
141
1.0
290
     0
  0
SCALE
  5
56
102
{ACAD_REACTORS
330
47
102
}
330
47
100
AcDbScale
 70
     0
300
8:1
140
8.0
141
1.0
290
     0
  0
SCALE
  5
57
102
{ACAD_REACTORS
330
47
102
}
330
47
100
AcDbScale
 70
     0
300
10:1
140
10.0
141
1.0
290
     0
  0
SCALE
  5
58
102
{ACAD_REACTORS
330
47
102
}
330
47
100
AcDbScale
 70
     0
300
100:1
140
100.0
141
1.0
290
     0
  0
SCALE
  5
59
102
{ACAD_REACTORS
330
47
102
}
330
47
100
AcDbScale
 70
     0
300
1/128" = 1'-0"
140
0.0078125
141
12.0
290
     0
  0
SCALE
  5
5A
102
{ACAD_REACTORS
330
47
102
}
330
47
100
AcDbScale
 70
     0
300
1/64" = 1'-0"
140
0.015625
141
12.0
290
     0
  0
SCALE
  5
5B
102
{ACAD_REACTORS
330
47
102
}
330
47
100
AcDbScale
 70
     0
300
1/32" = 1'-0"
140
0.03125
141
12.0
290
     0
  0
SCALE
  5
5C
102
{ACAD_REACTORS
330
47
102
}
330
47
100
AcDbScale
 70
     0
300
1/16" = 1'-0"
140
0.0625
141
12.0
290
     0
  0
SCALE
  5
5D
102
{ACAD_REACTORS
330
47
102
}
330
47
100
AcDbScale
 70
     0
300
3/32" = 1'-0"
140
0.09375
141
12.0
290
     0
  0
SCALE
  5
5E
102
{ACAD_REACTORS
330
47
102
}
330
47
100
AcDbScale
 70
     0
300
1/8" = 1'-0"
140
0.125
141
12.0
290
     0
  0
SCALE
  5
5F
102
{ACAD_REACTORS
330
47
102
}
330
47
100
AcDbScale
 70
     0
300
3/16" = 1'-0"
140
0.1875
141
12.0
290
     0
  0
SCALE
  5
60
102
{ACAD_REACTORS
330
47
102
}
330
47
100
AcDbScale
 70
     0
300
1/4" = 1'-0"
140
0.25
141
12.0
290
     0
  0
SCALE
  5
61
102
{ACAD_REACTORS
330
47
102
}
330
47
100
AcDbScale
 70
     0
300
3/8" = 1'-0"
140
0.375
141
12.0
290
     0
  0
SCALE
  5
62
102
{ACAD_REACTORS
330
47
102
}
330
47
100
AcDbScale
 70
     0
300
1/2" = 1'-0"
140
0.5
141
12.0
290
     0
  0
SCALE
  5
63
102
{ACAD_REACTORS
330
47
102
}
330
47
100
AcDbScale
 70
     0
300
3/4" = 1'-0"
140
0.75
141
12.0
290
     0
  0
SCALE
  5
64
102
{ACAD_REACTORS
330
47
102
}
330
47
100
AcDbScale
 70
     0
300
1" = 1'-0"
140
1.0
141
12.0
290
     0
  0
SCALE
  5
65
102
{ACAD_REACTORS
330
47
102
}
330
47
100
AcDbScale
 70
     0
300
1-1/2" = 1'-0"
140
1.5
141
12.0
290
     0
  0
SCALE
  5
66
102
{ACAD_REACTORS
330
47
102
}
330
47
100
AcDbScale
 70
     0
300
3" = 1'-0"
140
3.0
141
12.0
290
     0
  0
SCALE
  5
67
102
{ACAD_REACTORS
330
47
102
}
330
47
100
AcDbScale
 70
     0
300
6" = 1'-0"
140
6.0
141
12.0
290
     0
  0
SCALE
  5
68
102
{ACAD_REACTORS
330
47
102
}
330
47
100
AcDbScale
 70
     0
300
1'-0" = 1'-0"
140
12.0
141
12.0
290
     0
  0
ENDSEC
  0
EOF
